<?xml version="1.0" encoding="utf-8"?>
<!-- Generator: Adobe Illustrator 25.2.3, SVG Export Plug-In . SVG Version: 6.00 Build 0)  -->
<svg version="1.1" id="katman_1" xmlns="http://www.w3.org/2000/svg" xmlns:xlink="http://www.w3.org/1999/xlink" x="0px" y="0px"
	 viewBox="0 0 90 123.7" style="enable-background:new 0 0 90 123.7;" xml:space="preserve">
<style type="text/css">
	.st0{fill:#0A1A33;}
</style>
<g id="katman_2_1_">
	<g id="Foreground">
		<path class="st0" d="M21.1,82.6v-3.4h-3.4v3.4h-3.4v-3.4h-3.4v3.4H7.3v-3.4H3.8v3.4c0,22,17.3,40.1,39.3,41.1v-17.3
			C30.7,105.4,21.1,95,21.1,82.6 M82.8,79.1h3.4v3.4c0,22-17.3,40.1-39.3,41.1v-17.3c12.4-1,22-11.4,22-23.9v-3.4h3.4v3.4h3.4v-3.4
			h3.4v3.4h3.4L82.8,79.1z M24.9,63.3h-21c1.4-5.8,7.2-9.4,13-8C20.9,56.3,24,59.3,24.9,63.3 M65.1,63.3c1.4-5.8,7.2-9.4,13-8
			c3.9,0.9,7,4,8,8H65.1z M24.9,76.3H0c1.7-6.9,8.6-11.1,15.5-9.4C20.1,68,23.8,71.6,24.9,76.3 M77.6,66.5c5.9,0,11,4,12.4,9.8H65.1
			C66.5,70.5,71.7,66.5,77.6,66.5 M65.1,82.8L65.1,82.8V51.9L68,49v-2.8h-2.9V34.6l-2.9-17.2l-2.9,17.2v11.6h-5.8V34.5l2.9-2.9v-2.9
			h-2.9V17.2L50.8,0l-2.9,17.2v11.6h-5.8V17.2L39.3,0l-2.9,17.2v11.6h-2.9v2.9l2.9,2.8v11.6h-5.7V34.6l-2.9-17.2l-2.9,17.2v11.6H22
			V49l2.9,2.9v30.7c-0.1,11.1,8.9,20.2,20,20.2C56,102.9,65,93.9,65.1,82.8 M61.3,85.7H50.5l5.4-9.4L61.3,85.7z M53.6,51.9l2.9-2.9
			l2.9,2.9v16.6c-1.7-1.7-3.6-3.1-5.8-4.1L53.6,51.9z M50.5,66.9l5.4,9.4H45L50.5,66.9z M42.1,34.6l2.9-2.9l2.9,2.8v11.6h-5.8
			L42.1,34.6z M42.1,51.9L45,49l2.9,2.9v10.8c-1.9-0.3-3.8-0.3-5.8,0L42.1,51.9z M39.5,66.9l5.5,9.3H34.1L39.5,66.9z M30.6,51.9
			l2.9-2.9l2.9,2.9v12.5c-2.1,1-4.1,2.4-5.7,4.1V51.9z M28.6,85.8l5.4-9.4l5.4,9.4H28.6z M34.1,95.2l5.4-9.4l5.5,9.4L34.1,95.2z
			 M39.6,85.8l5.4-9.5l5.4,9.4L39.6,85.8z M45,95.2l5.4-9.4l5.4,9.4H45z"/>
	</g>
</g>
</svg>
