<svg xmlns="http://www.w3.org/2000/svg" viewBox="0 0 90 123.7"><defs><style>.cls-1{fill:#fff;}</style></defs><g id="katman_2" data-name="katman 2"><g id="katman_1-2" data-name="katman 1"><g id="katman_2-2" data-name="katman 2"><g id="Foreground"><path class="cls-1" d="M21.1,82.6V79.2H17.7v3.4H14.3V79.2H10.9v3.4H7.3V79.2H3.8v3.4a41.14,41.14,0,0,0,39.3,41.1V106.4a24,24,0,0,1-22-23.8m61.7-3.5h3.4v3.4a41.14,41.14,0,0,1-39.3,41.1V106.3a24,24,0,0,0,22-23.9V79h3.4v3.4h3.4V79h3.4v3.4h3.4ZM24.9,63.3H3.9a10.79,10.79,0,0,1,21,0m40.2,0a10.79,10.79,0,0,1,21,0Zm-40.2,13H0a12.78,12.78,0,0,1,15.5-9.4,12.67,12.67,0,0,1,9.4,9.4m52.7-9.8A12.72,12.72,0,0,1,90,76.3H65.1a12.83,12.83,0,0,1,12.5-9.8M65.1,82.8h0V51.9L68,49V46.2H65.1V34.6L62.2,17.4,59.3,34.6V46.2H53.5V34.5l2.9-2.9V28.7H53.5V17.2L50.8,0,47.9,17.2V28.8H42.1V17.2L39.3,0,36.4,17.2V28.8H33.5v2.9l2.9,2.8V46.1H30.7V34.6L27.8,17.4,24.9,34.6V46.2H22V49l2.9,2.9V82.6a20.1,20.1,0,1,0,40.2.2m-3.8,2.9H50.5l5.4-9.4ZM53.6,51.9,56.5,49l2.9,2.9V68.5a19.71,19.71,0,0,0-5.8-4.1Zm-3.1,15,5.4,9.4H45ZM42.1,34.6,45,31.7l2.9,2.8V46.1H42.1Zm0,17.3L45,49l2.9,2.9V62.7a18.8,18.8,0,0,0-5.8,0Zm-2.6,15L45,76.2H34.1Zm-8.9-15L33.5,49l2.9,2.9V64.4a19.26,19.26,0,0,0-5.7,4.1V51.9Zm-2,33.9L34,76.4l5.4,9.4Zm5.5,9.4,5.4-9.4L45,95.2Zm5.5-9.4L45,76.3l5.4,9.4ZM45,95.2l5.4-9.4,5.4,9.4Z"/></g></g></g></g></svg>