<svg xmlns="http://www.w3.org/2000/svg" viewBox="0 0 212.77 212.77"><defs><style>.cls-1{fill:#0b1a32;}</style></defs><g id="Layer_2" data-name="Layer 2"><g id="Foreground"><path class="cls-1" d="M56.49,140.72l-.26,2.78a10.78,10.78,0,0,0-1.58-.52c-.25-.06-.5-.1-.74-.14a6,6,0,0,0-.72,0,3.34,3.34,0,0,0-1.7.35,1,1,0,0,0-.61.94,1,1,0,0,0,.31.74,2.24,2.24,0,0,0,.94.53l.59.19a11.37,11.37,0,0,1,3.06,1.32,3.25,3.25,0,0,1,1,1.25,3.93,3.93,0,0,1,.34,1.66,4.08,4.08,0,0,1-1.48,3.38,6.68,6.68,0,0,1-4.27,1.18,13.81,13.81,0,0,1-2-.14,14.35,14.35,0,0,1-2-.42l.3-3a9.67,9.67,0,0,0,1.84.65,6.07,6.07,0,0,0,.85.16,6.15,6.15,0,0,0,.84.06,3,3,0,0,0,1.67-.4,1.21,1.21,0,0,0,.61-1.08c0-.55-.65-1.06-2-1.52l-.73-.26a6.87,6.87,0,0,1-2.74-1.6,3.36,3.36,0,0,1-.82-2.34,3.66,3.66,0,0,1,1.45-3.11,6.71,6.71,0,0,1,4.14-1.1,14.44,14.44,0,0,1,1.92.12l.89.14c.29.06.58.13.87.22m9.16,2.56H69V154h3.59V143.28H75.9v-2.69H65.65Zm26,5.35H88.2l1.74-5ZM82.75,154H86.3l1-2.85h5.18l1,2.85h3.83l-5.09-13.44H87.85Zm22.83,0h3.24v-7.09c0-.24,0-.52,0-.86s0-.64-.07-.91c0-.48-.08-.86-.12-1.16s-.09-.65-.15-1.06c.16.58.3,1.07.43,1.48a11.76,11.76,0,0,0,.53,1.25l4,8.35h4.46V140.59h-3.24v7.61c0,.43,0,.93.08,1.5s.14,1.18.25,1.85c-.11-.32-.21-.64-.32-1s-.23-.71-.27-.8a10.44,10.44,0,0,0-.46-1.13l-3.89-8.06h-4.48Zm27.52-5.64a2.58,2.58,0,0,1,1.55.4,1.35,1.35,0,0,1,.52,1.16,1.37,1.37,0,0,1-.57,1.19,2.8,2.8,0,0,1-1.67.41h-1.4v-3.16Zm-.31-5.38a2.81,2.81,0,0,1,1.56.36,1.26,1.26,0,0,1,.53,1.09,1.32,1.32,0,0,1-.57,1.17,3.08,3.08,0,0,1-1.7.38h-1.08v-3ZM128,154h5.23a7.54,7.54,0,0,0,4.17-.91,3.15,3.15,0,0,0,1.35-2.8,3.05,3.05,0,0,0-.74-2.11,3.63,3.63,0,0,0-2.12-1.09,3.65,3.65,0,0,0,1.87-1.11,2.91,2.91,0,0,0,.64-1.94,3,3,0,0,0-1.23-2.61,6.39,6.39,0,0,0-3.67-.87H128Zm20.35-5.62a6.1,6.1,0,0,0,1.45,4.44,5.67,5.67,0,0,0,4.28,1.49,5.75,5.75,0,0,0,4.31-1.47,6.21,6.21,0,0,0,1.43-4.46v-7.82h-3.41v7.82a4.19,4.19,0,0,1-.59,2.43,2,2,0,0,1-1.74.83,1.8,1.8,0,0,1-1.63-.78,4.51,4.51,0,0,1-.52-2.48v-7.82h-3.58ZM169.94,154h9v-2.65h-5.4V140.59h-3.59ZM33.84,139.39h3.59V137.6H33.84Zm0,14.64h3.59V140.59H33.84ZM16.75,178A5.11,5.11,0,0,1,18,181.54a5.26,5.26,0,0,1-2.27,4.69c-1.51,1-3.83,1.53-7,1.53H0v-22.5H9.21q4.06,0,6.14,1.47a5,5,0,0,1,2.06,4.36,4.88,4.88,0,0,1-1.08,3.25,6.06,6.06,0,0,1-3.13,1.85A6.14,6.14,0,0,1,16.75,178M5.87,174.34H7.69a5.1,5.1,0,0,0,2.85-.64,2.23,2.23,0,0,0,.94-2,2.08,2.08,0,0,0-.89-1.82A4.66,4.66,0,0,0,8,169.31H5.87ZM12,180.92a2.29,2.29,0,0,0-.87-1.94,4.32,4.32,0,0,0-2.59-.65H5.87v5.28H8.23a4.81,4.81,0,0,0,2.78-.68,2.31,2.31,0,0,0,1-2m43.1-6.16-4.49-9.5H43.76l8.07,14.14v8.36h6v-8.42L66,165.26H59.54Zm26.84,3.6a7,7,0,0,1-1,4.06A3.34,3.34,0,0,1,78,183.81a3,3,0,0,1-2.73-1.3,7.67,7.67,0,0,1-.86-4.15v-13.1h-6v13.09q0,5,2.42,7.44T78,188.28c3.22,0,5.62-.82,7.22-2.47s2.39-4.13,2.39-7.46V165.26H81.9Zm2.81-18.1H79v3h5.7Zm-7.71,0H71.31v3H77Zm-46.25,0h-5.7v3h5.7Zm4.89,18.1a7,7,0,0,1-1,4.06,3.33,3.33,0,0,1-2.9,1.39,3,3,0,0,1-2.74-1.3,7.76,7.76,0,0,1-.86-4.15v-13.1h-6v13.09q0,5,2.42,7.44t7.17,2.49q4.83,0,7.22-2.47t2.39-7.46V165.26H35.64Zm2.81-18.1H32.76v3h5.69Zm74.4,5h-6.71l-7,9.73v-9.73h-6v22.5h6V177.32l7.08,10.44h7.46l-9.12-12.16Zm29.71,13h9.09V174h-9.09v-4.54h9.62v-4.22H136.56v22.5h16v-4.34h-10Zm28.12-4.45h-7v-8.59h-6v22.5h6v-9.4h7v9.4h6v-22.5h-6Zm11.61-10.59h6v-3h-6Zm0,24.5h6v-22.5h-6Zm30.48,0h-6.26l-2-6.15a3.94,3.94,0,0,0-1.29-2.06,4.56,4.56,0,0,0-2.58-.57h-.87v8.78h-5.86v-22.5h8.94q4.49,0,6.64,1.44a5,5,0,0,1,2.15,4.42,5.51,5.51,0,0,1-1.13,3.57,5.75,5.75,0,0,1-3.3,1.91c1.17.44,2.12,1.66,2.85,3.69Zm-7-15.59a2.49,2.49,0,0,0-1.08-2.24,6.34,6.34,0,0,0-3.43-.71h-1.49V175h2.11a5,5,0,0,0,2.93-.71,2.44,2.44,0,0,0,1-2.11M130,175.78a19.15,19.15,0,0,0-5.13-2.21l-1-.32a4,4,0,0,1-1.58-.89,1.74,1.74,0,0,1-.51-1.23,1.79,1.79,0,0,1,1-1.59,5.73,5.73,0,0,1,2.84-.58,8.29,8.29,0,0,1,1.21.08,11.56,11.56,0,0,1,1.24.22,19.35,19.35,0,0,1,2.64.87l.44-4.64c-.49-.15-1-.27-1.46-.37s-1-.17-1.5-.24a24.48,24.48,0,0,0-3.19-.2q-4.52,0-6.94,1.84a6.13,6.13,0,0,0-2.43,5.2,5.64,5.64,0,0,0,1.38,3.93,11.28,11.28,0,0,0,4.58,2.67l1.22.43c2.19.77,3.29,1.62,3.29,2.55a2,2,0,0,1-1,1.81,5.14,5.14,0,0,1-2.79.66,11.42,11.42,0,0,1-1.39-.09,12.14,12.14,0,0,1-1.44-.27,17.47,17.47,0,0,1-3.07-1.09l-.5,5a23.9,23.9,0,0,0,3.4.71c.64.09,1.27.15,1.89.19l-.23,2.53h5.69l.29-3a8.38,8.38,0,0,0,2.89-1.41,6.91,6.91,0,0,0,2.46-5.69,6.41,6.41,0,0,0-.56-2.77,5.46,5.46,0,0,0-1.73-2.09M44,206.63a3,3,0,0,1,.75,2.11,3.13,3.13,0,0,1-1.36,2.8,7.53,7.53,0,0,1-4.17.92H34V199h5.51a6.31,6.31,0,0,1,3.67.88,3,3,0,0,1,1.23,2.61,2.91,2.91,0,0,1-.64,1.94,3.68,3.68,0,0,1-1.88,1.11A3.6,3.6,0,0,1,44,206.63m-6.5-2.2h1.09a3.1,3.1,0,0,0,1.7-.38,1.35,1.35,0,0,0,.56-1.18,1.2,1.2,0,0,0-.53-1.08,2.76,2.76,0,0,0-1.56-.37H37.48Zm3.64,3.94a1.35,1.35,0,0,0-.52-1.16,2.56,2.56,0,0,0-1.55-.4H37.48V210h1.41a2.79,2.79,0,0,0,1.66-.42,1.37,1.37,0,0,0,.57-1.19m13.52-1.57h5.43v-2.56H54.64v-2.72h5.75V199H51.05v13.46h9.56v-2.6h-6ZM71.12,199H67.54v13.46h9V209.8H71.12ZM86,206.8h5.44v-2.56H86v-2.72h5.76V199H82.43v13.46H92v-2.6H86Zm24.55-4.48a7.11,7.11,0,0,1,.75,3.33,7.41,7.41,0,0,1-.78,3.54,6.25,6.25,0,0,1-2.39,2.4,6.13,6.13,0,0,1-2,.66c-.4.06-.89.11-1.46.15s-1.2.06-1.87.06H98.51V199h4.71a17.69,17.69,0,0,1,3.1.23,5.73,5.73,0,0,1,4.24,3.09m-2.94,3.33a4,4,0,0,0-1.07-3,4.18,4.18,0,0,0-3.07-1.06h-1.37v8.16h1.56a3.88,3.88,0,0,0,2.92-1.07,4.21,4.21,0,0,0,1-3m24.14-1L129.07,199H125l4.83,8.46v5h3.59v-5l4.89-8.42h-3.87Zm15.12,2.12h5.43v-2.56h-5.43v-2.72h5.75V199h-9.34v13.46h9.56v-2.6h-6Zm20.72-1.51a11.3,11.3,0,0,0-3.07-1.32l-.59-.19a2.35,2.35,0,0,1-.95-.54,1,1,0,0,1-.3-.73,1.06,1.06,0,0,1,.61-.95,3.43,3.43,0,0,1,1.69-.35,6,6,0,0,1,.73,0,6.77,6.77,0,0,1,.74.13,12.12,12.12,0,0,1,1.58.52l.27-2.78c-.3-.08-.59-.16-.88-.21s-.58-.11-.9-.15a14.28,14.28,0,0,0-1.91-.12,6.81,6.81,0,0,0-4.15,1.1,3.66,3.66,0,0,0-1.45,3.11,3.37,3.37,0,0,0,.83,2.35,6.72,6.72,0,0,0,2.74,1.6l.73.26c1.31.46,2,1,2,1.52a1.2,1.2,0,0,1-.62,1.08,3,3,0,0,1-1.66.4,6.15,6.15,0,0,1-.84-.06,6.49,6.49,0,0,1-.86-.16,9.84,9.84,0,0,1-1.83-.65l-.31,3a16.47,16.47,0,0,0,2,.43,15.32,15.32,0,0,0,2,.14,6.76,6.76,0,0,0,4.28-1.18A4.08,4.08,0,0,0,169,208.2a3.79,3.79,0,0,0-.34-1.66,3.31,3.31,0,0,0-1-1.25M117,212.46h3.58V199H117Zm0-14.65h3.58V196H117Zm58.25,0h3.59V196h-3.59Zm0,14.65h3.59V199h-3.59ZM82.44,82.56V79.11H79v3.45H75.55V79.11H72.1v3.45H68.65V79.11H65.2v3.45a41.18,41.18,0,0,0,39.27,41.13V106.42a23.93,23.93,0,0,1-22-23.86m61.67-3.45h3.45v3.45a41.17,41.17,0,0,1-39.26,41.13V106.42a23.93,23.93,0,0,0,22-23.86V79.11h3.45v3.45h3.45V79.11h3.45v3.45h3.44ZM86.27,63.29h-21a10.8,10.8,0,0,1,21,0m40.23,0a10.8,10.8,0,0,1,21,0Zm-40.23,13H61.38a12.81,12.81,0,0,1,24.89,0m52.67-9.77a12.81,12.81,0,0,1,12.44,9.77H126.5a12.83,12.83,0,0,1,12.44-9.77M126.49,82.82h0V51.89L129.37,49V46.16h-2.88V34.57l-2.87-17.24-2.87,17.24V46.16H115V34.55l2.88-2.85V28.82H115V17.24L112.13,0l-2.87,17.24V28.82h-5.75V17.24L100.64,0,97.76,17.24V28.82H94.89V31.7l2.87,2.85V46.16H92V34.57L89.15,17.33,86.27,34.57V46.16H83.4V49l2.87,2.86V82.56a20.11,20.11,0,0,0,40.22.26m-3.75,2.91H111.87l5.43-9.42ZM115,51.89,117.88,49l2.87,2.86v16.6a20.1,20.1,0,0,0-5.75-4.1Zm-3.16,15,5.44,9.42H106.41Zm-8.33-32.3,2.87-2.85,2.88,2.85V46.16h-5.75Zm0,17.34L106.38,49l2.88,2.86V62.66a19.79,19.79,0,0,0-5.75,0Zm-2.59,15,5.44,9.42H95.49Zm-8.9-15L94.89,49l2.87,2.86v12.5A20.19,20.19,0,0,0,92,68.49ZM90,85.73l5.44-9.42,5.44,9.42Zm5.47,9.46,5.43-9.42,5.44,9.42ZM101,85.73l5.43-9.42,5.44,9.42Zm5.46,9.46,5.43-9.42,5.44,9.42Z"/></g></g></svg>