<?xml version="1.0" standalone="no"?>
<!DOCTYPE svg PUBLIC "-//W3C//DTD SVG 20010904//EN"
 "http://www.w3.org/TR/2001/REC-SVG-20010904/DTD/svg10.dtd">
<svg version="1.0" xmlns="http://www.w3.org/2000/svg"
 width="992.000000pt" height="992.000000pt" viewBox="0 0 992.000000 992.000000"
 preserveAspectRatio="xMidYMid meet">
<metadata>
Created by potrace 1.14, written by Peter Selinger 2001-2017
</metadata>
<g transform="translate(0.000000,992.000000) scale(0.100000,-0.100000)"
fill="#000000" stroke="none">
<path d="M5419 9899 c-2 -35 -8 -72 -29 -189 -12 -69 -23 -134 -25 -145 -2
-11 -6 -38 -10 -60 -4 -22 -20 -119 -36 -215 -16 -96 -32 -188 -35 -205 -3
-16 -7 -41 -9 -55 -2 -14 -11 -68 -21 -120 -9 -52 -18 -105 -19 -117 -2 -13
-7 -42 -11 -65 -4 -24 -8 -52 -10 -63 -2 -11 -6 -31 -10 -45 -4 -14 -8 -243
-10 -510 -1 -267 -3 -488 -3 -492 -1 -5 -104 -8 -231 -8 -212 0 -230 1 -231
18 0 9 -1 226 -1 482 0 256 -4 474 -8 485 -7 18 -13 52 -26 150 -4 30 -10 66
-18 115 -3 14 -7 41 -10 60 -3 19 -8 46 -11 60 -3 14 -7 44 -10 68 -2 23 -6
46 -9 50 -2 4 -7 31 -10 60 -3 29 -8 63 -11 75 -3 12 -8 38 -10 57 -6 43 -10
68 -24 145 -11 61 -21 130 -27 175 -1 14 -3 25 -4 25 -1 0 -3 9 -5 20 -1 11
-5 38 -9 60 -3 22 -8 51 -11 65 -6 25 -13 81 -15 110 -2 31 -18 -14 -25 -70
-4 -30 -9 -64 -11 -75 -10 -50 -16 -82 -20 -110 -3 -16 -7 -41 -9 -55 -3 -14
-7 -38 -9 -55 -5 -34 -14 -88 -21 -125 -3 -14 -8 -41 -11 -60 -7 -48 -10 -69
-18 -110 -4 -19 -9 -46 -11 -60 -4 -31 -11 -75 -36 -215 -10 -60 -21 -128 -25
-150 -3 -22 -14 -90 -25 -152 -17 -99 -19 -162 -19 -577 l0 -466 -114 0 c-82
0 -115 -3 -118 -12 -2 -7 -3 -60 -2 -117 l2 -105 116 -111 116 -111 0 -465 0
-465 -227 1 -228 0 -1 450 c-1 397 -5 512 -20 590 -5 22 -33 186 -39 225 -2
14 -11 68 -20 120 -10 52 -19 109 -21 125 -3 17 -7 41 -11 55 -3 14 -7 36 -8
50 -2 14 -6 41 -10 60 -4 19 -8 44 -9 55 -3 18 -10 61 -22 135 -2 14 -6 36 -9
50 -3 14 -8 41 -11 60 -8 54 -11 72 -18 110 -3 19 -8 49 -11 65 -3 17 -8 54
-12 83 -3 29 -8 50 -11 47 -6 -6 -7 -11 -16 -70 -3 -16 -7 -41 -10 -55 -3 -14
-7 -41 -10 -60 -7 -41 -13 -81 -22 -130 -4 -19 -8 -45 -9 -57 -2 -12 -6 -35
-10 -52 -3 -16 -8 -42 -10 -58 -4 -26 -10 -65 -19 -123 -4 -24 -9 -50 -22
-122 -3 -18 -7 -42 -9 -53 -1 -11 -10 -60 -18 -110 -9 -49 -18 -106 -21 -125
-3 -19 -7 -44 -10 -55 -2 -11 -7 -40 -11 -65 -4 -25 -9 -52 -10 -60 -25 -144
-28 -199 -29 -630 l-1 -465 -115 0 -115 0 -1 -110 -1 -110 118 -120 117 -120
-1 -432 c0 -238 -3 -433 -6 -433 -3 0 -12 19 -19 43 -16 51 -64 146 -105 207
-51 74 -217 230 -246 230 -5 0 -11 3 -13 8 -8 17 -187 94 -253 108 -11 2 -31
7 -45 10 -34 9 -258 10 -295 2 -16 -4 -43 -10 -60 -13 -16 -3 -39 -9 -50 -12
-11 -4 -24 -8 -30 -9 -5 -1 -39 -15 -75 -32 -169 -78 -315 -212 -405 -375 -32
-58 -75 -170 -75 -195 0 -17 43 -18 831 -17 542 0 833 -3 839 -10 4 -5 8 -237
7 -514 0 -451 -4 -526 -21 -446 -6 28 -22 67 -54 134 -168 353 -535 577 -942
574 -41 0 -97 -4 -125 -8 -27 -4 -59 -8 -70 -10 -11 -1 -27 -5 -35 -8 -8 -3
-40 -13 -70 -22 -55 -18 -230 -99 -240 -113 -3 -4 -25 -21 -49 -37 -111 -75
-251 -242 -314 -375 -39 -83 -78 -190 -72 -200 3 -4 447 -8 988 -9 540 0 987
0 993 -1 8 0 11 -91 11 -302 1 -167 4 -330 7 -363 14 -137 60 -335 103 -435
56 -133 145 -300 165 -308 5 -2 8 -8 8 -14 0 -35 233 -284 345 -369 295 -222
617 -330 985 -332 104 0 275 14 275 23 0 1 9 3 20 4 63 8 112 20 123 28 6 6
12 8 12 4 0 -3 12 -1 28 5 15 6 38 13 51 15 13 3 36 11 51 19 15 8 30 11 34 8
3 -4 6 -1 6 5 0 7 7 12 15 12 9 0 30 8 48 17 18 9 34 17 37 18 3 0 44 22 91
48 204 114 404 298 533 487 51 76 59 89 113 190 23 43 82 183 89 210 0 3 3 12
6 20 3 8 11 32 17 52 11 35 15 49 26 108 3 14 7 36 10 50 22 107 26 179 27
495 0 165 3 303 5 307 2 4 14 3 27 -2 13 -5 26 -6 29 -3 3 3 441 5 972 5 845
0 966 1 961 14 -3 8 -13 39 -21 69 -25 85 -93 213 -161 305 -148 198 -419 356
-663 387 -68 8 -249 7 -311 -2 -79 -12 -213 -55 -285 -92 -83 -42 -195 -114
-195 -125 0 -4 -4 -8 -10 -8 -17 0 -141 -132 -192 -205 -45 -64 -115 -198
-123 -235 -5 -23 -24 -70 -29 -70 -2 0 -3 226 -2 502 l1 502 838 0 c747 0 837
2 837 16 0 8 -7 34 -15 58 -188 538 -817 757 -1293 449 -156 -101 -273 -248
-338 -426 l-31 -85 -1 449 0 450 117 118 116 117 0 110 c0 61 -2 111 -5 111
-3 1 -54 2 -115 3 l-110 1 -2 470 -1 470 -31 182 c-18 101 -34 195 -36 210 -2
16 -7 42 -10 58 -3 17 -8 46 -11 65 -8 47 -13 74 -19 108 -5 24 -18 107 -30
187 -3 17 -7 41 -10 55 -3 14 -8 41 -11 60 -9 58 -13 84 -19 110 -3 14 -7 41
-9 60 -3 19 -12 75 -21 123 -8 48 -17 97 -18 107 -4 23 -13 35 -14 17 0 -6 -3
-30 -7 -52 -3 -22 -8 -56 -11 -75 -3 -19 -10 -57 -15 -85 -6 -27 -12 -66 -15
-85 -3 -19 -7 -46 -10 -60 -3 -14 -8 -42 -9 -62 -2 -20 -6 -40 -9 -45 -3 -4
-8 -35 -12 -68 -3 -32 -8 -62 -10 -65 -3 -5 -10 -47 -20 -115 -1 -11 -13 -76
-25 -145 -12 -69 -24 -136 -25 -150 -8 -63 -22 -145 -25 -145 -1 0 -3 -11 -4
-25 -2 -14 -9 -56 -16 -95 -9 -50 -12 -206 -13 -537 0 -330 -3 -468 -11 -471
-9 -3 -430 -1 -447 2 -3 0 -6 211 -6 469 l0 467 114 113 c62 62 113 116 114
120 1 4 2 57 3 119 l2 111 -101 0 c-55 0 -107 1 -116 1 -14 1 -16 46 -16 459
0 422 -4 508 -29 636 -2 10 -6 39 -9 65 -7 51 -7 46 -30 186 -9 55 -18 116
-21 135 -2 19 -7 45 -9 57 -3 12 -8 44 -11 70 -5 52 -11 88 -14 88 -1 0 -3 11
-4 25 -3 22 -16 107 -33 205 -3 17 -6 44 -8 60 -2 17 -8 57 -14 90 -11 65 -18
109 -27 170 -7 42 -13 58 -15 34z m-294 -2680 l70 -65 -2 -440 c-1 -241 -2
-450 -2 -464 l-1 -26 -230 0 -230 -1 -1 46 c0 25 -1 233 -1 461 l0 416 117
116 118 116 46 -47 c25 -25 78 -76 116 -112z m-855 -1963 l0 -501 -78 -40
c-42 -22 -85 -47 -95 -56 -9 -9 -30 -22 -45 -30 -15 -8 -32 -18 -38 -24 -6 -5
-23 -19 -39 -30 -15 -11 -35 -27 -44 -36 -9 -8 -39 -36 -67 -62 l-51 -47 1
670 1 669 112 110 111 111 116 -116 116 -116 0 -502z m808 617 l117 -118 -2
-410 c-1 -225 -2 -421 -2 -434 -1 -18 -5 -22 -18 -16 -26 11 -340 15 -393 5
-25 -5 -47 -7 -49 -4 -2 2 -4 197 -4 433 l0 430 114 114 c63 64 116 116 117
116 2 1 56 -52 120 -116z m927 -4 l110 -110 0 -665 c0 -365 -1 -664 -2 -664
-1 0 -14 12 -30 28 -111 108 -309 246 -405 283 l-28 11 0 503 0 503 108 110
c59 60 114 110 122 111 8 0 64 -49 125 -110z m-1455 -1360 c0 -8 161 -285 209
-359 8 -14 23 -38 32 -55 9 -16 50 -86 91 -155 l75 -125 -430 -3 c-237 -1
-432 0 -434 2 -2 2 13 32 35 67 21 35 58 99 83 143 24 43 55 97 69 121 14 23
72 124 130 223 98 168 106 179 123 164 9 -8 17 -19 17 -23z m871 14 c7 -16 23
-44 35 -63 11 -19 32 -55 46 -80 14 -25 69 -121 123 -215 54 -93 108 -187 119
-207 12 -21 63 -111 115 -200 104 -181 122 -212 159 -278 13 -25 28 -49 32
-55 4 -5 19 -30 32 -55 14 -25 60 -105 102 -178 43 -74 75 -136 72 -140 -11
-10 -846 -8 -846 3 0 6 16 36 35 68 19 32 35 59 35 61 0 2 24 43 53 92 29 49
58 100 65 114 6 14 16 32 22 40 21 33 90 151 90 154 0 3 27 50 60 107 33 56
59 104 56 106 -3 3 -196 5 -430 5 -268 0 -426 3 -426 9 0 6 15 33 33 62 18 29
38 63 45 77 6 14 18 34 24 45 40 62 88 143 88 148 0 4 20 38 45 77 25 39 45
72 45 75 0 4 67 119 90 155 6 8 20 34 32 58 12 23 25 42 28 42 4 0 13 -12 21
-27z m-1262 -872 c39 -68 71 -127 71 -132 0 -5 5 -9 10 -9 6 0 10 -4 10 -9 0
-5 23 -49 51 -98 29 -48 63 -108 77 -133 13 -25 28 -49 32 -55 4 -5 19 -30 32
-55 14 -25 35 -62 46 -82 17 -30 18 -37 7 -42 -8 -3 -17 -1 -20 5 -4 5 -11 6
-17 3 -5 -4 -107 -6 -226 -5 -120 1 -226 2 -237 2 -11 0 -91 -1 -178 -1 -88
-1 -160 0 -162 2 -2 2 2 15 10 28 8 14 18 34 23 45 5 11 24 45 42 75 18 30 41
70 52 88 10 18 53 93 95 165 85 148 118 206 165 289 18 32 35 54 39 50 4 -4
39 -63 78 -131z m817 125 c8 -8 14 -20 14 -27 0 -7 6 -20 14 -28 7 -9 26 -38
41 -66 52 -96 79 -140 87 -143 4 -2 8 -12 8 -23 0 -10 5 -19 10 -19 6 0 10 -6
10 -13 0 -7 16 -36 35 -65 20 -28 32 -52 29 -52 -4 0 0 -8 8 -17 8 -10 50 -81
93 -158 43 -77 97 -174 120 -215 24 -41 53 -93 65 -115 12 -22 26 -44 30 -50
4 -5 21 -35 37 -65 17 -30 68 -120 115 -200 46 -80 87 -152 91 -160 4 -8 14
-26 22 -39 7 -14 12 -27 10 -30 -2 -3 -389 -6 -862 -5 -691 0 -857 3 -855 13
1 7 38 74 81 149 43 76 88 153 99 173 11 20 26 47 34 60 7 13 15 26 18 29 3 3
10 14 16 25 47 89 60 111 65 115 3 3 23 38 44 78 21 40 46 80 55 90 8 9 31 44
49 77 40 70 80 142 95 170 6 11 13 22 16 25 3 3 11 16 17 30 7 14 26 48 42 75
16 28 42 72 56 99 44 81 50 91 56 96 3 3 14 23 26 45 40 78 58 110 64 115 3 3
8 13 12 23 8 21 14 21 33 3z"/>
<path d="M4577 3038 c-5 -3 -16 -4 -23 -1 -35 13 -14 -34 96 -222 66 -113 120
-210 120 -215 0 -6 4 -10 8 -10 5 0 21 -24 36 -53 14 -29 42 -76 61 -105 18
-29 32 -52 30 -52 -3 0 7 -16 20 -36 14 -20 25 -41 25 -46 0 -17 20 3 40 40
11 20 30 53 41 72 12 19 60 103 106 185 47 83 90 152 94 153 5 2 9 10 9 18 0
7 16 38 35 68 19 30 35 57 35 59 0 3 18 35 40 71 23 37 39 70 36 75 -6 10
-578 7 -594 -3 -7 -4 -12 -4 -12 1 0 10 -187 11 -203 1z"/>
<path d="M6879 3585 c0 0 -1 -106 -3 -236 -1 -129 -5 -240 -8 -245 -3 -5 -9
-38 -12 -74 -4 -36 -16 -101 -27 -145 -11 -44 -22 -84 -23 -90 -12 -45 -29
-102 -34 -110 -4 -5 -7 -15 -8 -20 -8 -56 -172 -383 -196 -393 -4 -2 -8 -8 -8
-13 0 -6 -34 -55 -76 -110 -136 -180 -324 -352 -514 -470 -164 -101 -405 -203
-560 -234 -8 -2 -15 -4 -15 -5 0 -1 -11 -3 -25 -6 -14 -2 -48 -9 -76 -14 -67
-14 -123 -21 -155 -20 l-26 0 -1 -696 0 -697 92 7 c50 3 105 8 121 11 17 2 50
7 75 10 25 3 61 8 80 11 19 3 46 7 60 9 14 2 25 4 25 5 0 1 13 3 29 5 130 17
519 137 681 210 127 57 151 69 157 79 4 6 8 8 8 3 0 -13 281 148 385 222 68
48 199 144 205 151 3 3 34 30 70 60 128 108 294 273 382 382 18 22 38 45 43
52 65 74 189 249 265 376 57 95 200 369 200 384 0 3 11 28 24 55 13 27 27 62
31 78 11 38 10 35 22 63 9 21 25 70 60 180 2 8 5 17 5 20 0 3 4 15 9 28 5 12
11 33 14 45 2 12 14 63 26 112 28 120 28 120 45 233 3 20 8 51 11 67 5 31 7
52 19 190 9 107 13 515 5 516 -22 5 -263 4 -266 -1 -5 -7 -21 -165 -24 -231
l-1 -26 -135 -1 c-99 -1 -135 2 -136 11 -1 7 -2 64 -4 127 -1 63 -3 120 -4
125 0 6 -52 10 -135 10 l-133 0 0 -115 c-1 -63 -1 -125 -2 -136 -1 -21 -6 -22
-136 -23 l-135 -1 0 135 c0 74 -3 136 -7 136 -6 1 -261 5 -264 4z"/>
<path d="M1657 3557 c-10 -32 5 -569 19 -637 3 -14 7 -45 9 -70 3 -25 7 -56
10 -70 3 -14 10 -52 15 -85 5 -33 23 -114 40 -180 17 -66 32 -127 34 -136 13
-51 31 -105 37 -114 4 -6 10 -22 13 -35 6 -31 46 -139 75 -203 11 -27 21 -51
21 -54 0 -11 142 -286 180 -349 22 -36 40 -70 40 -75 0 -5 5 -9 10 -9 6 0 10
-6 10 -13 0 -8 9 -22 20 -32 11 -10 20 -23 20 -30 0 -7 9 -20 20 -30 11 -10
20 -22 20 -27 0 -10 123 -170 203 -263 33 -38 113 -122 176 -185 163 -161 233
-221 395 -337 56 -40 106 -77 113 -83 7 -5 17 -10 23 -10 5 0 10 -4 10 -10 0
-5 4 -10 9 -10 5 0 46 -22 91 -50 45 -27 85 -50 89 -50 4 0 13 -6 20 -12 6 -7
15 -13 19 -14 4 0 59 -26 122 -56 128 -63 165 -79 230 -103 25 -9 54 -21 65
-25 25 -10 57 -22 70 -26 6 -2 48 -15 95 -30 73 -22 131 -38 215 -59 30 -7
116 -25 150 -31 17 -2 37 -7 45 -9 8 -2 35 -7 60 -10 25 -3 61 -8 80 -10 58
-8 111 -14 196 -20 l81 -6 0 694 0 694 -91 12 c-50 6 -102 13 -116 16 -14 4
-36 8 -50 11 -51 10 -171 46 -247 73 -100 36 -330 148 -353 171 -3 3 -25 18
-50 34 -165 105 -337 268 -471 446 -44 58 -85 117 -92 133 -6 15 -15 27 -18
27 -4 0 -36 60 -72 133 -95 192 -159 392 -182 567 -4 30 -9 64 -12 75 -3 11
-6 121 -8 245 -2 124 -4 228 -4 232 -1 12 -259 9 -266 -3 -4 -5 -7 -67 -8
-136 l-2 -127 -129 -1 c-103 -1 -129 2 -134 14 -3 8 -6 69 -6 135 l-1 121
-135 0 -135 0 -1 -125 c-1 -69 -2 -130 -3 -135 -1 -12 -265 -14 -278 -2 -4 5
-9 61 -9 125 -1 65 -2 123 -3 130 -1 17 -268 16 -274 -1z"/>
</g>
</svg>
