<?xml version="1.0" encoding="utf-8"?>
<!-- Generator: Adobe Illustrator 24.1.2, SVG Export Plug-In . SVG Version: 6.00 Build 0)  -->
<svg version="1.1" xmlns="http://www.w3.org/2000/svg" xmlns:xlink="http://www.w3.org/1999/xlink" x="0px" y="0px"
	 viewBox="0 0 512 512" style="enable-background:new 0 0 512 512;" xml:space="preserve">
<style type="text/css">
	.st0{fill:#00000D;}
	.st1{fill:#0A1A33;}
	.st2{fill:#FFFFFF;}
</style>
<g id="Layer_1">
	<g id="Layer_1_1_">
		<g id="Outline">
			<path class="st0" d="M256,16C158.3,16.7,79.5,96.4,80,194.1c0,62.7,28.8,132.3,85.6,206.9c25.5,33.5,54,64.7,85.1,93
				c3,2.6,7.5,2.6,10.5,0c31.2-28.3,59.6-59.5,85.1-93c56.8-74.5,85.6-144.2,85.6-206.9C432.5,96.4,353.7,16.7,256,16z M256,477.2
				c-28.2-26.3-160-156-160-283c0-24.2,5.4-47.2,15-67.8c13.4-28.7,35.2-52.8,62.1-69.1c24.2-14.7,52.6-23.1,82.9-23.1
				c88.4,0,160,71.6,160,160C416,321.2,284.2,450.9,256,477.2z"/>
			<path class="st1" d="M256,34.2c-30.3,0-58.7,8.4-82.9,23.1c-26.9,16.3-48.7,40.4-62.1,69.1c-9.6,20.6-15,43.6-15,67.8
				c0,127,131.8,256.7,160,283c28.2-26.3,160-156,160-283C416,105.8,344.4,34.2,256,34.2z M256,336c-79.5,0-144-64.5-144-144
				S176.5,48,256,48c79.5,0.1,143.9,64.5,144,144C400,271.5,335.5,336,256,336z"/>
			<path class="st0" d="M256,48c-79.5,0-144,64.5-144,144s64.5,144,144,144s144-64.5,144-144C399.9,112.5,335.5,48.1,256,48z
				 M383.8,198.5C383.8,198.5,383.8,198.6,383.8,198.5C380.4,264,328,316.4,262.6,319.8c0,0,0,0-0.1,0c-1.1,0.1-2.1,0.1-3.2,0.1
				s-2.2,0-3.3,0c-2.3,0-4.7-0.1-7-0.2c-0.4,0-0.8,0-1.3-0.1c-0.6,0-1.2-0.1-1.8-0.1c-1-0.1-2-0.2-3-0.3c-0.5,0-1.1-0.1-1.6-0.2
				s-1.1-0.1-1.6-0.2C176.8,311,128,257.2,128,192S176.8,73,239.8,65c0.5-0.1,1.1-0.1,1.6-0.2s1.1-0.1,1.6-0.2c1-0.1,2-0.2,3-0.3
				c0.6,0,1.2-0.1,1.8-0.1c0.4,0,0.8-0.1,1.3-0.1c1.3-0.1,2.6-0.1,4-0.2c0.3,0,0.7,0,1,0c0.7,0,1.3,0,2,0s1.4,0,2,0
				c1.4,0,2.7,0.1,4.1,0.1c0.7,0,1.3,0.1,2,0.1c1,0.1,1.9,0.1,2.9,0.2c0.9,0.1,1.9,0.2,2.8,0.3c1.9,0.2,3.7,0.5,5.6,0.7
				c0.6,0.1,1.1,0.2,1.7,0.3c1,0.2,2.1,0.4,3.1,0.5h0.1c29.2,5.6,54.8,21.2,73.3,43c2,2.4,3.9,4.8,5.8,7.4c0.3,0.4,0.6,0.8,0.9,1.3
				c0.4,0.6,0.9,1.3,1.3,1.9s0.9,1.3,1.3,1.9l0,0c0.6,0.9,1.1,1.7,1.6,2.6l0,0c0.8,1.2,1.5,2.4,2.2,3.7c0.1,0.1,0.1,0.2,0.2,0.3
				c0.3,0.5,0.6,1.1,0.9,1.6c1.1,2,2.2,4.1,3.2,6.2c0.3,0.5,0.5,1.1,0.8,1.6c2.1,4.4,3.9,8.9,5.4,13.6c0.1,0.4,0.3,0.8,0.4,1.2
				c0.8,2.5,1.5,5,2.2,7.6c0.1,0.4,0.2,0.8,0.3,1.3c0.4,1.7,0.8,3.4,1.1,5.1c0.1,0.4,0.2,0.8,0.2,1.2c0.3,1.3,0.5,2.7,0.7,4
				c0.1,0.7,0.2,1.4,0.3,2.1c0.1,0.7,0.2,1.3,0.3,2c0,0.1,0,0.2,0,0.3c0.1,0.7,0.2,1.3,0.2,2c0.1,1,0.2,2.1,0.3,3.1
				c0.1,0.6,0.1,1.1,0.1,1.7c0.1,0.8,0.1,1.5,0.1,2.3s0.1,1.6,0.1,2.5c0,0.6,0,1.2,0,1.9c0,0.9,0,1.8,0,2.6c0,1.1,0,2.2,0,3.3
				C383.9,196.4,383.9,197.4,383.8,198.5z"/>
		</g>
	</g>
	<ellipse class="st2" cx="256.1" cy="192" rx="127.9" ry="128"/>
</g>
<g id="Layer_2">
	<g transform="translate(0.000000,512.000000) scale(0.100000,-0.100000)">
		<path d="M2397.1,4159.3l-9.2-8.6v-81.4v-81h-173.9c-169.1,0-174.2-0.4-181.2-7.2s-7.3-11.9-7.3-129.6c0-67.3-1.1-122.4-2.6-122.4
			c-1.8,0-12.8-7.2-24.9-16.2l-22-16.2l-1.8,49.7c-1.8,47.9-2.2,50.8-12.8,67.3c-14.3,22.7-43.6,42.1-81.6,54.4l-30,9.7v34.9
			c0,43.2-2.9,46.8-35.1,46.8c-49.1,0-95.9-20.5-135.1-59.4c-47.2-46.4-56.7-76.3-56.7-180.7c0-68.4,0.4-73.4,7.3-80.3
			c4.4-4.3,12.1-7.2,20.1-7.2c8.1,0,15.7,2.9,20.1,7.2c7,6.8,7.3,11.9,7.3,76.7c0,52.9,1.5,74.2,5.9,89.3
			c13.9,46.4,51.6,83.5,97.7,96.1l13.5,3.6v-517.3v-517.7l-20.9-4.7c-27.1-5.8-63.3-22-82-36l-14.3-11.5v353.1
			c0,348.5,0,353.1-7.3,360.3c-9.9,9.7-30.4,9.7-40.3,0c-7.3-7.2-7.3-10.1-6.6-447.5l1.1-439.9l12.1-24.1
			c27.1-54.4,84.9-85.7,160.3-86.4c39.9,0,67,5.4,98.1,20.2l23.4,11.2l1.5-63c1.1-58.7,1.8-64.4,11-83.2
			c48-102.6,221.5-125.6,303.1-40.7c36.6,37.8,34.4,23.8,36.6,262.4l1.8,208.8l389.1,1.1c261.7,0.4,388.4-0.4,386.9-2.9
			c-1.1-2.2-123.7-105.1-272-229.3c-148.3-124.2-276.7-232.2-285.2-240.1c-19.4-17.3-21.6-33.1-6.2-45c9.9-7.6,10.3-7.6,431.2-7.6
			c416.6,0,422.1,0,429.8,7.2c11,10.1,12.4,23,11,96.8c-1.1,64.1-1.5,65.9-9.9,72.7c-10.3,8.3-25.3,8.6-36.2,1.1
			c-7.7-5.4-8.1-7.6-8.1-64.8v-59H2940c-305.3,0-362.4,0.7-358,5c2.9,2.5,122.6,102.6,265.4,221.7
			c143.1,119.5,303.1,253.4,355.8,297.7c52.7,44.3,96.6,80.3,97.7,80.3c1.1,0,2.2-81.7,2.2-181.8c0-177.1,0.4-182.1,7.3-189
			c9.2-9,26-9.4,37-0.4l8.8,6.8l1.1,115.6l1.1,115.6h61.9h61.9l7.3,9.4l7.7,9.7v549.7v549.7l-7.7,9.7l-7.3,9.4h-433.4h-433.4
			l-1.1,83.2c-1.1,82.4-1.1,83.2-9.9,90c-7.7,6.5-15.4,6.8-103.6,6.8h-94.8L2397.1,4159.3z M2560,3768.7v-345.6h-58.6h-58.6v33.8
			v33.5l16.8,2.2c20.5,2.2,28.6,9.4,28.6,25.6c0,18-9.9,27.4-29.7,27.4h-15.7v36v36h27.1c33.7,0,43.9,6.5,43.9,27
			c0,20.5-10.3,27-43.9,27h-27.1v36v36h16.1c13.2,0,17.6,1.8,23.8,9.4c8.8,11.2,9.5,15.5,3.7,28.1c-4.4,9.4-19.8,16.6-34.8,16.6
			c-8.8,0-8.8,0.7-8.8,34.2v34.2h27.1c33.3,0,43.9,6.5,43.9,26.3c0,22-8.8,27.7-42.5,27.7h-28.6v36v36h15.7c19.8,0,29.7,9,29.7,27.7
			c0,16.6-11.7,26.3-31.1,26.3h-14.3v34.2v34.2h58.6h58.6V3768.7z M2387.9,3660.7v-273.9l9.2-8.6l8.8-9h94.8
			c88.2,0,95.9,0.4,103.6,6.8l8.8,6.8l1.1,275.7l0.7,275.7h64.1h64.1v-514.8v-514.8h-236.1h-236.1v339.5c0,320.7-0.4,339.8-7,353.5
			c-13.2,28.4-53.1,56.2-96.3,67l-17.6,4v28.8c0,49.7-9.2,59.8-49.8,55.8l-19.8-2.2v91.8v91.4h153.7h153.7V3660.7z M3442.2,3606.7
			v-327.6l-321,0.7l-321.4,1.1l-1.1,326.9l-0.7,326.5h322.1h322.1V3606.7z M1878,3811.6c9.5-4,23.1-12.2,29.7-18.7l11.7-11.2v-514.1
			v-514.1l-13.9,6.8c-17.6,8.6-50.5,17.3-80.2,20.5l-23.1,2.5v15.1c0,16.2,4.4,19.8,24.9,19.8c4.4,0,11.3,3.2,15.4,7.2
			c7.3,7.2,7.3,11.9,7.3,500.4c0,423,0.7,493.2,5.1,493.2C1857.9,3819.1,1868.1,3815.9,1878,3811.6z M2095.1,3180.2v-516.6l-9.9-2.2
			c-43.6-9.4-75-22.3-95.5-38.9c-5.9-5.4-12.1-9.4-13.2-9.4c-1.5,0-1.8,219.9-1.5,488.9l1.1,488.5l8.8,21.6
			c16.1,39.2,70.7,83.5,104,84.2C2094.7,3696.7,2095.1,3669.7,2095.1,3180.2z M2187.3,3599.2c4.8-2.2,12.8-8.3,18.7-13.3l9.9-9.4
			v-514.1v-513.7l-17.2,7.2c-22.3,9.4-60,17.6-82.4,17.6h-17.6v18v18h12.8c17.9,0,30,6.5,34.8,19.1c2.6,7.2,3.7,167,3.7,497.9v487.1
			l14.3-5C2172.3,3606,2182.6,3601.7,2187.3,3599.2z M3442.2,3065v-160.2h-41.7h-42.1l-1.1,76c-1.1,74.9-1.1,76-9.9,82.8
			c-12.1,9.7-27.1,8.6-41.4-2.9c-6.6-5.8-51.2-42.8-99.2-82.8l-87.1-73.1H2959h-161.1V3065v160.2h322.1h322.1V3065z M1747.3,2769.8
			c0-38.2,2.2-39.6,55.3-42.5c51.6-2.5,81.6-11.9,102.9-31.7c14.3-13.3,14.6-14.4,13.2-33.1c-1.8-23.4-12.1-38.9-35.5-53.6
			c-23.4-14.4-52-22-84.9-22c-103.2,0-150.1,77.4-100.3,165.6c10.3,18.7,37,44.3,46.1,44.3
			C1745.9,2796.8,1747.3,2784.6,1747.3,2769.8z M2054.5,2526.4c7-5.8,14.6-6.8,43.9-6.8c56.7,0,93-11.9,109.5-36.4
			c7-10.1,8.4-15.8,7.3-31c-2.2-24.1-13.9-39.6-42.1-54c-49.8-26.3-114.6-24.8-157.4,3.6c-33.3,22-44.7,49-38.1,91.8
			c6.2,41,25.6,74.2,53.4,91.1l11,6.8l1.8-29.2C2045.3,2537.2,2046.8,2532.6,2054.5,2526.4z"/>
		<path d="M3050.5,3820.2c-2.9-1.1-37.3-32.8-75.8-70.9l-70.7-68.8v-134.3V3412l9.2-8.6l8.8-9h136.5h136.2l71.4,70.2l71.7,70.2
			l-0.7,135.7c-0.7,131.8-1.1,135.7-8.4,142.9c-7.3,7.2-11.3,7.6-140.2,8.3C3115.7,3822,3053.5,3821.3,3050.5,3820.2z
			 M3240.9,3766.2c0-1.4-15.4-17.6-33.7-36l-34-33.5h-87.9h-87.9l36.6,36l36.6,36h84.9C3202.5,3768.7,3240.9,3767.7,3240.9,3766.2z
			 M3284.8,3642v-83.2l-36.6-36.4l-36.6-36.4v86.4v86.4l33.7,33.1c18.7,18.4,35.1,33.5,36.6,33.5
			C3283.7,3725.5,3284.8,3688.1,3284.8,3642z M3156.7,3545.5v-97.2h-98.8H2959v97.2v97.2h98.8h98.8V3545.5z"/>
		<path d="M2953.9,3138.4c-12.1-9.4-13.2-28.4-2.2-39.2c7-6.8,12.1-7.2,135.1-7.2h128.1l7.3,9.4c10.3,12.6,9.5,24.8-1.5,35.6l-8.8,9
			h-124.1C2967.8,3146,2963.4,3145.6,2953.9,3138.4z"/>
		<path d="M2952.4,3030.8c-10.6-9.7-10.6-29.9-0.7-39.6c6.6-6.5,12.1-7.2,63.3-7.2c54.2,0,56.4,0.4,64.1,8.3
			c10.6,11.2,10.2,25.9-1.1,36.7c-8.4,8.6-10.2,9-63.3,9C2965.2,3038,2959.7,3037.3,2952.4,3030.8z"/>
		<path d="M3010.6,2641.6c-170.2-142.6-172.4-144.7-172.4-158c0-9,2.6-15.5,7.7-20.2c7.3-6.5,16.5-6.8,176.8-7.9
			c92.6-0.4,172.4,0,177.2,1.1c4.4,1.1,11.3,5,15.4,9c7,6.8,7.3,12.6,7.3,155.9v149l-8.4,7.6
			C3194.8,2796.1,3197,2797.5,3010.6,2641.6z M3166.6,2509.9c-0.7-0.7-52.3-0.7-114.2-0.4l-113.1,1.1l113.1,94.7l113.5,95l1.1-94.7
			C3167.3,2553.8,3167.3,2510.6,3166.6,2509.9z"/>
	</g>
</g>
</svg>
