<?xml version="1.0" encoding="utf-8"?>
<!-- Generator: Adobe Illustrator 24.1.2, SVG Export Plug-In . SVG Version: 6.00 Build 0)  -->
<svg version="1.1" xmlns="http://www.w3.org/2000/svg" xmlns:xlink="http://www.w3.org/1999/xlink" x="0px" y="0px"
	 viewBox="0 0 512 512" style="enable-background:new 0 0 512 512;" xml:space="preserve">
<style type="text/css">
	.st0{fill:#00000D;}
	.st1{fill:#0A1A33;}
	.st2{fill:#FFFFFF;}
</style>
<g id="Layer_1">
	<g id="Layer_1_1_">
		<g id="Outline">
			<path class="st0" d="M256,16C158.3,16.7,79.5,96.4,80,194.1c0,62.7,28.8,132.3,85.6,206.9c25.5,33.5,54,64.7,85.1,93
				c3,2.6,7.5,2.6,10.5,0c31.2-28.3,59.6-59.5,85.1-93c56.8-74.5,85.6-144.2,85.6-206.9C432.5,96.4,353.7,16.7,256,16z M256,477.2
				c-28.2-26.3-160-156-160-283c0-24.2,5.4-47.2,15-67.8c13.4-28.7,35.2-52.8,62.1-69.1c24.2-14.7,52.6-23.1,82.9-23.1
				c88.4,0,160,71.6,160,160C416,321.2,284.2,450.9,256,477.2z"/>
			<path class="st1" d="M256,34.2c-30.3,0-58.7,8.4-82.9,23.1c-26.9,16.3-48.7,40.4-62.1,69.1c-9.6,20.6-15,43.6-15,67.8
				c0,127,131.8,256.7,160,283c28.2-26.3,160-156,160-283C416,105.8,344.4,34.2,256,34.2z M256,336c-79.5,0-144-64.5-144-144
				S176.5,48,256,48c79.5,0.1,143.9,64.5,144,144C400,271.5,335.5,336,256,336z"/>
			<path class="st0" d="M256,48c-79.5,0-144,64.5-144,144s64.5,144,144,144s144-64.5,144-144C399.9,112.5,335.5,48.1,256,48z
				 M383.8,198.5C383.8,198.5,383.8,198.6,383.8,198.5C380.4,264,328,316.4,262.6,319.8c0,0,0,0-0.1,0c-1.1,0.1-2.1,0.1-3.2,0.1
				s-2.2,0-3.3,0c-2.3,0-4.7-0.1-7-0.2c-0.4,0-0.8,0-1.3-0.1c-0.6,0-1.2-0.1-1.8-0.1c-1-0.1-2-0.2-3-0.3c-0.5,0-1.1-0.1-1.6-0.2
				s-1.1-0.1-1.6-0.2C176.8,311,128,257.2,128,192S176.8,73,239.8,65c0.5-0.1,1.1-0.1,1.6-0.2s1.1-0.1,1.6-0.2c1-0.1,2-0.2,3-0.3
				c0.6,0,1.2-0.1,1.8-0.1c0.4,0,0.8-0.1,1.3-0.1c1.3-0.1,2.6-0.1,4-0.2c0.3,0,0.7,0,1,0c0.7,0,1.3,0,2,0s1.4,0,2,0
				c1.4,0,2.7,0.1,4.1,0.1c0.7,0,1.3,0.1,2,0.1c1,0.1,1.9,0.1,2.9,0.2c0.9,0.1,1.9,0.2,2.8,0.3c1.9,0.2,3.7,0.5,5.6,0.7
				c0.6,0.1,1.1,0.2,1.7,0.3c1,0.2,2.1,0.4,3.1,0.5h0.1c29.2,5.6,54.8,21.2,73.3,43c2,2.4,3.9,4.8,5.8,7.4c0.3,0.4,0.6,0.8,0.9,1.3
				c0.4,0.6,0.9,1.3,1.3,1.9s0.9,1.3,1.3,1.9l0,0c0.6,0.9,1.1,1.7,1.6,2.6l0,0c0.8,1.2,1.5,2.4,2.2,3.7c0.1,0.1,0.1,0.2,0.2,0.3
				c0.3,0.5,0.6,1.1,0.9,1.6c1.1,2,2.2,4.1,3.2,6.2c0.3,0.5,0.5,1.1,0.8,1.6c2.1,4.4,3.9,8.9,5.4,13.6c0.1,0.4,0.3,0.8,0.4,1.2
				c0.8,2.5,1.5,5,2.2,7.6c0.1,0.4,0.2,0.8,0.3,1.3c0.4,1.7,0.8,3.4,1.1,5.1c0.1,0.4,0.2,0.8,0.2,1.2c0.3,1.3,0.5,2.7,0.7,4
				c0.1,0.7,0.2,1.4,0.3,2.1c0.1,0.7,0.2,1.3,0.3,2c0,0.1,0,0.2,0,0.3c0.1,0.7,0.2,1.3,0.2,2c0.1,1,0.2,2.1,0.3,3.1
				c0.1,0.6,0.1,1.1,0.1,1.7c0.1,0.8,0.1,1.5,0.1,2.3s0.1,1.6,0.1,2.5c0,0.6,0,1.2,0,1.9c0,0.9,0,1.8,0,2.6c0,1.1,0,2.2,0,3.3
				C383.9,196.4,383.9,197.4,383.8,198.5z"/>
		</g>
	</g>
	<ellipse class="st2" cx="256.1" cy="192" rx="127.9" ry="128"/>
</g>
<g id="Layer_2">
	<g>
		<g>
			<g>
				<path d="M343.6,240.7v-26.6c0-3.8-2.5-7-6-8.2v-3.5c0-4.8-4.1-8.8-9.1-8.8h-33.7c-1.2-3.4-4.6-5.8-8.5-5.8v-36.6
					c0-7.3-4.1-14.1-10.7-17.8l-57.8-31.9c-2.6-4.3-7.4-7.3-13-7.3c-8.3,0-15,6.5-15.1,14.5h0l-2.9,85.2
					c-6.9,1.3-12.2,7.2-12.2,14.3c0,3.1,1.1,6,2.8,8.4l-8.6,9.7c-4.1,4.6-6.3,10.4-6.3,16.5c0,6.8,2.7,13.1,7.6,17.9l9.1,8.8
					c4,3.9,9.3,6,14.9,6h22.7h3h6v-5.8h-6v-16l-10.4-8c-3.1-2.4-5.1-5.9-5.6-9.8l-2.2-18.9c1.9-2.4,3-5.4,3-8.7
					c0-4.5-2.2-8.5-5.5-11.2l14-76.1c0.5-0.4,1-0.8,1.5-1.2l31,30c-1.1,1.7-1.7,3.7-1.7,5.9c0,5.4,3.9,10,9.1,11.3v20.9H252
					c-4.3,0-8,3-8.9,7L235,234l0,6.7c-3.7,3.7-6.1,8.7-6.1,14.3c0,11.3,9.5,20.5,21.1,20.5h78.5c11.6,0,21.1-9.2,21.1-20.5
					C349.6,249.5,347.3,244.4,343.6,240.7z M189.7,199.5c5,0,9.1,3.9,9.1,8.8c0,4.8-4.1,8.8-9.1,8.8s-9.1-3.9-9.1-8.8
					C180.7,203.4,184.7,199.5,189.7,199.5z M205.8,250.2l8.1,6.3v1.5h-6v5.8h6v5.8h-19.7c-4,0-7.8-1.5-10.7-4.3l-9.1-8.8
					c-3.8-3.7-5.9-8.6-5.9-13.8c0-4.6,1.7-9.1,4.8-12.7l8.4-9.5c2.3,1.4,5,2.2,7.9,2.2c2.3,0,4.5-0.6,6.5-1.5l1.7,15.1
					C198.6,241.9,201.3,246.7,205.8,250.2z M193.7,194.2c-0.3-0.1-0.5-0.2-0.8-0.3l2.5-73.8c2.6,2,5.8,3.3,9.4,3.3
					c0.7,0,1.3-0.1,1.9-0.2L193.7,194.2z M204.8,117.6c-5,0-9.1-3.9-9.1-8.8c0-4.8,4.1-8.8,9.1-8.8c5,0,9.1,3.9,9.1,8.8
					C213.9,113.7,209.8,117.6,204.8,117.6z M295.3,211.2h6v-5.8h-6v-5.8h33.2c1.7,0,3,1.3,3,2.9v2.9h-24.1v5.8h27.2
					c1.7,0,3,1.3,3,2.9v22.5c-2.7-1.3-5.8-2-9.1-2h-33.2V211.2z M218.4,115c0.8-1.7,1.3-3.6,1.4-5.6l52.8,29.1
					c4.7,2.6,7.6,7.5,7.6,12.7v36.6h-21.1v-20.9c5.2-1.3,9.1-5.8,9.1-11.3c0-6.4-5.4-11.7-12.1-11.7c-2.2,0-4.3,0.6-6.1,1.7
					L218.4,115z M250.1,155.6c0-3.2,2.7-5.8,6-5.8c3.3,0,6,2.6,6,5.8s-2.7,5.8-6,5.8C252.8,161.5,250.1,158.9,250.1,155.6z
					 M241,234.9l8-38.9c0.3-1.4,1.5-2.4,3-2.4h34.3c1.7,0,3,1.3,3,2.9v38h-39.2c-3.2,0-6.3,0.7-9.1,2V234.9z M328.5,269.6h-78.5
					c-8.3,0-15.1-6.6-15.1-14.6c0-8.1,6.8-14.6,15.1-14.6h78.5c8.3,0,15.1,6.6,15.1,14.6C343.6,263.1,336.8,269.6,328.5,269.6z"/>
				<path d="M325.5,243.3c-3.6,0-6.8,1.6-9.1,4c-2.2-2.5-5.4-4-9.1-4c-3.6,0-6.8,1.6-9.1,4c-2.2-2.5-5.4-4-9.1-4
					c-3.6,0-6.8,1.6-9.1,4c-2.2-2.5-5.4-4-9.1-4c-3.6,0-6.8,1.6-9.1,4c-2.2-2.5-5.4-4-9.1-4c-6.7,0-12.1,5.2-12.1,11.7
					s5.4,11.7,12.1,11.7c3.6,0,6.8-1.6,9.1-4c2.2,2.5,5.4,4,9.1,4c3.6,0,6.8-1.6,9.1-4c2.2,2.5,5.4,4,9.1,4c3.6,0,6.8-1.6,9.1-4
					c2.2,2.5,5.4,4,9.1,4c3.6,0,6.8-1.6,9.1-4c2.2,2.5,5.4,4,9.1,4c6.7,0,12.1-5.2,12.1-11.7S332.2,243.3,325.5,243.3z M253.1,260.9
					c-3.3,0-6-2.6-6-5.8s2.7-5.8,6-5.8c3.3,0,6,2.6,6,5.8S256.4,260.9,253.1,260.9z M271.2,260.9c-3.3,0-6-2.6-6-5.8s2.7-5.8,6-5.8
					c3.3,0,6,2.6,6,5.8S274.5,260.9,271.2,260.9z M289.3,260.9c-3.3,0-6-2.6-6-5.8s2.7-5.8,6-5.8c3.3,0,6,2.6,6,5.8
					S292.6,260.9,289.3,260.9z M307.4,260.9c-3.3,0-6-2.6-6-5.8s2.7-5.8,6-5.8c3.3,0,6,2.6,6,5.8S310.7,260.9,307.4,260.9z
					 M325.5,260.9c-3.3,0-6-2.6-6-5.8s2.7-5.8,6-5.8c3.3,0,6,2.6,6,5.8S328.8,260.9,325.5,260.9z"/>
				<path d="M286.3,199.5h-32.7l-3.5,17l-0.1,6.4h36.2V199.5z M280.2,217h-24.1l2.4-11.7h21.7V217z"/>
				<rect x="319.5" y="217" width="12.1" height="5.8"/>
				<rect x="301.4" y="217" width="12.1" height="5.8"/>
			</g>
		</g>
	</g>
</g>
</svg>
