<?xml version="1.0" encoding="utf-8"?>
<!-- Generator: Adobe Illustrator 24.1.2, SVG Export Plug-In . SVG Version: 6.00 Build 0)  -->
<svg version="1.1" xmlns="http://www.w3.org/2000/svg" xmlns:xlink="http://www.w3.org/1999/xlink" x="0px" y="0px"
	 viewBox="0 0 512 512" style="enable-background:new 0 0 512 512;" xml:space="preserve">
<style type="text/css">
	.st0{fill:#00000D;}
	.st1{fill:#0A1A33;}
	.st2{fill:#FFFFFF;}
</style>
<g id="Layer_1">
	<g id="Layer_1_2_">
		<g id="Layer_1_1_">
			<g id="Outline">
				<path class="st0" d="M256,16C158.3,16.7,79.5,96.4,80,194.1c0,62.7,28.8,132.3,85.6,206.9c25.5,33.5,54,64.7,85.1,93
					c3,2.6,7.5,2.6,10.5,0c31.2-28.3,59.6-59.5,85.1-93c56.8-74.5,85.6-144.2,85.6-206.9C432.5,96.4,353.7,16.7,256,16z M256,477.2
					c-28.2-26.3-160-156-160-283c0-24.2,5.4-47.2,15-67.8c13.4-28.7,35.2-52.8,62.1-69.1c24.2-14.7,52.6-23.1,82.9-23.1
					c88.4,0,160,71.6,160,160C416,321.2,284.2,450.9,256,477.2z"/>
				<path class="st1" d="M256,34.2c-30.3,0-58.7,8.4-82.9,23.1c-26.9,16.3-48.7,40.4-62.1,69.1c-9.6,20.6-15,43.6-15,67.8
					c0,127,131.8,256.7,160,283c28.2-26.3,160-156,160-283C416,105.8,344.4,34.2,256,34.2z M256,336c-79.5,0-144-64.5-144-144
					S176.5,48,256,48c79.5,0.1,143.9,64.5,144,144C400,271.5,335.5,336,256,336z"/>
				<path class="st0" d="M256,48c-79.5,0-144,64.5-144,144s64.5,144,144,144s144-64.5,144-144C399.9,112.5,335.5,48.1,256,48z
					 M383.8,198.5C383.8,198.5,383.8,198.6,383.8,198.5C380.4,264,328,316.4,262.6,319.8c0,0,0,0-0.1,0c-1.1,0.1-2.1,0.1-3.2,0.1
					s-2.2,0-3.3,0c-2.3,0-4.7-0.1-7-0.2c-0.4,0-0.8,0-1.3-0.1c-0.6,0-1.2-0.1-1.8-0.1c-1-0.1-2-0.2-3-0.3c-0.5,0-1.1-0.1-1.6-0.2
					s-1.1-0.1-1.6-0.2C176.8,311,128,257.2,128,192S176.8,73,239.8,65c0.5-0.1,1.1-0.1,1.6-0.2s1.1-0.1,1.6-0.2c1-0.1,2-0.2,3-0.3
					c0.6,0,1.2-0.1,1.8-0.1c0.4,0,0.8-0.1,1.3-0.1c1.3-0.1,2.6-0.1,4-0.2c0.3,0,0.7,0,1,0c0.7,0,1.3,0,2,0s1.4,0,2,0
					c1.4,0,2.7,0.1,4.1,0.1c0.7,0,1.3,0.1,2,0.1c1,0.1,1.9,0.1,2.9,0.2c0.9,0.1,1.9,0.2,2.8,0.3c1.9,0.2,3.7,0.5,5.6,0.7
					c0.6,0.1,1.1,0.2,1.7,0.3c1,0.2,2.1,0.4,3.1,0.5h0.1c29.2,5.6,54.8,21.2,73.3,43c2,2.4,3.9,4.8,5.8,7.4c0.3,0.4,0.6,0.8,0.9,1.3
					c0.4,0.6,0.9,1.3,1.3,1.9s0.9,1.3,1.3,1.9l0,0c0.6,0.9,1.1,1.7,1.6,2.6l0,0c0.8,1.2,1.5,2.4,2.2,3.7c0.1,0.1,0.1,0.2,0.2,0.3
					c0.3,0.5,0.6,1.1,0.9,1.6c1.1,2,2.2,4.1,3.2,6.2c0.3,0.5,0.5,1.1,0.8,1.6c2.1,4.4,3.9,8.9,5.4,13.6c0.1,0.4,0.3,0.8,0.4,1.2
					c0.8,2.5,1.5,5,2.2,7.6c0.1,0.4,0.2,0.8,0.3,1.3c0.4,1.7,0.8,3.4,1.1,5.1c0.1,0.4,0.2,0.8,0.2,1.2c0.3,1.3,0.5,2.7,0.7,4
					c0.1,0.7,0.2,1.4,0.3,2.1c0.1,0.7,0.2,1.3,0.3,2c0,0.1,0,0.2,0,0.3c0.1,0.7,0.2,1.3,0.2,2c0.1,1,0.2,2.1,0.3,3.1
					c0.1,0.6,0.1,1.1,0.1,1.7c0.1,0.8,0.1,1.5,0.1,2.3s0.1,1.6,0.1,2.5c0,0.6,0,1.2,0,1.9c0,0.9,0,1.8,0,2.6c0,1.1,0,2.2,0,3.3
					C383.9,196.4,383.9,197.4,383.8,198.5z"/>
			</g>
		</g>
		<ellipse class="st2" cx="256.1" cy="192" rx="127.9" ry="128"/>
	</g>
	<g id="Layer_2_1_">
	</g>
</g>
<g id="Layer_2">
	<g transform="translate(0.000000,512.000000) scale(0.100000,-0.100000)">
		<path d="M2477.6,4175.8c-147.1-15.5-256.2-53.9-364.5-128.2c-147.6-100.9-242.4-245.8-273.2-416.5c-8-46.5-8-118.8,0.4-144.5
			c40.2-121.3,209.3-160.5,306.8-71c37.6,34.3,51,64.9,57.7,133.9c2.2,25.7,8,58,12.5,71.5c28.2,82.5,90.3,149.4,173.1,185.8
			c52.8,23.3,85,29.8,145.3,29.8s92.6-6.5,145.3-29.8c83.6-36.7,145.8-104.5,174.9-189.9c6.3-18.8,8.5-37.6,8.5-81.7
			c0-49-1.3-61.2-10.3-85.7c-31.3-85.7-89.4-148.2-172.6-185.8c-42.5-18.8-76.5-26.5-141.3-31.8c-26.8-2.4-57.7-7.8-72.4-13.1
			c-48.3-16.3-85.4-51.4-107.3-101.7c-9.8-22.5-10.3-26.5-11.6-228.2c-0.9-115.5,0.4-219.7,2.7-237.6
			c10.7-79.6,69.3-137.2,153.8-151.5c101.5-17.1,200.3,50.6,214.2,146.6c1.8,15.1,3.6,81.7,4,148.2v120.9l36.7,11
			c50.1,15.1,118.5,45.7,164.6,73.9c152.9,93.9,257.1,234,300.1,404.2c11.6,47.8,16.5,163.3,8.5,213.9
			c-43.8,281.3-273.7,500.6-576.9,549.6C2618.9,4174.2,2507.5,4179.1,2477.6,4175.8z M2638.6,4086
			c116.7-16.7,237.9-73.5,326.4-153.1c215.5-193.5,243.7-497.3,67.1-723.5c-35.3-44.5-107.3-108.6-157.4-138.8
			c-49.6-30.2-110.9-56.3-167.7-71.9c-25.5-6.9-50.1-14.3-55-16.7c-19.2-9.4-20.1-15.1-22.4-184.6l-2.2-161.7l-13.4-17.6
			c-38-49.4-118.5-49.4-156.5,0l-13.4,17.6l-1.3,220.9c-1.3,247-1.8,243.8,29.1,268.3c21.9,17.6,32.6,20.8,86.3,24.9
			c65.7,4.9,110.9,16.3,167.7,42.5c240.1,109.8,307.2,392.4,139.1,584.3c-57.2,65.3-129.7,108.2-224,133.1
			c-30.4,7.8-46.1,9.4-105.1,9.4s-74.7-1.6-105.1-9.4c-94.4-24.9-166.8-67.8-224-133.1c-54.6-62.1-83.2-128.2-91.7-210.7
			c-2.7-25.7-6.7-53.1-9.4-60.4c-16.5-48.6-87.2-71-136.4-43.3c-15.2,8.6-24.6,18-33.5,33.9c-14.8,25.7-16.1,51.9-5.8,116.8
			c28.2,180.5,147.1,333.2,324.7,418.1C2373.8,4088.1,2499.9,4106,2638.6,4086z"/>
		<path d="M2492.3,2420.5c-35.8-9-58.6-21.2-85-45.3c-71.6-65.3-71.6-171.1,0.4-236.8c72.9-66.1,187.4-66.1,260.3,0
			c42.5,39.2,62.2,94.7,51.9,146.2C2699.8,2383.8,2595.6,2445.9,2492.3,2420.5z M2578.6,2334c54.1-22.5,69.8-89.4,30.9-131.1
			c-19.7-20.8-42.5-30.6-72-30.2c-52.3,0.4-91.7,36.7-91.7,84.5C2445.8,2320.5,2515.1,2360.5,2578.6,2334z"/>
	</g>
</g>
</svg>
