<?xml version="1.0" encoding="utf-8"?>
<!-- Generator: Adobe Illustrator 24.1.2, SVG Export Plug-In . SVG Version: 6.00 Build 0)  -->
<svg version="1.1" xmlns="http://www.w3.org/2000/svg" xmlns:xlink="http://www.w3.org/1999/xlink" x="0px" y="0px"
	 viewBox="0 0 512 512" style="enable-background:new 0 0 512 512;" xml:space="preserve">
<style type="text/css">
	.st0{fill:#00000D;}
	.st1{fill:#0A1A33;}
	.st2{fill:#FFFFFF;}
</style>
<g id="Layer_1">
	<g id="Layer_1_3_">
		<g id="Layer_1_2_">
			<g id="Layer_1_1_">
				<g id="Outline">
					<path class="st0" d="M256,16C158.3,16.7,79.5,96.4,80,194.1c0,62.7,28.8,132.3,85.6,206.9c25.5,33.5,54,64.7,85.1,93
						c3,2.6,7.5,2.6,10.5,0c31.2-28.3,59.6-59.5,85.1-93c56.8-74.5,85.6-144.2,85.6-206.9C432.5,96.4,353.7,16.7,256,16z M256,477.2
						c-28.2-26.3-160-156-160-283c0-24.2,5.4-47.2,15-67.8c13.4-28.7,35.2-52.8,62.1-69.1c24.2-14.7,52.6-23.1,82.9-23.1
						c88.4,0,160,71.6,160,160C416,321.2,284.2,450.9,256,477.2z"/>
					<path class="st1" d="M256,34.2c-30.3,0-58.7,8.4-82.9,23.1c-26.9,16.3-48.7,40.4-62.1,69.1c-9.6,20.6-15,43.6-15,67.8
						c0,127,131.8,256.7,160,283c28.2-26.3,160-156,160-283C416,105.8,344.4,34.2,256,34.2z M256,336c-79.5,0-144-64.5-144-144
						S176.5,48,256,48c79.5,0.1,143.9,64.5,144,144C400,271.5,335.5,336,256,336z"/>
					<path class="st0" d="M256,48c-79.5,0-144,64.5-144,144s64.5,144,144,144s144-64.5,144-144C399.9,112.5,335.5,48.1,256,48z
						 M383.8,198.5C383.8,198.5,383.8,198.6,383.8,198.5C380.4,264,328,316.4,262.6,319.8c0,0,0,0-0.1,0c-1.1,0.1-2.1,0.1-3.2,0.1
						s-2.2,0-3.3,0c-2.3,0-4.7-0.1-7-0.2c-0.4,0-0.8,0-1.3-0.1c-0.6,0-1.2-0.1-1.8-0.1c-1-0.1-2-0.2-3-0.3c-0.5,0-1.1-0.1-1.6-0.2
						s-1.1-0.1-1.6-0.2C176.8,311,128,257.2,128,192S176.8,73,239.8,65c0.5-0.1,1.1-0.1,1.6-0.2s1.1-0.1,1.6-0.2c1-0.1,2-0.2,3-0.3
						c0.6,0,1.2-0.1,1.8-0.1c0.4,0,0.8-0.1,1.3-0.1c1.3-0.1,2.6-0.1,4-0.2c0.3,0,0.7,0,1,0c0.7,0,1.3,0,2,0s1.4,0,2,0
						c1.4,0,2.7,0.1,4.1,0.1c0.7,0,1.3,0.1,2,0.1c1,0.1,1.9,0.1,2.9,0.2c0.9,0.1,1.9,0.2,2.8,0.3c1.9,0.2,3.7,0.5,5.6,0.7
						c0.6,0.1,1.1,0.2,1.7,0.3c1,0.2,2.1,0.4,3.1,0.5h0.1c29.2,5.6,54.8,21.2,73.3,43c2,2.4,3.9,4.8,5.8,7.4
						c0.3,0.4,0.6,0.8,0.9,1.3c0.4,0.6,0.9,1.3,1.3,1.9s0.9,1.3,1.3,1.9l0,0c0.6,0.9,1.1,1.7,1.6,2.6l0,0c0.8,1.2,1.5,2.4,2.2,3.7
						c0.1,0.1,0.1,0.2,0.2,0.3c0.3,0.5,0.6,1.1,0.9,1.6c1.1,2,2.2,4.1,3.2,6.2c0.3,0.5,0.5,1.1,0.8,1.6c2.1,4.4,3.9,8.9,5.4,13.6
						c0.1,0.4,0.3,0.8,0.4,1.2c0.8,2.5,1.5,5,2.2,7.6c0.1,0.4,0.2,0.8,0.3,1.3c0.4,1.7,0.8,3.4,1.1,5.1c0.1,0.4,0.2,0.8,0.2,1.2
						c0.3,1.3,0.5,2.7,0.7,4c0.1,0.7,0.2,1.4,0.3,2.1c0.1,0.7,0.2,1.3,0.3,2c0,0.1,0,0.2,0,0.3c0.1,0.7,0.2,1.3,0.2,2
						c0.1,1,0.2,2.1,0.3,3.1c0.1,0.6,0.1,1.1,0.1,1.7c0.1,0.8,0.1,1.5,0.1,2.3s0.1,1.6,0.1,2.5c0,0.6,0,1.2,0,1.9c0,0.9,0,1.8,0,2.6
						c0,1.1,0,2.2,0,3.3C383.9,196.4,383.9,197.4,383.8,198.5z"/>
				</g>
			</g>
			<ellipse class="st2" cx="256.1" cy="192" rx="127.9" ry="128"/>
		</g>
		<g id="Layer_2_1_">
		</g>
	</g>
	<g id="Layer_2_2_">
	</g>
</g>
<g id="Layer_2">
	<g transform="translate(0.000000,500.000000) scale(0.100000,-0.100000)">
		<path d="M1799.5,4032.2c-33.8-8.8-60.8-24.4-89.8-51c-44.9-41.5-62.4-82.2-62.4-147.2c0-33.5,1.2-39.9,9.1-51.4
			c4.8-7.2,16.7-16.7,26.6-21.3c17.1-8.8,20.3-8.8,155.7-8.8h138.2V3030c0-475.2,1.2-729.4,4-742.7c6.8-33.9,25-66.2,52.8-92.5
			c28.6-27.8,54.4-41.5,97.3-52.1c29-6.8,49.2-7.2,591-7.2c391.6,0,567.5,1.1,582.2,4.2c36.1,7.2,76.3,28.2,103.7,54
			c45.3,42.2,58.4,74.6,58.4,141.5c0,38-0.8,44.1-9.1,55.5c-4.8,6.8-15.9,16.7-24.6,21.3c-14.3,8-21,8.8-72.3,8.8h-56.8V2578
			c0,86-0.4,416.2-1.2,733.2l-0.8,576.4l-10.3,25.5c-23.4,57.8-77,103.1-141.4,119.1C3116.5,4040.5,1831.7,4040.1,1799.5,4032.2z
			 M1902,3960.6c27-11.4,47.7-30.4,62-57.1c8.3-15.6,10.7-26.6,12.3-52.9l1.6-33.5H1846h-131.9l1.6,29.7
			C1720.5,3941.2,1813.4,3998.3,1902,3960.6z M3145.9,3965.6c34.2-10.3,60.8-33.1,76.6-65.4l11.5-24l1.2-727.5l0.8-727.8h-436.5
			c-298.3,0-440.4-1.1-448-4.2c-16.7-5.7-36.5-25.9-40.9-41.5c-2-7.2-4-27.4-4-44.5c0-55.2-23-93.6-68.7-115.3
			c-69.1-32.3-147.3-7.6-180.3,56.7l-11.1,21.3l-2,795.2l-2,795.2l-9.1,24.7c-5.2,13.7-14.3,31.6-20.3,39.9
			c-6,8.4-11.9,17.5-13.9,20.2c-2.4,3.4,110.4,4.6,558.8,4.6C3109.7,3973.2,3120.4,3973.2,3145.9,3965.6z M3398.1,2323.1
			c-0.8-25.9-3.6-37.7-11.1-52.5c-13.5-26.6-38.1-48.7-65.9-59.4l-23.4-9.1l-485.3-1.1l-485.3-0.8l13.5,19
			c21.4,30.4,30.6,58.2,33,100.1l2,36.9h511.9h512.3L3398.1,2323.1z"/>
		<path d="M2613.3,3841.9c-13.5-5.7-36.9-24.4-109.2-87.5c-23.8-20.9-63.9-55.9-89.8-77.2c-108.4-92.5-160.8-140.4-165.6-151.8
			c-15.9-35.8,7.1-79.9,45.7-87.1l11.9-2.3l1.2-168.2c1.2-161.3,1.6-168.2,9.5-181.1c11.1-18.3,29.8-29.7,54.4-32.3
			c11.5-1.1,139.4-1.9,284.8-1.1c248.6,1.1,264.9,1.5,279.2,8.4c7.9,3.8,18.7,12.6,23.8,19c8.7,11.8,8.7,13.3,10.7,182.6l2,171.2
			l10.7,2.7c20.3,4.9,38.1,18.6,46.5,35.4c16.3,32,7.9,55.9-31.8,89.8l-27.4,23.6v93.6c0,105.8-0.8,109.2-30.2,126.3
			c-12.3,7.6-21.4,9.1-56.8,10.7c-64.3,2.7-91.3-8-105.2-41.5l-6.8-15.6l-26.6,22.1c-14.7,12.2-35.3,29.7-46.5,39.2
			C2666.1,3847.6,2641.5,3853.7,2613.3,3841.9z M2742.4,3695.4c54-47.2,126.7-110.3,161.6-140.8l63.1-55.2l-216-0.8
			c-118.7-0.8-266.1,0.4-327.2,1.9l-110.8,2.7l159.3,136.2c87.8,74.6,160.8,137.7,162,140c1.6,1.9,4.4,3.4,6,2.7
			C2642.3,3781.4,2688,3742.6,2742.4,3695.4z M2902.4,3698.9v-53.6l-12.7,10.3c-7.1,5.7-21.4,17.9-31.8,27.4l-19.1,16.7v26.3v26.6
			h31.8h31.8V3698.9z M2902.4,3278.8v-157.9h-81h-81l-1.6,60.1c-1.6,68.5-5.6,80.3-35.7,105c-40.5,33.5-95.7,30.8-133.8-6.1
			c-24.6-23.2-28.2-36.1-28.2-100.8v-58.2h-83.4h-83.4v157.9v157.9h264.1h264.1V3278.8z M2662.9,3234.3c6-6.5,7.5-16,8.3-60.5
			l1.6-52.9h-32.2h-32.2v52.5c0,49.8,0.4,53.3,9.1,60.5C2633.1,3247.6,2650.2,3247.6,2662.9,3234.3z"/>
		<path d="M2490.6,2956.6c-11.5-5.3-18.7-22.4-15.1-36.9c5.2-23.2,5.2-23.2,164.8-23.2c156.1,0.4,154.5,0,162.8,20.5
			c5.2,13.7,1.2,27.4-10.7,36.5c-9.9,7.2-16.3,7.6-151.7,7.2C2550.5,2960.7,2496.1,2959.2,2490.6,2956.6z"/>
		<path d="M2197.1,2831.8c-21.8-8.4-27.8-36.1-11.5-51.4l9.5-9.5h445.2c437.7,0,444.8,0,452.7,7.6c16.7,16,12.7,42.2-7.9,52.1
			c-7.9,3.8-101.7,4.9-444.8,4.6C2401.2,2835.2,2201.5,2833.7,2197.1,2831.8z"/>
		<path d="M2187.9,2696.3c-15.1-12.2-16.3-27.4-2.8-42.2l9.5-10.7l439.2-1.1c480.5-1.1,458.3-1.9,467,20.5c6,14.8,4.8,20.2-7.5,32.3
			l-11.5,11h-440.8h-440.8L2187.9,2696.3z"/>
		<path d="M2197.1,2576.8c-23.4-9.1-28.2-35.8-9.1-51l12.3-9.9h222c187.5,0,224,0.8,233.5,5.7c19.1,9.1,21.8,29.3,6.8,46.4
			l-9.5,10.7l-224,0.8C2306.3,2579.9,2201.5,2578.7,2197.1,2576.8z"/>
	</g>
</g>
</svg>
