<?xml version="1.0" encoding="utf-8"?>
<!-- Generator: Adobe Illustrator 24.1.2, SVG Export Plug-In . SVG Version: 6.00 Build 0)  -->
<svg version="1.1" xmlns="http://www.w3.org/2000/svg" xmlns:xlink="http://www.w3.org/1999/xlink" x="0px" y="0px"
	 viewBox="0 0 512 512" style="enable-background:new 0 0 512 512;" xml:space="preserve">
<style type="text/css">
	.st0{fill:#00000D;}
	.st1{fill:#0A1A33;}
	.st2{fill:#FFFFFF;}
</style>
<g id="Layer_1">
	<g id="Layer_1_2_">
		<g id="Layer_1_1_">
			<g id="Outline">
				<path class="st0" d="M256,16C158.3,16.7,79.5,96.4,80,194.1c0,62.7,28.8,132.3,85.6,206.9c25.5,33.5,54,64.7,85.1,93
					c3,2.6,7.5,2.6,10.5,0c31.2-28.3,59.6-59.5,85.1-93c56.8-74.5,85.6-144.2,85.6-206.9C432.5,96.4,353.7,16.7,256,16z M256,477.2
					c-28.2-26.3-160-156-160-283c0-24.2,5.4-47.2,15-67.8c13.4-28.7,35.2-52.8,62.1-69.1c24.2-14.7,52.6-23.1,82.9-23.1
					c88.4,0,160,71.6,160,160C416,321.2,284.2,450.9,256,477.2z"/>
				<path class="st1" d="M256,34.2c-30.3,0-58.7,8.4-82.9,23.1c-26.9,16.3-48.7,40.4-62.1,69.1c-9.6,20.6-15,43.6-15,67.8
					c0,127,131.8,256.7,160,283c28.2-26.3,160-156,160-283C416,105.8,344.4,34.2,256,34.2z M256,336c-79.5,0-144-64.5-144-144
					S176.5,48,256,48c79.5,0.1,143.9,64.5,144,144C400,271.5,335.5,336,256,336z"/>
				<path class="st0" d="M256,48c-79.5,0-144,64.5-144,144s64.5,144,144,144s144-64.5,144-144C399.9,112.5,335.5,48.1,256,48z
					 M383.8,198.5C383.8,198.5,383.8,198.6,383.8,198.5C380.4,264,328,316.4,262.6,319.8c0,0,0,0-0.1,0c-1.1,0.1-2.1,0.1-3.2,0.1
					s-2.2,0-3.3,0c-2.3,0-4.7-0.1-7-0.2c-0.4,0-0.8,0-1.3-0.1c-0.6,0-1.2-0.1-1.8-0.1c-1-0.1-2-0.2-3-0.3c-0.5,0-1.1-0.1-1.6-0.2
					s-1.1-0.1-1.6-0.2C176.8,311,128,257.2,128,192S176.8,73,239.8,65c0.5-0.1,1.1-0.1,1.6-0.2s1.1-0.1,1.6-0.2c1-0.1,2-0.2,3-0.3
					c0.6,0,1.2-0.1,1.8-0.1c0.4,0,0.8-0.1,1.3-0.1c1.3-0.1,2.6-0.1,4-0.2c0.3,0,0.7,0,1,0c0.7,0,1.3,0,2,0s1.4,0,2,0
					c1.4,0,2.7,0.1,4.1,0.1c0.7,0,1.3,0.1,2,0.1c1,0.1,1.9,0.1,2.9,0.2c0.9,0.1,1.9,0.2,2.8,0.3c1.9,0.2,3.7,0.5,5.6,0.7
					c0.6,0.1,1.1,0.2,1.7,0.3c1,0.2,2.1,0.4,3.1,0.5h0.1c29.2,5.6,54.8,21.2,73.3,43c2,2.4,3.9,4.8,5.8,7.4c0.3,0.4,0.6,0.8,0.9,1.3
					c0.4,0.6,0.9,1.3,1.3,1.9s0.9,1.3,1.3,1.9l0,0c0.6,0.9,1.1,1.7,1.6,2.6l0,0c0.8,1.2,1.5,2.4,2.2,3.7c0.1,0.1,0.1,0.2,0.2,0.3
					c0.3,0.5,0.6,1.1,0.9,1.6c1.1,2,2.2,4.1,3.2,6.2c0.3,0.5,0.5,1.1,0.8,1.6c2.1,4.4,3.9,8.9,5.4,13.6c0.1,0.4,0.3,0.8,0.4,1.2
					c0.8,2.5,1.5,5,2.2,7.6c0.1,0.4,0.2,0.8,0.3,1.3c0.4,1.7,0.8,3.4,1.1,5.1c0.1,0.4,0.2,0.8,0.2,1.2c0.3,1.3,0.5,2.7,0.7,4
					c0.1,0.7,0.2,1.4,0.3,2.1c0.1,0.7,0.2,1.3,0.3,2c0,0.1,0,0.2,0,0.3c0.1,0.7,0.2,1.3,0.2,2c0.1,1,0.2,2.1,0.3,3.1
					c0.1,0.6,0.1,1.1,0.1,1.7c0.1,0.8,0.1,1.5,0.1,2.3s0.1,1.6,0.1,2.5c0,0.6,0,1.2,0,1.9c0,0.9,0,1.8,0,2.6c0,1.1,0,2.2,0,3.3
					C383.9,196.4,383.9,197.4,383.8,198.5z"/>
			</g>
		</g>
		<ellipse class="st2" cx="256.1" cy="192" rx="127.9" ry="128"/>
	</g>
	<g id="Layer_2_1_">
	</g>
</g>
<g id="Layer_2">
	<g transform="translate(0.000000,512.000000) scale(0.100000,-0.100000)">
		<path d="M2328.6,4210.6c-8.1-2.8-21.9-11.1-30.7-18.6c-20.7-17.1-658.8-609.7-665.3-617.7c-19.2-24.6-27.6-61.9-20.3-90.4
			c11.9-46,48.3-75.4,98.2-79.3l28.8-2.4v-359.4c0-232.5,1.5-364.6,3.8-374.1c6.9-25.8,26.9-51.6,49.5-63.5l20.3-11.1H2210h397.1
			l-3.1-16.7c-1.5-9.5-2.7-34.9-2.7-56.7c1.2-211.4,190.7-370.5,391-327.7c121.2,25.8,217.2,118.6,250.9,242.4
			c10.7,40.5,13.8,103.9,6.5,144.8l-5.8,31.7l85.6,89.3c47.2,49.2,87.1,92.8,89.4,97.2c1.9,4.4,8.4,32.1,14.2,61.5l10.4,53.6
			l45.3,47.6c51,53.6,46,43.2,71,149.2c13.8,57.5,14.6,63.5,10,79.3c-6.5,22.2-25.3,41.3-46.4,47.2c-15,4.4-23,3.2-89.8-14.3
			c-40.3-10.3-76.7-20.2-81-22.6c-4.2-2-82.9-81.3-175-176.1l-167.3-172.2l-13,3.2l-13,3.6l-1.2,272.5l-0.8,272.5h20.3
			c30.3,0,56.8,9.5,76.4,27.8c23.4,21,33.8,44.8,33.8,76.2c0,45.6-6.5,54.7-107.1,147.6l-88.3,82.5l-1.2,167.8
			c-1.2,163.4-1.5,168.2-9.2,179.3c-4.2,6-13.8,15.1-21.1,20.2c-12.7,9.1-14.2,9.1-101.3,7.9c-85.2-1.2-88.6-1.6-100.9-10.3
			c-20.3-15.1-25.3-29.4-27.6-77.8l-1.9-43.2l-112.8,104.7c-62.2,57.5-118.2,108.7-124.7,113.1
			C2392.7,4216.2,2356.6,4220.9,2328.6,4210.6z M2378.5,4144c8.1-4.4,625-576,655-606.2c17.7-17.9,19.2-36.5,5-54l-9.2-11.1
			l-657.7-1.2c-468.5-0.8-661.5,0-671.9,3.2c-17.3,5.2-28.4,24.2-24.2,41.3c1.5,7.1,72.5,75.4,229.8,221.8
			c124.7,115.8,273.6,254.7,330.8,307.4c56.8,53.2,107.1,98.4,111.3,100C2358.1,4149.9,2369.3,4149.5,2378.5,4144z M2852,3922.2
			v-123.4l-8.4,7.5c-5,4.4-34.1,31.7-65.2,60.7l-56.8,52.8v63.1v63.1h65.2h65.2V3922.2z M2917.2,3134c0-299.5,2.3-274.1-26.5-274.1
			c-24.6,0-73.3-15.1-109.7-33.7c-58.7-30.1-114-85.7-142-143.2l-10.4-21.4h-18.8H2591v179.7c0,201.1-1.5,214.6-25.3,263.4
			c-38,78.2-115.9,128.5-199.1,129.3c-41.4,0.4-67.5-5.6-103.6-23.4c-45.7-22.2-84-61.1-105.5-106.7c-22.3-47.2-23-53.6-23-256.7
			v-185.7h-153.1c-84.4,0-156.2,1.2-159.6,2.4c-17.3,7.1-17.3,3.2-17.3,382.4v357h556.4h556.4V3134z M2430.6,3150.6
			c30.3-15.1,55.3-37.7,71-65.1c23.4-40.1,24.2-50,24.2-246.4v-177.7h-163.1h-163.1v181.7c0,196.8,0.8,204.3,21.5,241.2
			c13.4,23.8,46,54,71.8,66.6C2334.7,3171.3,2388.4,3171.3,2430.6,3150.6z M3492,3107l-15-62.7l-47.2-49.6l-47.2-49.6l-10.7-57.5
			l-10.7-57.5l-93.2-97.2c-67.9-71-93.6-100-93.6-106.7c0-5.2,3.1-20.2,6.5-33.7c7.7-30.1,8.8-99.2,1.5-129.3
			c-2.7-11.9-12.7-38.5-22.3-59.1c-28-60.3-81.7-109.9-144.7-133.7c-95.5-35.7-201.8-10.3-274.7,66.2
			c-99.8,104.7-97.8,277.7,4.2,381.2c41.1,41.3,93.6,67,154.6,75.4c26.1,3.6,37.2,3.2,67.5-2.8c20-3.6,44.1-7.5,53-8.7l16.9-2
			l175,180.5l175.4,180.9l51.8,13.9C3515.8,3175.2,3510,3180.4,3492,3107z"/>
		<path d="M3172,2823.3c-48.7-50.8-89.8-95.6-90.9-99.2c-6.9-20.2,18-46.4,39.1-40.9c12.7,3.2,175.7,169.8,183,187.2
			c9.2,21.8-5.8,44.8-28.8,44.8C3261.4,2915.4,3254.8,2909.4,3172,2823.3z"/>
		<path d="M2836.6,2583.3c-10.7-4-25.3-14.7-39.1-29c-17.3-17.9-23-27.4-28-45.6c-15.7-55.1,8.4-113.5,57.2-140
			c16.9-9.1,24.2-10.7,52.2-10.7c26.5,0,35.7,1.6,48.7,9.1c42.6,23,64.5,59.5,64.1,105.9c0,36.9-11.5,63.9-36.8,87.3
			C2924.1,2588.9,2876.9,2598,2836.6,2583.3z M2907.6,2513.9c43.4-35.3,6.9-104.7-45.7-86.5c-36.1,12.3-43,59.1-13,85.3
			C2863.8,2525.8,2892.2,2526.6,2907.6,2513.9z"/>
	</g>
</g>
</svg>
