<?xml version="1.0" encoding="utf-8"?>
<!-- Generator: Adobe Illustrator 24.1.2, SVG Export Plug-In . SVG Version: 6.00 Build 0)  -->
<svg version="1.1" xmlns="http://www.w3.org/2000/svg" xmlns:xlink="http://www.w3.org/1999/xlink" x="0px" y="0px"
	 viewBox="0 0 512 512" style="enable-background:new 0 0 512 512;" xml:space="preserve">
<style type="text/css">
	.st0{fill:#00000D;}
	.st1{fill:#0A1A33;}
	.st2{fill:#FFFFFF;}
</style>
<g id="Layer_1">
	<g id="Layer_1_2_">
		<g id="Layer_1_1_">
			<g id="Outline">
				<path class="st0" d="M256,16C158.3,16.7,79.5,96.4,80,194.1c0,62.7,28.8,132.3,85.6,206.9c25.5,33.5,54,64.7,85.1,93
					c3,2.6,7.5,2.6,10.5,0c31.2-28.3,59.6-59.5,85.1-93c56.8-74.5,85.6-144.2,85.6-206.9C432.5,96.4,353.7,16.7,256,16z M256,477.2
					c-28.2-26.3-160-156-160-283c0-24.2,5.4-47.2,15-67.8c13.4-28.7,35.2-52.8,62.1-69.1c24.2-14.7,52.6-23.1,82.9-23.1
					c88.4,0,160,71.6,160,160C416,321.2,284.2,450.9,256,477.2z"/>
				<path class="st1" d="M256,34.2c-30.3,0-58.7,8.4-82.9,23.1c-26.9,16.3-48.7,40.4-62.1,69.1c-9.6,20.6-15,43.6-15,67.8
					c0,127,131.8,256.7,160,283c28.2-26.3,160-156,160-283C416,105.8,344.4,34.2,256,34.2z M256,336c-79.5,0-144-64.5-144-144
					S176.5,48,256,48c79.5,0.1,143.9,64.5,144,144C400,271.5,335.5,336,256,336z"/>
				<path class="st0" d="M256,48c-79.5,0-144,64.5-144,144s64.5,144,144,144s144-64.5,144-144C399.9,112.5,335.5,48.1,256,48z
					 M383.8,198.5C383.8,198.5,383.8,198.6,383.8,198.5C380.4,264,328,316.4,262.6,319.8c0,0,0,0-0.1,0c-1.1,0.1-2.1,0.1-3.2,0.1
					s-2.2,0-3.3,0c-2.3,0-4.7-0.1-7-0.2c-0.4,0-0.8,0-1.3-0.1c-0.6,0-1.2-0.1-1.8-0.1c-1-0.1-2-0.2-3-0.3c-0.5,0-1.1-0.1-1.6-0.2
					s-1.1-0.1-1.6-0.2C176.8,311,128,257.2,128,192S176.8,73,239.8,65c0.5-0.1,1.1-0.1,1.6-0.2s1.1-0.1,1.6-0.2c1-0.1,2-0.2,3-0.3
					c0.6,0,1.2-0.1,1.8-0.1c0.4,0,0.8-0.1,1.3-0.1c1.3-0.1,2.6-0.1,4-0.2c0.3,0,0.7,0,1,0c0.7,0,1.3,0,2,0s1.4,0,2,0
					c1.4,0,2.7,0.1,4.1,0.1c0.7,0,1.3,0.1,2,0.1c1,0.1,1.9,0.1,2.9,0.2c0.9,0.1,1.9,0.2,2.8,0.3c1.9,0.2,3.7,0.5,5.6,0.7
					c0.6,0.1,1.1,0.2,1.7,0.3c1,0.2,2.1,0.4,3.1,0.5h0.1c29.2,5.6,54.8,21.2,73.3,43c2,2.4,3.9,4.8,5.8,7.4c0.3,0.4,0.6,0.8,0.9,1.3
					c0.4,0.6,0.9,1.3,1.3,1.9s0.9,1.3,1.3,1.9l0,0c0.6,0.9,1.1,1.7,1.6,2.6l0,0c0.8,1.2,1.5,2.4,2.2,3.7c0.1,0.1,0.1,0.2,0.2,0.3
					c0.3,0.5,0.6,1.1,0.9,1.6c1.1,2,2.2,4.1,3.2,6.2c0.3,0.5,0.5,1.1,0.8,1.6c2.1,4.4,3.9,8.9,5.4,13.6c0.1,0.4,0.3,0.8,0.4,1.2
					c0.8,2.5,1.5,5,2.2,7.6c0.1,0.4,0.2,0.8,0.3,1.3c0.4,1.7,0.8,3.4,1.1,5.1c0.1,0.4,0.2,0.8,0.2,1.2c0.3,1.3,0.5,2.7,0.7,4
					c0.1,0.7,0.2,1.4,0.3,2.1c0.1,0.7,0.2,1.3,0.3,2c0,0.1,0,0.2,0,0.3c0.1,0.7,0.2,1.3,0.2,2c0.1,1,0.2,2.1,0.3,3.1
					c0.1,0.6,0.1,1.1,0.1,1.7c0.1,0.8,0.1,1.5,0.1,2.3s0.1,1.6,0.1,2.5c0,0.6,0,1.2,0,1.9c0,0.9,0,1.8,0,2.6c0,1.1,0,2.2,0,3.3
					C383.9,196.4,383.9,197.4,383.8,198.5z"/>
			</g>
		</g>
		<ellipse class="st2" cx="256.1" cy="192" rx="127.9" ry="128"/>
	</g>
	<g id="Layer_2_1_">
	</g>
</g>
<g id="Layer_2">
	<g transform="translate(0.000000,512.000000) scale(0.100000,-0.100000)">
		<path d="M1824.1,4180.6c-7.9-9.5-7.9-13.6-7.9-165.1v-155.6h-55.6c-53.3,0-55.9-0.4-63.8-8.4l-8.3-8.4l-0.8-414.7l-1.1-414.3
			l-21-1.8c-36.4-3.3-44.7-16.9-44.7-75.6c0-45.5,5.3-60.2,24.4-69c6.8-3.3,19.1-5.9,27.8-5.9h15.4v-222v-222H1659
			c-44.7,0-60.4-7.7-60.4-30.5c0-4.8,3.8-12.1,8.6-16.5l8.6-8.1h944h944.4l7.9,8.4c9.4,9.5,10.5,23.1,3,32.7
			c-7.1,9.5-22.9,13.9-48.4,13.9h-23.3l-55.6,487.3c-30.4,267.9-55.6,489.2-55.6,491.8c0.4,2.6,5.6,4.4,13.5,4.4
			c17.3,0,28.2,10.6,28.2,27.2c0,20.6-13.1,27.9-49.5,27.9h-29.7l1.1,48.8l1.1,48.4l23.3,1.1c19.9,1.1,24.4,2.6,31.2,10.6
			c19.1,23.9,1.5,45.1-37.5,45.1h-18.8v18.3c0,15.8,1.1,18.3,7.1,18.3c9,0,22.9,16.5,22.9,27.2c0,11-9.4,23.1-20.6,25.7
			c-6.8,1.8-9.4,4.8-9.4,11c0,23.9-31.2,34.1-47.7,15.4c-4.5-5.5-8.6-12.8-8.6-16.1c-0.4-3.3-5.6-9.5-12.4-13.6
			c-19.9-12.1-18-42.9,3-48.1c8.3-1.8,9.4-4,9.4-19.8V3611l-22.5-1.5c-27-1.8-37.5-9.5-37.5-27.5c0-19.1,10.5-26.8,37.5-26.8h22.5
			v-49.2v-49.2l-78.4-2.6c-43.2-1.5-80.3-1.5-82.6-0.4c-2.6,1.8-4.1,20.6-4.1,52.1v49.2h24c21.8,0,25.1,1.1,31.9,9.5
			c9,11,9.8,15.8,3.8,28.3c-5.6,11.7-18.4,17.2-40.9,17.2h-18.8v17.6c0,16.1,0.8,18,11.3,21.7c23.3,8.4,23.3,39.3-0.4,48.8
			c-7.5,3.3-10.9,7-10.9,13.2c0,15.4-15,25.7-33.8,23.9c-7.5-1.1-22.5-17.6-22.5-25.3c-0.4-3.3-5.6-9.5-12.4-13.6
			c-19.9-12.1-18-42.9,3-48.1c8.3-1.8,9.4-4,9.4-19.8V3611l-22.5-1.5c-27-1.8-37.5-9.5-37.5-27.5c0-19.1,10.5-26.8,37.5-26.8h22.5
			v-51.4v-51.4h-31.5c-29.7,0-32.3-0.7-39.4-9.5c-15.8-19.8-5.6-40.7,21-44.4l15.8-2.2l-1.9-15c-1.1-8.1-4.9-40.7-8.6-71.9
			l-6.4-56.9l-9,1.1c-5.3,0.7-23.6,1.5-41.3,1.5c-25.1,0.4-36.4-1.1-54.4-8.1c-28.5-11-59.3-40.4-76.9-74.1l-13.1-25l-1.9,349
			l-1.9,349l-9,7c-7.5,6.2-15,7-64.6,7h-55.9v157.8c0,153-0.4,158.2-7.5,165.1c-7.1,7-12.4,7.3-82.6,7.3c-70.2,0-75.4-0.4-82.6-7.3
			c-8.3-8.1-9.8-22-3.8-33c6-11,24.8-14.7,73.6-14.7h46.5v-137.6v-137.6h-354.7h-354.7v137.6v137.6l255.6,0.7l255.6,1.1l9,10.3
			c10.9,12.5,11.3,20.6,1.1,33.4l-7.5,9.5H2109h-277.4L1824.1,4180.6z M2712.6,3409.6l-1.1-395.6l-483.1-1.1l-483.5-0.7v396.3v396.3
			h484.2h484.2L2712.6,3409.6z M3286.9,3289.9c7.1-60.2,11.6-110.5,10.9-111.6c-1.9-1.5-114.9,47-207.9,89.5l-30.8,13.9l100.2,59.5
			c56.3,33.8,103.6,59.5,107.7,58.7C3273.8,3399.3,3275.3,3391.2,3286.9,3289.9z M3139.4,3394.5c-3-2.6-93.1-56.5-104.7-62.4
			c-2.6-1.5-1.5,14.7,3.8,51.7l2.3,13.6h51C3119.9,3397.5,3141.3,3396,3139.4,3394.5z M3144.6,3182.8
			c63.8-28.3,115.6-51.7,115.2-52.5c-0.8-0.4-59.3-24.6-130.2-53.2c-108.1-44-129.1-51.7-130.2-46.2c-0.8,3.3,4.1,49.9,10.1,103.5
			c6.4,53.6,11.6,98.7,11.6,99.8C3021.2,3237.5,3014.4,3240.4,3144.6,3182.8z M2950.2,3195.3c4.5-2.2,7.1-7.3,7.1-13.6
			c0-5.5-19.5-179.1-43.2-385.7c-23.6-206.6-43.2-376.2-43.2-376.9c0-0.7-22.9-1.5-50.7-1.5h-50.7v91.4c0,91,0,91.7-8.6,101.7
			c-11.6,12.8-30.8,13.9-40.9,1.8c-6-7.7-6.8-16.5-6.8-101.7v-93.2h-112.6h-112.6v102.8c0,93.9,0.4,102.8,6.4,102.8
			c10.1,0,23.6,15,23.6,26.4c0,11.7-10.5,23.9-23.3,26.8c-4.9,1.1-128.4,1.5-274.4,1.1l-266.1-1.1l-9.4-10.6
			c-6.8-8.1-8.6-12.8-6.8-20.2c3.4-12.5,12-21.7,22.1-23.1c7.9-1.1,7.9-1.8,9-102.8l0.8-102h-112.6h-112.6v222v222h484.2h484.2
			v-84.4c0-79.6,0.4-84.8,7.5-91.7c11.3-11,31.2-9.9,40.9,2.2c7.5,9.2,7.9,14.3,7.9,91.7v82.2h15c19.9,0,36,8.4,43.5,22.4
			c4.5,9.2,5.6,20.9,4.5,59.1l-1.1,47.7l-12.4,10.6c-9.8,8.8-15.4,10.6-30.8,10.6h-18.8v33c0,26.8,1.1,33,5.6,33
			c11.3,0,36,27.5,53.3,58.3c23.6,43.3,34.2,53.2,64.9,63.1C2904.8,3203.3,2940.5,3200.8,2950.2,3195.3z M3311.3,3075.6
			c5.6-36.7,22.1-196,20.6-197.4c-1.1-1.1-48.8,15.8-106.6,37.1c-57.4,21.3-121.2,44.8-141.1,52.1c-20.3,7.3-36.8,14.3-36.8,15.4
			c0,1.5,253.7,105.3,259.4,106.1C3308.3,3089.2,3310.2,3083,3311.3,3075.6z M2777.2,2936.9v-20.2h-549.9h-549.9v20.2v20.2h549.9
			h549.9V2936.9z M3138.3,2888.5c80-29.4,145.3-53.9,144.5-54.7c-3.4-3.3-315.7-107.5-317.2-106.1c-1.1,1.1,2.6,43.7,8.3,94.7
			c12,107.2,13.5,120,16.5,120C2991.9,2942.4,3058.3,2918.2,3138.3,2888.5z M3344.3,2791.2c0-2.6,5.6-52.1,12.4-110.1
			c6.4-58.3,12-105.7,12-105.7c-0.4,0-30,9.5-216.2,68.6c-67.2,21.3-123.1,39.6-124.6,41.1c-1.5,1.1,28.2,12.8,65.7,25.3
			c37.5,12.8,108.1,36.7,156.5,53.6c48.4,16.9,89.3,30.8,91.2,31.2C3342.8,2795.3,3344,2793.4,3344.3,2791.2z M3140.5,2589.7
			c97.6-30.8,176-57.2,174.5-58.7c-1.9-1.5-58.6-27.9-126.5-58l-123.9-55.4H2996h-69.1l2.3,15.8c2.3,15.4,24.4,210.6,24.4,214.3
			c0,1.1,2.3,1.1,4.9,0C2960.7,2647,3042.9,2620.9,3140.5,2589.7z M2199.1,2520.4v-102.8h-86.3h-86.3v102.8v102.8h86.3h86.3V2520.4z
			 M2431.1,2519.7l0.8-102h-88.2h-88.2v100.2c0,55.4,1.1,101.7,2.6,103.1c1.5,1.1,40.5,1.8,87.1,1.5l84.8-1.1L2431.1,2519.7z
			 M3378.9,2484.4c1.1-5.9,3.4-23.1,4.9-38.5l2.6-28.3h-91.2c-50.3,0-90.5,0.7-89.7,1.5c2.3,2.2,166.3,75.2,168.9,75.6
			C3375.9,2494.7,3377.7,2489.9,3378.9,2484.4z"/>
		<path d="M1845.5,3733.3c-5.3-5.1-10.5-14.3-12-20.6c-3.8-19.8-2.6-213.2,1.9-228.3c7.1-25,17.3-28.3,92.7-28.3
			c50.7,0,67.2,1.1,75.8,5.5c21.8,11,22.5,16.1,22.5,137.6c0,117.1-1.9,130.6-18,139.1c-4.9,2.6-35.7,4-80.7,4
			C1854.9,3742.4,1854.9,3742.4,1845.5,3733.3z M1970.2,3599.3v-88.4l-40.2,1.1l-40.5,1.1l-1.1,87.3l-0.8,87h41.3h41.3V3599.3z"/>
		<path d="M2143.9,3733.6l-10.5-8.8l-1.1-121.5l-1.1-121.1l11.3-12.1l10.9-12.1l63.1-1.1c73.6-1.5,85.6,0,97.6,12.8l9,9.5V3600
			v121.1l-10.9,10.6l-10.9,10.6h-73.6C2155.6,3742.4,2154.5,3742.4,2143.9,3733.6z M2266.7,3599.3v-88.1h-39.4h-39.4v88.1v88.1h39.4
			h39.4V3599.3z"/>
		<path d="M2442.7,3731.8l-10.9-10.6v-121.8v-121.5l9-8.8c12.4-12.1,24.8-13.6,97.2-12.1l62.7,1.1l10.1,10.3l10.5,9.9l1.1,116.3
			c0.8,83.3-0.4,119.3-3.4,126.6c-8.6,20.2-13.5,21.3-92.7,21.3h-72.8L2442.7,3731.8z M2567,3599.3v-88.1h-39.4h-39.4v88.1v88.1
			h39.4h39.4V3599.3z"/>
		<path d="M1845.5,3350.1l-12.4-10.6l-1.1-115.2c-1.5-158.5-6.8-150.5,101.3-149l70.6,1.1l10.1,10.3l10.5,9.9l1.1,115.6
			c1.1,126.2,0,135.4-20.3,144.6c-6,2.6-34.9,4-78.4,4h-69.4L1845.5,3350.1z M1970.2,3217.6v-88.1h-41.3h-41.3v88.1v88.1h41.3h41.3
			V3217.6z"/>
		<path d="M2149.2,3356.7c-13.5-7.7-17.6-23.1-17.6-66.8c0-36.7,0.8-42.6,7.5-49.5c5.3-5.1,12.4-8.1,20.6-8.1
			c21.4,0,28.2,10.6,28.2,44.8v28.6h39.4h39.4v-88.1v-88.1h-39.4h-39.4v13.9c0,18.3-10.9,30.1-28.2,30.1
			c-21.4,0-28.2-10.6-28.2-45.1c0-28.3,0.4-29.4,12.8-41.5l12.8-12.5h67.9c72.1,0,85.6,2.6,94.2,18c2.3,4.8,3.8,51.7,3.8,127v120
			l-10.9,10.6l-10.9,10.6h-72.8C2186.4,3360.8,2153.3,3358.9,2149.2,3356.7z"/>
		<path d="M2442.7,3350.1l-10.9-10.6v-120c0-75.2,1.5-122.2,3.8-127c8.6-15.4,22.1-18,94.2-18h67.9l12.8,12.5l12.8,12.5v116.3
			c0,120.7-0.8,125.9-16.5,138.4c-6.8,5.5-17.3,6.6-80.3,6.6h-72.8L2442.7,3350.1z M2567,3217.6v-88.1h-39.4h-39.4v88.1v88.1h39.4
			h39.4V3217.6z"/>
		<path d="M1989.7,4083.3c-27.8-35.2-45.8-62.4-45.8-69.4c0-3.7,3.4-10.6,7.9-16.1c6.8-8.4,10.5-9.5,30-9.5c12,0,22.1-0.7,22.1-1.8
			c0-1.1-9.4-15-20.6-30.8c-24-33.4-26.3-46.6-10.9-58.7c11.3-8.8,23.3-9.9,32.7-2.9c3.4,2.2,23.3,28.3,43.9,57.2
			c28.2,40,37.5,55.8,37.5,64.6c0,16.5-10.9,24.6-35.7,26.8l-20.3,1.5l9,13.6c17.3,24.6,7.9,48.1-18.8,48.1
			C2009.2,4105.7,2005.8,4103.2,1989.7,4083.3z"/>
		<path d="M2157.5,4076.7c-6.4-4.8-8.6-10.6-8.6-20.6c0-9.9,2.3-15.8,8.6-20.6c8.3-6.6,17.6-7,160.7-7h151.6l9,9.2
			c5.3,4.8,9.4,13.2,9.4,18.3s-4.1,13.6-9.4,18.3l-9,9.2h-151.6C2175.1,4083.7,2165.7,4083.3,2157.5,4076.7z"/>
		<path d="M2154.5,3956.7c-10.1-12.8-9.8-20.9,1.1-33.4l9-10.3h152.8h152.8l9,10.3c10.9,12.5,11.3,20.6,1.1,33.4l-7.5,9.5h-155.4
			H2162L2154.5,3956.7z"/>
	</g>
</g>
</svg>
