<?xml version="1.0" encoding="utf-8"?>
<!-- Generator: Adobe Illustrator 24.1.2, SVG Export Plug-In . SVG Version: 6.00 Build 0)  -->
<svg version="1.1" xmlns="http://www.w3.org/2000/svg" xmlns:xlink="http://www.w3.org/1999/xlink" x="0px" y="0px"
	 viewBox="0 0 512 512" style="enable-background:new 0 0 512 512;" xml:space="preserve">
<style type="text/css">
	.st0{fill:#00000D;}
	.st1{fill:#0A1A33;}
	.st2{fill:#FFFFFF;}
</style>
<g id="Layer_1">
	<g id="Layer_1_2_">
		<g id="Layer_1_1_">
			<g id="Outline">
				<path class="st0" d="M256,16C158.3,16.7,79.5,96.4,80,194.1c0,62.7,28.8,132.3,85.6,206.9c25.5,33.5,54,64.7,85.1,93
					c3,2.6,7.5,2.6,10.5,0c31.2-28.3,59.6-59.5,85.1-93c56.8-74.5,85.6-144.2,85.6-206.9C432.5,96.4,353.7,16.7,256,16z M256,477.2
					c-28.2-26.3-160-156-160-283c0-24.2,5.4-47.2,15-67.8c13.4-28.7,35.2-52.8,62.1-69.1c24.2-14.7,52.6-23.1,82.9-23.1
					c88.4,0,160,71.6,160,160C416,321.2,284.2,450.9,256,477.2z"/>
				<path class="st1" d="M256,34.2c-30.3,0-58.7,8.4-82.9,23.1c-26.9,16.3-48.7,40.4-62.1,69.1c-9.6,20.6-15,43.6-15,67.8
					c0,127,131.8,256.7,160,283c28.2-26.3,160-156,160-283C416,105.8,344.4,34.2,256,34.2z M256,336c-79.5,0-144-64.5-144-144
					S176.5,48,256,48c79.5,0.1,143.9,64.5,144,144C400,271.5,335.5,336,256,336z"/>
				<path class="st0" d="M256,48c-79.5,0-144,64.5-144,144s64.5,144,144,144s144-64.5,144-144C399.9,112.5,335.5,48.1,256,48z
					 M383.8,198.5C383.8,198.5,383.8,198.6,383.8,198.5C380.4,264,328,316.4,262.6,319.8c0,0,0,0-0.1,0c-1.1,0.1-2.1,0.1-3.2,0.1
					s-2.2,0-3.3,0c-2.3,0-4.7-0.1-7-0.2c-0.4,0-0.8,0-1.3-0.1c-0.6,0-1.2-0.1-1.8-0.1c-1-0.1-2-0.2-3-0.3c-0.5,0-1.1-0.1-1.6-0.2
					s-1.1-0.1-1.6-0.2C176.8,311,128,257.2,128,192S176.8,73,239.8,65c0.5-0.1,1.1-0.1,1.6-0.2s1.1-0.1,1.6-0.2c1-0.1,2-0.2,3-0.3
					c0.6,0,1.2-0.1,1.8-0.1c0.4,0,0.8-0.1,1.3-0.1c1.3-0.1,2.6-0.1,4-0.2c0.3,0,0.7,0,1,0c0.7,0,1.3,0,2,0s1.4,0,2,0
					c1.4,0,2.7,0.1,4.1,0.1c0.7,0,1.3,0.1,2,0.1c1,0.1,1.9,0.1,2.9,0.2c0.9,0.1,1.9,0.2,2.8,0.3c1.9,0.2,3.7,0.5,5.6,0.7
					c0.6,0.1,1.1,0.2,1.7,0.3c1,0.2,2.1,0.4,3.1,0.5h0.1c29.2,5.6,54.8,21.2,73.3,43c2,2.4,3.9,4.8,5.8,7.4c0.3,0.4,0.6,0.8,0.9,1.3
					c0.4,0.6,0.9,1.3,1.3,1.9s0.9,1.3,1.3,1.9l0,0c0.6,0.9,1.1,1.7,1.6,2.6l0,0c0.8,1.2,1.5,2.4,2.2,3.7c0.1,0.1,0.1,0.2,0.2,0.3
					c0.3,0.5,0.6,1.1,0.9,1.6c1.1,2,2.2,4.1,3.2,6.2c0.3,0.5,0.5,1.1,0.8,1.6c2.1,4.4,3.9,8.9,5.4,13.6c0.1,0.4,0.3,0.8,0.4,1.2
					c0.8,2.5,1.5,5,2.2,7.6c0.1,0.4,0.2,0.8,0.3,1.3c0.4,1.7,0.8,3.4,1.1,5.1c0.1,0.4,0.2,0.8,0.2,1.2c0.3,1.3,0.5,2.7,0.7,4
					c0.1,0.7,0.2,1.4,0.3,2.1c0.1,0.7,0.2,1.3,0.3,2c0,0.1,0,0.2,0,0.3c0.1,0.7,0.2,1.3,0.2,2c0.1,1,0.2,2.1,0.3,3.1
					c0.1,0.6,0.1,1.1,0.1,1.7c0.1,0.8,0.1,1.5,0.1,2.3s0.1,1.6,0.1,2.5c0,0.6,0,1.2,0,1.9c0,0.9,0,1.8,0,2.6c0,1.1,0,2.2,0,3.3
					C383.9,196.4,383.9,197.4,383.8,198.5z"/>
			</g>
		</g>
		<ellipse class="st2" cx="256.1" cy="192" rx="127.9" ry="128"/>
	</g>
	<g id="Layer_2_1_">
	</g>
</g>
<g id="Layer_2">
	<g transform="translate(0.000000,512.000000) scale(0.100000,-0.100000)">
		<path d="M2502.2,4332.2c-191-13.7-374.1-73.8-533.5-175.9c-44.6-28.7-51.1-36-51.1-58.3c0-18,8.7-30.9,25.5-37.7
			c18.2-7.3,26.8-4.3,78.4,28.3c129.5,81.5,275.4,132.6,430.9,151.9c60.2,7.7,192.7,6.9,253.3-1.3
			c233.4-31.3,432.6-127.4,592.8-286.6c84.9-84.1,145.1-167.7,198.3-276.7c69.3-141.1,100.9-279.7,100.9-439.3
			c-0.4-201.6-57.2-385.6-173.2-560.2c-35.5-53.2-38.1-67.3-17.8-87.9c13.4-13.3,35.9-16.7,52.4-8.2c4.8,2.6,20.8,23.2,36.4,46.3
			C3588.7,2766,3645,2911,3671.9,3080c11.7,72.9,13.9,227.4,4.8,293.8c-31.2,218.3-116.1,410.5-253.3,572.7
			c-172.3,203.3-421.8,338.9-694.6,377.5C2684.5,4330.5,2546.4,4335.2,2502.2,4332.2z"/>
		<path d="M2315.6,4111.3c-40.7-6-77.1-34.7-95.7-74.6c-9.5-21-10-25.3-11.3-170.3l-1.3-148.4l-21.2-5.1
			c-27.3-6.4-67.6-32.2-83.6-52.8c-6.9-9-17.3-27-23.8-40.8c-10-20.6-11.7-30.5-11.7-63.1c0-35.2,1.3-41.6,13.9-66.5
			c17.3-35.2,46.8-64.3,79.7-79.8l25.5-12v-114.1c0-151.4,6.1-187,42-259.5c37.7-75.5,120.4-154.4,190.1-180.6l19.1-7.3v-45.5
			c0-34.7,2.2-49.3,8.2-62.6c14.3-30.9,45.5-53.6,73.6-53.6h13l1.3-178.9c1.7-202,0.9-197.3,36.4-250.1
			c39.8-60.1,113-94.8,185.8-88.4c39.4,3.4,123,24,187.1,45.9c92.7,31.3,259,119.7,289.3,153.6c20.4,23.2,4.3,62.2-28.6,67.3
			c-13,2.1-21.2-1.7-66.3-30.5c-115.2-73.8-230.8-121-358.6-146.7c-32-6.4-41.6-6.9-62.8-2.1c-44.6,9-82.7,45-91.8,86.7
			c-3,13.7-4.8,82.8-4.8,182.3v160.9h13.4c28.1,0,59.3,22.7,73.6,53.6c6.1,13.3,8.2,27.9,8.2,62.6v45.5l19.1,7.3
			c69.7,26.2,152.4,105.1,190.1,180.6c35.9,72.5,42,108.1,42,259.5v114.1l25.5,12c32.9,15.4,62.4,44.6,79.7,79.8
			c12.6,24.9,13.9,31.3,13.9,66.5c0,32.6-1.7,42.5-11.7,63.1c-6.5,13.7-16.9,31.7-23.8,40.8c-16,20.6-56.3,46.3-83.6,52.8l-21.2,5.1
			l-1.3,148.4c-1.3,145-1.7,149.3-11.3,170.7c-37.2,81.5-145.9,101.7-207.9,39c-10-9.9-22.1-27.5-27.7-39.5
			c-9.5-21-10-25.7-11.3-168.2l-1.3-147.1h-107.8H2468l-1.3,147.1c-1.3,143.7-1.7,147.1-11.7,169
			C2431.2,4090.2,2373.6,4120.7,2315.6,4111.3z M2366.7,4015.6l12.1-10.3l1.3-142l1.3-142h-43.7h-43.7l1.3,142l1.3,142l12.1,10.3
			c8.2,6.9,17.3,10.3,29,10.3C2349.4,4025.9,2358.5,4022.5,2366.7,4015.6z M2843,4015.6l12.1-10.3l1.3-142l1.3-142H2814h-43.7
			l1.3,142l1.3,142l12.1,10.3c8.2,6.9,17.3,10.3,29,10.3S2834.8,4022.5,2843,4015.6z M2955.2,3626.1c18.6-10.3,39.4-34.3,42.9-50.6
			c7.8-34.7-12.6-75.5-43.7-88.4c-21.2-9-735.7-9-756.9,0c-32.9,13.7-52.8,57.1-42,92.7c5.6,18.9,33.3,45.9,51.1,49.8
			c6.9,1.3,14.3,3,16.5,3.9c2.6,0.9,165,1.3,361.6,0.9C2911.4,3633.4,2943.1,3633,2955.2,3626.1z M2878.1,3267.9
			c-1.7-118.4-2.6-130-11.7-157.9c-42.4-129.1-156.3-212.3-290.6-212.3c-134.2,0-248.1,83.2-290.6,212.3
			c-9.1,27.9-10,39.5-11.7,157.9l-1.7,127.4h304h304L2878.1,3267.9z M2627.8,2786.2v-25.7h-52h-52v25.7v25.7h52h52V2786.2z"/>
		<path d="M2606.1,3367c-10.8-6.9-118.7-139.4-129-159.1c-7.8-14.6-3.5-36,10.4-48.9c8.7-8.2,16.5-10.3,40.7-11.6
			c16.9-0.9,30.3-2.6,30.3-3.4c0-1.3-11.7-22.3-25.5-47.2c-31.2-54.1-32.5-57.9-26.8-75.9c8.2-24.9,43.3-36.9,64.1-22.3
			c10.4,7.3,103.1,166,107.8,184c3.5,14.2-5.2,35.6-17.3,42.5c-4.8,2.6-19.5,6-31.6,7.3l-23,2.1l27.7,34.3
			c40.7,51.5,43.7,60.5,29.9,83.6C2651.6,3373.4,2626.5,3379.4,2606.1,3367z"/>
		<path d="M1787.3,4009.2c-32.9-33,2.2-85.4,45.5-67.3c43.7,18,30.7,79.8-16.9,79.8C1804.2,4021.6,1796.8,4018.2,1787.3,4009.2z"/>
		<path d="M1682.5,3884.3c-16.5-12.9-68.4-96.1-100.5-160.9c-121.7-244.1-146.8-522.9-71.5-787.2c28.1-98.2,75.8-202,131.2-287
			l32-48.5l-15.2-29.6c-44.2-87.9-5.2-198.6,84.4-240.7c104.4-48.9,226.5,6.9,256.8,117.5c9.1,34.3,4.3,86.7-12.1,121
			c-29.9,63.5-97.4,105.5-169.3,105.5c-14.7,0-52.4-8.2-70.6-15c-16-6.4-97,137.7-131.2,233.4c-80.5,223.9-80.1,472.3,0,693.2
			c21.2,58.8,64.5,145,101.3,202c35.9,56.2,39,71.2,18.2,92.2C1720.6,3895.5,1698.9,3897.2,1682.5,3884.3z M1864.8,2577.7
			c61.5-30.5,71.5-110.7,19.9-155.7c-40.7-35.2-98.7-31.3-134.7,9.9c-39.8,44.6-25.5,117.1,28.6,145
			C1808.9,2592.7,1834.5,2592.7,1864.8,2577.7z"/>
		<path d="M3313.7,2531.4c-26-11.2-34.2-33.9-21.2-58.3c23-44.2,92.7-14.2,77.1,32.6C3361.8,2528.4,3335,2540.4,3313.7,2531.4z"/>
	</g>
</g>
</svg>
