<?xml version="1.0" encoding="utf-8"?>
<!-- Generator: Adobe Illustrator 24.1.2, SVG Export Plug-In . SVG Version: 6.00 Build 0)  -->
<svg version="1.1" xmlns="http://www.w3.org/2000/svg" xmlns:xlink="http://www.w3.org/1999/xlink" x="0px" y="0px"
	 viewBox="0 0 512 512" style="enable-background:new 0 0 512 512;" xml:space="preserve">
<style type="text/css">
	.st0{fill:#00000D;}
	.st1{fill:#0A1A33;}
	.st2{fill:#FFFFFF;}
</style>
<g id="Layer_1">
	<g id="Layer_1_1_">
		<g id="Outline">
			<path class="st0" d="M256,16C158.3,16.7,79.5,96.4,80,194.1c0,62.7,28.8,132.3,85.6,206.9c25.5,33.5,54,64.7,85.1,93
				c3,2.6,7.5,2.6,10.5,0c31.2-28.3,59.6-59.5,85.1-93c56.8-74.5,85.6-144.2,85.6-206.9C432.5,96.4,353.7,16.7,256,16z M256,477.2
				c-28.2-26.3-160-156-160-283c0-24.2,5.4-47.2,15-67.8c13.4-28.7,35.2-52.8,62.1-69.1c24.2-14.7,52.6-23.1,82.9-23.1
				c88.4,0,160,71.6,160,160C416,321.2,284.2,450.9,256,477.2z"/>
			<path class="st1" d="M256,34.2c-30.3,0-58.7,8.4-82.9,23.1c-26.9,16.3-48.7,40.4-62.1,69.1c-9.6,20.6-15,43.6-15,67.8
				c0,127,131.8,256.7,160,283c28.2-26.3,160-156,160-283C416,105.8,344.4,34.2,256,34.2z M256,336c-79.5,0-144-64.5-144-144
				S176.5,48,256,48c79.5,0.1,143.9,64.5,144,144C400,271.5,335.5,336,256,336z"/>
			<path class="st0" d="M256,48c-79.5,0-144,64.5-144,144s64.5,144,144,144s144-64.5,144-144C399.9,112.5,335.5,48.1,256,48z
				 M383.8,198.5C383.8,198.5,383.8,198.6,383.8,198.5C380.4,264,328,316.4,262.6,319.8c0,0,0,0-0.1,0c-1.1,0.1-2.1,0.1-3.2,0.1
				s-2.2,0-3.3,0c-2.3,0-4.7-0.1-7-0.2c-0.4,0-0.8,0-1.3-0.1c-0.6,0-1.2-0.1-1.8-0.1c-1-0.1-2-0.2-3-0.3c-0.5,0-1.1-0.1-1.6-0.2
				s-1.1-0.1-1.6-0.2C176.8,311,128,257.2,128,192S176.8,73,239.8,65c0.5-0.1,1.1-0.1,1.6-0.2s1.1-0.1,1.6-0.2c1-0.1,2-0.2,3-0.3
				c0.6,0,1.2-0.1,1.8-0.1c0.4,0,0.8-0.1,1.3-0.1c1.3-0.1,2.6-0.1,4-0.2c0.3,0,0.7,0,1,0c0.7,0,1.3,0,2,0s1.4,0,2,0
				c1.4,0,2.7,0.1,4.1,0.1c0.7,0,1.3,0.1,2,0.1c1,0.1,1.9,0.1,2.9,0.2c0.9,0.1,1.9,0.2,2.8,0.3c1.9,0.2,3.7,0.5,5.6,0.7
				c0.6,0.1,1.1,0.2,1.7,0.3c1,0.2,2.1,0.4,3.1,0.5h0.1c29.2,5.6,54.8,21.2,73.3,43c2,2.4,3.9,4.8,5.8,7.4c0.3,0.4,0.6,0.8,0.9,1.3
				c0.4,0.6,0.9,1.3,1.3,1.9s0.9,1.3,1.3,1.9l0,0c0.6,0.9,1.1,1.7,1.6,2.6l0,0c0.8,1.2,1.5,2.4,2.2,3.7c0.1,0.1,0.1,0.2,0.2,0.3
				c0.3,0.5,0.6,1.1,0.9,1.6c1.1,2,2.2,4.1,3.2,6.2c0.3,0.5,0.5,1.1,0.8,1.6c2.1,4.4,3.9,8.9,5.4,13.6c0.1,0.4,0.3,0.8,0.4,1.2
				c0.8,2.5,1.5,5,2.2,7.6c0.1,0.4,0.2,0.8,0.3,1.3c0.4,1.7,0.8,3.4,1.1,5.1c0.1,0.4,0.2,0.8,0.2,1.2c0.3,1.3,0.5,2.7,0.7,4
				c0.1,0.7,0.2,1.4,0.3,2.1c0.1,0.7,0.2,1.3,0.3,2c0,0.1,0,0.2,0,0.3c0.1,0.7,0.2,1.3,0.2,2c0.1,1,0.2,2.1,0.3,3.1
				c0.1,0.6,0.1,1.1,0.1,1.7c0.1,0.8,0.1,1.5,0.1,2.3s0.1,1.6,0.1,2.5c0,0.6,0,1.2,0,1.9c0,0.9,0,1.8,0,2.6c0,1.1,0,2.2,0,3.3
				C383.9,196.4,383.9,197.4,383.8,198.5z"/>
		</g>
	</g>
	<ellipse class="st2" cx="256.1" cy="192" rx="127.9" ry="128"/>
</g>
<g id="Layer_2">
	<g transform="translate(0.000000,512.000000) scale(0.100000,-0.100000)">
		<path d="M2572.1,4251l-10.9-10.3l-1.2-169.4l-1.2-169.4l-252.1-163.4l-251.7-163.4h-214.4c-139.3,0-218.2-1.7-225.2-4.3
			c-21.4-9-26.8-29.2-12.8-48.9c7-9.9,10.9-11.1,31.1-11.1h23V3212c0.4-317.7-0.4-307,18.7-318.2c10.9-6.4,30,0.4,35.8,12.9
			c2.3,4.7,3.9,123.1,3.9,305.7v298.4H1919h203.8l1.6-60c1.6-71.6,3.5-75.9,39.3-80.2l22.2-2.6v-310v-310.4h-64.2h-64.2v127.8v128.2
			l-8.9,9c-8.9,9-12.1,9.4-98.8,9.4h-90.3l-7.8-11.1c-7.8-11.1-8.2-16.3-8.2-137.2v-126.1h-64.2h-64.2v23.2
			c0,29.6-10.1,45.5-29.2,45.5c-9.3,0-15.2-3-21-11.1c-7.8-10.7-8.2-16.7-8.2-102.9v-91.8h-21.4c-17.9,0-23.3-1.7-31.1-10.7
			c-11.7-12.4-12.4-27.4-2.3-41.2l7.4-10.3h981.1h981.1l7.4,10.3c10.1,13.7,9.3,28.7-2.3,41.2c-7.8,9-13.2,10.7-31.1,10.7h-21.4
			v366.2c0,363.6,0,365.8-8.2,377.3c-10.5,14.6-30,15.4-41.6,1.3l-8.6-9.9v-298.9v-298.9h-64.2h-64.2v126.1
			c0,120.9-0.4,126.1-8.2,137.2l-7.8,11.1h-90.6c-89.5,0-90.6,0-98.8-9.9c-8.6-9.9-8.6-12.4-8.6-137.2v-127.3h-64.2H2995v310.4v310
			l22.2,2.6c35.8,4.3,37.7,8.6,39.3,80.2l1.6,60h203.8h203.8V3486c0-20.6,1.6-26.6,8.9-34.3c12.8-13.3,31.1-12.4,41.2,1.7
			c5.8,8.6,8.2,17.6,8.2,34.3v23.2h23c20.2,0,24.1,1.3,31.1,11.1c14,19.7,8.6,39.9-12.8,48.9c-7,2.6-86,4.3-225.2,4.3h-214.4
			l-252.1,163.4L2621.5,3902v44.6v44.6h99.2c93,0,99.6,0.4,106.6,8.1c11.3,12.4,12.8,27.9,11.3,121.8l-1.2,85.3l-10.9,10.3
			l-10.9,10.3h-99.2c-94.9,0-98.8,0.4-98.8,8.1c0,9.9-17.5,26.2-27.6,26.2C2586.1,4261.3,2578,4256.6,2572.1,4251z M2781,4109.1
			v-53.6h-79.7h-79.8v53.6v53.6h79.8h79.7V4109.1z M2802.4,3710.3l205-132.9l-208.5-1.3c-114.8-0.4-302.3-0.4-417,0l-208.1,1.3
			l205.4,133.8c112.8,73.8,208.1,133.4,211.6,132.9C2594.7,3843.6,2689.6,3783.6,2802.4,3710.3z M2998.1,3473.6l1.2-35.6h-408.9
			h-408.5v33.4c0,18.4,1.2,35.2,2.7,36.4c1.2,1.7,184.8,2.6,407.3,2.1l405-1.3L2998.1,3473.6z M2310.3,3058.5v-310.9h-33.1h-33.1
			v310.9v310.9h33.1h33.1V3058.5z M2497.1,3281.5v-87.9l-63,0.9l-63.4,1.3l-1.2,87l-0.8,86.6h64.2h64.2V3281.5z M2624.7,3059.8
			l-1.2-310h-33.1h-33.1l-1.2,310l-0.8,309.6h35h35L2624.7,3059.8z M2811.4,3282.8l-1.2-87l-63-1.3l-63.4-0.9v87.9v87.9h64.2h64.2
			L2811.4,3282.8z M2936.7,3058.5v-310.9h-33.1h-33.1v310.9v310.9h33.1h33.1V3058.5z M2497.1,3075.7v-53.6l-63,0.9l-63.4,1.3
			l-1.2,52.7l-1.2,52.3h64.6h64.2V3075.7z M2811.4,3077l-1.2-52.7l-63-1.3l-63.4-0.9v53.6v53.6h64.2h64.6L2811.4,3077z
			 M1999.1,2852.7v-105.1h-48.6h-48.6v105.1v105.1h48.6h48.6V2852.7z M2497.1,2852.7v-105.1h-64.2h-64.2v105.1v105.1h64.2h64.2
			V2852.7z M2812.2,2852.7v-105.1H2748h-64.2v105.1v105.1h64.2h64.2V2852.7z M3279,2852.7v-105.1h-48.6h-48.6v105.1v105.1h48.6h48.6
			V2852.7z M2123.6,2646.9v-36.4h-204.2h-204.2v36.4v36.4h204.2h204.2V2646.9z M2998.9,2646.9v-36.4h-408.5h-408.5v36.4v36.4h408.5
			h408.5V2646.9z M3465.7,2646.9v-36.4h-204.2h-204.2v36.4v36.4h204.2h204.2V2646.9z"/>
		<path d="M1915.5,3394.3c-16.3-6.4-39.7-26.2-51-42.9c-16.7-24.9-21-50.2-21-126.1c0-67.7,0.4-70.3,9.3-81.9l9.3-12l81.7-1.3
			c90.3-1.3,107.4,1.7,111.6,21.9c1.6,5.6,1.9,44.6,1.2,87c-1.2,71.6-1.9,78-10.9,97.3c-10.9,24-29.6,43.7-52.1,54.9
			C1975.8,3400.3,1934.9,3401.6,1915.5,3394.3z M1975,3329.1c19.8-12,24.1-26.2,24.1-82.8v-52.7h-48.6h-48.6v49.3
			c0,54,3.5,67.3,21.8,83.2C1935.7,3336.4,1961,3338.1,1975,3329.1z"/>
		<path d="M3187.2,3391.7c-22.6-12-41.2-31.3-52.1-55.3c-8.9-19.3-9.7-25.7-10.9-97.3c-0.8-42.4-0.4-81.5,1.2-87
			c4.3-20.2,21.4-23.2,111.6-21.9l81.7,1.3l9.7,12.4c9.3,12.4,9.7,12.4,8.2,90c-1.2,68.2-2.3,80.2-9.3,97.3
			c-9.7,22.7-31.1,47.2-51.4,57.9C3254.5,3400.7,3207.4,3402,3187.2,3391.7z M3257.2,3326.1c18.3-15.9,21.8-29.2,21.8-83.2v-49.3
			h-48.6h-48.6v52.7c0,56.6,4.3,70.7,24.1,82.8C3219.9,3338.1,3245.1,3336.4,3257.2,3326.1z"/>
	</g>
</g>
</svg>
