<?xml version="1.0" encoding="utf-8"?>
<!-- Generator: Adobe Illustrator 24.1.2, SVG Export Plug-In . SVG Version: 6.00 Build 0)  -->
<svg version="1.1" xmlns="http://www.w3.org/2000/svg" xmlns:xlink="http://www.w3.org/1999/xlink" x="0px" y="0px"
	 viewBox="0 0 512 512" style="enable-background:new 0 0 512 512;" xml:space="preserve">
<style type="text/css">
	.st0{fill:#00000D;}
	.st1{fill:#0A1A33;}
	.st2{fill:#FFFFFF;}
</style>
<g id="Layer_1">
	<g id="Layer_1_2_">
		<g id="Layer_1_1_">
			<g id="Outline">
				<path class="st0" d="M256,16C158.3,16.7,79.5,96.4,80,194.1c0,62.7,28.8,132.3,85.6,206.9c25.5,33.5,54,64.7,85.1,93
					c3,2.6,7.5,2.6,10.5,0c31.2-28.3,59.6-59.5,85.1-93c56.8-74.5,85.6-144.2,85.6-206.9C432.5,96.4,353.7,16.7,256,16z M256,477.2
					c-28.2-26.3-160-156-160-283c0-24.2,5.4-47.2,15-67.8c13.4-28.7,35.2-52.8,62.1-69.1c24.2-14.7,52.6-23.1,82.9-23.1
					c88.4,0,160,71.6,160,160C416,321.2,284.2,450.9,256,477.2z"/>
				<path class="st1" d="M256,34.2c-30.3,0-58.7,8.4-82.9,23.1c-26.9,16.3-48.7,40.4-62.1,69.1c-9.6,20.6-15,43.6-15,67.8
					c0,127,131.8,256.7,160,283c28.2-26.3,160-156,160-283C416,105.8,344.4,34.2,256,34.2z M256,336c-79.5,0-144-64.5-144-144
					S176.5,48,256,48c79.5,0.1,143.9,64.5,144,144C400,271.5,335.5,336,256,336z"/>
				<path class="st0" d="M256,48c-79.5,0-144,64.5-144,144s64.5,144,144,144s144-64.5,144-144C399.9,112.5,335.5,48.1,256,48z
					 M383.8,198.5C383.8,198.5,383.8,198.6,383.8,198.5C380.4,264,328,316.4,262.6,319.8c0,0,0,0-0.1,0c-1.1,0.1-2.1,0.1-3.2,0.1
					s-2.2,0-3.3,0c-2.3,0-4.7-0.1-7-0.2c-0.4,0-0.8,0-1.3-0.1c-0.6,0-1.2-0.1-1.8-0.1c-1-0.1-2-0.2-3-0.3c-0.5,0-1.1-0.1-1.6-0.2
					s-1.1-0.1-1.6-0.2C176.8,311,128,257.2,128,192S176.8,73,239.8,65c0.5-0.1,1.1-0.1,1.6-0.2s1.1-0.1,1.6-0.2c1-0.1,2-0.2,3-0.3
					c0.6,0,1.2-0.1,1.8-0.1c0.4,0,0.8-0.1,1.3-0.1c1.3-0.1,2.6-0.1,4-0.2c0.3,0,0.7,0,1,0c0.7,0,1.3,0,2,0s1.4,0,2,0
					c1.4,0,2.7,0.1,4.1,0.1c0.7,0,1.3,0.1,2,0.1c1,0.1,1.9,0.1,2.9,0.2c0.9,0.1,1.9,0.2,2.8,0.3c1.9,0.2,3.7,0.5,5.6,0.7
					c0.6,0.1,1.1,0.2,1.7,0.3c1,0.2,2.1,0.4,3.1,0.5h0.1c29.2,5.6,54.8,21.2,73.3,43c2,2.4,3.9,4.8,5.8,7.4c0.3,0.4,0.6,0.8,0.9,1.3
					c0.4,0.6,0.9,1.3,1.3,1.9s0.9,1.3,1.3,1.9l0,0c0.6,0.9,1.1,1.7,1.6,2.6l0,0c0.8,1.2,1.5,2.4,2.2,3.7c0.1,0.1,0.1,0.2,0.2,0.3
					c0.3,0.5,0.6,1.1,0.9,1.6c1.1,2,2.2,4.1,3.2,6.2c0.3,0.5,0.5,1.1,0.8,1.6c2.1,4.4,3.9,8.9,5.4,13.6c0.1,0.4,0.3,0.8,0.4,1.2
					c0.8,2.5,1.5,5,2.2,7.6c0.1,0.4,0.2,0.8,0.3,1.3c0.4,1.7,0.8,3.4,1.1,5.1c0.1,0.4,0.2,0.8,0.2,1.2c0.3,1.3,0.5,2.7,0.7,4
					c0.1,0.7,0.2,1.4,0.3,2.1c0.1,0.7,0.2,1.3,0.3,2c0,0.1,0,0.2,0,0.3c0.1,0.7,0.2,1.3,0.2,2c0.1,1,0.2,2.1,0.3,3.1
					c0.1,0.6,0.1,1.1,0.1,1.7c0.1,0.8,0.1,1.5,0.1,2.3s0.1,1.6,0.1,2.5c0,0.6,0,1.2,0,1.9c0,0.9,0,1.8,0,2.6c0,1.1,0,2.2,0,3.3
					C383.9,196.4,383.9,197.4,383.8,198.5z"/>
			</g>
		</g>
		<ellipse class="st2" cx="256.1" cy="192" rx="127.9" ry="128"/>
	</g>
	<g id="Layer_2_1_">
	</g>
</g>
<g id="Layer_2">
	<g transform="translate(0.000000,512.000000) scale(0.100000,-0.100000)">
		<path d="M2570.2,4332.5c-19-10.1-19.3-14.3-19.7-148.8v-126.3l-31.7-4.1c-56.1-7.5-117.6-31.6-175.3-68.4
			c-33.7-21.4-87.8-73.7-108.3-104.5l-15.5-23.3l-244.9-0.4c-265.8,0-261.2,0.4-270.8-20.7c-3.5-7.1-4.6-51.5-4.6-159.7v-150.3
			h-34.8c-39.5,0-53.8-4.9-61.1-20.7c-6.6-14.3-6.6-1056.9,0-1071.1c10.4-22.2-58.8-20.7,985.8-20.7c1026.1,0,976.9-0.8,984.3,16.9
			c3.1,8.3,3.1,1070.4,0,1078.7c-4.6,11.7-22.8,16.9-59.6,16.9H3479v150.3c0,108.2-1.2,152.6-4.6,159.7c-9.7,21-5,20.7-270.8,20.7
			h-244.9l-11.6,18c-58.8,90.2-187.6,168.8-295.2,179.7l-24,2.6v27.4v27.4l114.5,1.1l114.5,1.1l9.3,10.5
			c9.3,10.5,9.3,10.9,9.3,100.3s0,89.8-9.3,100.3l-9.3,10.5l-138.9,0.8C2607.7,4337.4,2577.5,4336.6,2570.2,4332.5z M2798.1,4225
			v-37.6h-85.1h-85.1v37.6v37.6h85.1h85.1V4225z M2683.9,3971.3c87.8-24.8,158.6-76.3,207.4-151.8c22.8-35,43.3-88.3,48.4-123.3
			l2.7-19.9h-352.9h-352.5v10.9c0,17.3,18.6,75.2,34,105.2c43.3,86.4,124.6,151.5,222.5,178.9c38.7,10.9,57.3,12.8,107.2,11.3
			C2638.7,3981.8,2656.8,3979.2,2683.9,3971.3z M2179,3778.5c0-1.5-3.5-14.3-7.7-28.9c-4.3-14.3-8.9-36.8-10.1-49.6l-2.7-23.7
			h-138.9c-116.5,0-140.8-0.8-150.1-5.6c-22.4-11.3-23.6-21.4-10.1-94.7l8.9-50h-45.7h-46v127.8v127.8h201.2
			C2088.5,3781.5,2179,3780.4,2179,3778.5z M3401.6,3653.7v-127.8h-46.8c-42.6,0-46.4,0.8-44.5,6.8c4.3,14.7,17.8,95.5,17.8,107.5
			c0,8.3-3.5,16.9-9.3,23.7l-9.3,10.5l-145.5,1.1l-145.5,1.1v12.4c0,6.8-4.3,29.3-9.7,49.6s-9.7,38.3-9.7,39.8c0,1.9,90.5,3,201.2,3
			h201.2V3653.7z M3243,3596.6c0-2.6-2.7-19.2-5.8-36.8s-5.8-32.3-5.8-32.7c0-0.8-289-1.1-642.3-1.1s-642.3,0.4-642.3,1.1
			c0,0.4-2.7,15-5.8,32.7s-5.8,34.2-5.8,36.8c0,3.4,133.5,4.5,653.9,4.5S3243,3600,3243,3596.6z M1977.8,3120v-330.7h-7.7
			c-4.6,0-13.2-2.6-19.3-5.6c-12.4-6.4-17-16.2-42.6-94.7l-15.9-50h-29.8c-48,0-49.1-1.1-78.2-82.3l-24-68h-42.2H1676v481.1v481.1
			h150.9h150.9V3120z M2225.4,3120v-330.7h-85.1h-85.1V3120v330.7h85.1h85.1V3120z M2875.4,3120v-330.7h-123.8h-123.8v184.2
			c0,134.5-1.2,186.4-4.6,193.6c-8.1,17.7-31.7,25.2-51.5,16.2c-21.3-9.4-21.3-9.4-21.3-209.7v-184.2h-123.8h-123.8V3120v330.7
			h286.3h286.3V3120z M3123.1,3120v-330.7h-85.1h-85.1V3120v330.7h85.1h85.1V3120z M3502.2,2969.7v-481.1h-42.2h-42.2l-24,68
			c-29,81.2-30.2,82.3-78.2,82.3H3286l-21.3,65.4c-18.2,55.2-23.6,66.9-33.7,75.2c-6.6,5.3-15.9,9.8-21.3,9.8h-9.3V3120v330.7h150.9
			h150.9V2969.7z M3190.4,2681.4c6.2-18.4,12-35.3,12.8-37.6c1.5-3.8-122.6-4.9-614-4.9c-543.6,0-615.6,0.8-613.6,5.6
			c1.2,3,6.6,19.9,12.4,37.6l10.1,31.9h590.8h590.8L3190.4,2681.4z M3322.7,2526.2c7.4-19.5,13.2-36.1,13.2-36.5
			c0-0.8-335.8-1.1-746.7-1.1s-746.7,0.8-746.7,1.5c0,1.1,5.4,15.8,11.6,33.1c6.6,17.3,12.8,33.4,13.5,36.1
			c1.2,3.8,147.8,4.5,722,3.8l720-1.1L3322.7,2526.2z"/>
		<path d="M1813,3345.9c-4.6-1.9-12-8.3-16.6-13.9c-8.1-10.1-8.5-12.8-7.4-102.2l1.2-91.7l10.8-9c7.4-6,15.5-9,25.9-9s18.6,3,25.9,9
			l10.8,9l1.2,92.1l1.2,92.5l-10.8,11.3C1843.6,3346.3,1826.2,3351.2,1813,3345.9z"/>
		<path d="M1816.5,3034.7c-4.6-0.8-13.2-6.8-18.6-13.2l-10.1-11.7l1.2-91.7l1.2-92.1l10.8-9c7.4-6,15.5-9,25.9-9s18.6,3,25.9,9
			l10.8,9l1.2,92.1l1.2,92.5l-10.8,10.9C1844,3033.2,1831.6,3037.4,1816.5,3034.7z"/>
		<path d="M2570.2,3351.6c-33.7-18-19.3-69.9,19-69.9c19.7,0,38.7,18.4,38.7,37.2C2627.8,3347,2595.7,3365.5,2570.2,3351.6z"/>
		<path d="M3337.4,3345.9c-4.6-1.9-12-8.3-16.6-13.9c-8.1-10.1-8.5-12.8-7.4-102.2l1.2-91.7l10.8-9c7.4-6,15.5-9,25.9-9
			c10.4,0,18.6,3,25.9,9l10.8,9l1.2,92.1l1.2,92.5l-10.8,11.3C3368,3346.3,3350.6,3351.2,3337.4,3345.9z"/>
		<path d="M3340.9,3034.7c-4.6-0.8-13.2-6.8-18.6-13.2l-10.1-11.7l1.2-91.7l1.2-92.1l10.8-9c7.4-6,15.5-9,25.9-9
			c10.4,0,18.6,3,25.9,9l10.8,9l1.2,92.1l1.2,92.5l-10.8,10.9C3368.4,3033.2,3356,3037.4,3340.9,3034.7z"/>
	</g>
</g>
</svg>
