<?xml version="1.0" encoding="utf-8"?>
<!-- Generator: Adobe Illustrator 24.1.2, SVG Export Plug-In . SVG Version: 6.00 Build 0)  -->
<svg version="1.1" xmlns="http://www.w3.org/2000/svg" xmlns:xlink="http://www.w3.org/1999/xlink" x="0px" y="0px"
	 viewBox="0 0 512 512" style="enable-background:new 0 0 512 512;" xml:space="preserve">
<style type="text/css">
	.st0{fill:#00000D;}
	.st1{fill:#0A1A33;}
	.st2{fill:#FFFFFF;}
</style>
<g id="Layer_1">
	<g id="Layer_1_3_">
		<g id="Layer_1_2_">
			<g id="Layer_1_1_">
				<g id="Outline">
					<path class="st0" d="M256,16C158.3,16.7,79.5,96.4,80,194.1c0,62.7,28.8,132.3,85.6,206.9c25.5,33.5,54,64.7,85.1,93
						c3,2.6,7.5,2.6,10.5,0c31.2-28.3,59.6-59.5,85.1-93c56.8-74.5,85.6-144.2,85.6-206.9C432.5,96.4,353.7,16.7,256,16z M256,477.2
						c-28.2-26.3-160-156-160-283c0-24.2,5.4-47.2,15-67.8c13.4-28.7,35.2-52.8,62.1-69.1c24.2-14.7,52.6-23.1,82.9-23.1
						c88.4,0,160,71.6,160,160C416,321.2,284.2,450.9,256,477.2z"/>
					<path class="st1" d="M256,34.2c-30.3,0-58.7,8.4-82.9,23.1c-26.9,16.3-48.7,40.4-62.1,69.1c-9.6,20.6-15,43.6-15,67.8
						c0,127,131.8,256.7,160,283c28.2-26.3,160-156,160-283C416,105.8,344.4,34.2,256,34.2z M256,336c-79.5,0-144-64.5-144-144
						S176.5,48,256,48c79.5,0.1,143.9,64.5,144,144C400,271.5,335.5,336,256,336z"/>
					<path class="st0" d="M256,48c-79.5,0-144,64.5-144,144s64.5,144,144,144s144-64.5,144-144C399.9,112.5,335.5,48.1,256,48z
						 M383.8,198.5C383.8,198.5,383.8,198.6,383.8,198.5C380.4,264,328,316.4,262.6,319.8c0,0,0,0-0.1,0c-1.1,0.1-2.1,0.1-3.2,0.1
						s-2.2,0-3.3,0c-2.3,0-4.7-0.1-7-0.2c-0.4,0-0.8,0-1.3-0.1c-0.6,0-1.2-0.1-1.8-0.1c-1-0.1-2-0.2-3-0.3c-0.5,0-1.1-0.1-1.6-0.2
						s-1.1-0.1-1.6-0.2C176.8,311,128,257.2,128,192S176.8,73,239.8,65c0.5-0.1,1.1-0.1,1.6-0.2s1.1-0.1,1.6-0.2c1-0.1,2-0.2,3-0.3
						c0.6,0,1.2-0.1,1.8-0.1c0.4,0,0.8-0.1,1.3-0.1c1.3-0.1,2.6-0.1,4-0.2c0.3,0,0.7,0,1,0c0.7,0,1.3,0,2,0s1.4,0,2,0
						c1.4,0,2.7,0.1,4.1,0.1c0.7,0,1.3,0.1,2,0.1c1,0.1,1.9,0.1,2.9,0.2c0.9,0.1,1.9,0.2,2.8,0.3c1.9,0.2,3.7,0.5,5.6,0.7
						c0.6,0.1,1.1,0.2,1.7,0.3c1,0.2,2.1,0.4,3.1,0.5h0.1c29.2,5.6,54.8,21.2,73.3,43c2,2.4,3.9,4.8,5.8,7.4
						c0.3,0.4,0.6,0.8,0.9,1.3c0.4,0.6,0.9,1.3,1.3,1.9s0.9,1.3,1.3,1.9l0,0c0.6,0.9,1.1,1.7,1.6,2.6l0,0c0.8,1.2,1.5,2.4,2.2,3.7
						c0.1,0.1,0.1,0.2,0.2,0.3c0.3,0.5,0.6,1.1,0.9,1.6c1.1,2,2.2,4.1,3.2,6.2c0.3,0.5,0.5,1.1,0.8,1.6c2.1,4.4,3.9,8.9,5.4,13.6
						c0.1,0.4,0.3,0.8,0.4,1.2c0.8,2.5,1.5,5,2.2,7.6c0.1,0.4,0.2,0.8,0.3,1.3c0.4,1.7,0.8,3.4,1.1,5.1c0.1,0.4,0.2,0.8,0.2,1.2
						c0.3,1.3,0.5,2.7,0.7,4c0.1,0.7,0.2,1.4,0.3,2.1c0.1,0.7,0.2,1.3,0.3,2c0,0.1,0,0.2,0,0.3c0.1,0.7,0.2,1.3,0.2,2
						c0.1,1,0.2,2.1,0.3,3.1c0.1,0.6,0.1,1.1,0.1,1.7c0.1,0.8,0.1,1.5,0.1,2.3s0.1,1.6,0.1,2.5c0,0.6,0,1.2,0,1.9c0,0.9,0,1.8,0,2.6
						c0,1.1,0,2.2,0,3.3C383.9,196.4,383.9,197.4,383.8,198.5z"/>
				</g>
			</g>
			<ellipse class="st2" cx="256.1" cy="192" rx="127.9" ry="128"/>
		</g>
		<g id="Layer_2_1_">
		</g>
	</g>
	<g id="Layer_2_2_">
	</g>
</g>
<g id="Layer_2">
	<g id="Compass">
		<path d="M325.9,112.5c-10.3,0-19,7.4-20.5,17.5h-35.8v5.8h35.5v113.5c0,1.6,1.3,2.9,3,2.9c1.6,0,3-1.3,3-2.9
			c0-8,6.6-14.6,14.8-14.6s14.8,6.5,14.8,14.6v0.6c0,7.7-6.4,13.9-14.2,13.9H174.9v-60.2c13.7,26.2,41.1,42.6,71,42.7
			c1.6,0,3-1.3,3-2.9s-1.3-2.9-3-2.9c-11.1,0-22.1-2.5-32.1-7.3l1.8-6.7c3.8-0.2,6.9-2.8,7.9-6.4l9.7-35.7c2.2,0.4,4.4,0.7,6.7,0.8
			v3c0,1.6,1.3,2.9,3,2.9s3-1.3,3-2.9v-3c2.2-0.1,4.5-0.4,6.7-0.8l9.7,35.7c0.9,3.6,4.1,6.2,7.9,6.4l2.4,9c0.3,1.3,1.5,2.2,2.9,2.2
			c0.3,0,0.5,0,0.8-0.1c1.6-0.4,2.5-2,2.1-3.6c0,0,0,0,0,0l-2.4-9c3.1-2.1,4.5-5.9,3.6-9.4l-19.4-71.3c6.4-9.2,4.1-21.8-5.3-28.2
			v-9.5c0-6.4-5.3-11.6-11.8-11.6c-6.5,0-11.8,5.2-11.8,11.6v9.5c-9.3,6.4-11.7,19-5.3,28.2l-19.4,71.3c-0.9,3.6,0.5,7.3,3.6,9.4
			l-1.5,5.4c-16.3-9.4-28.3-24.5-33.6-42.4v-52.3h41.4V130H169v139.7h157.5c11.1,0,20.1-8.9,20.1-19.8v-117
			C346.6,121.6,337.3,112.5,325.9,112.5z M246,179.3v-2.7c0-1.6-1.3-2.9-3-2.9s-3,1.3-3,2.9v2.7c-1.7-0.1-3.4-0.3-5.1-0.6l7-25.5
			c0.4,0,0.8,0.1,1.1,0.1c0.4,0,0.8,0,1.1-0.1l7,25.5C249.4,179,247.7,179.2,246,179.3z M273.8,217.1c0.4,1.5-0.5,3.1-2.1,3.6l0,0h0
			c-0.8,0.2-1.6,0.1-2.2-0.3c-0.7-0.4-1.2-1-1.4-1.8L250,152.1c1.9-0.7,3.7-1.6,5.3-2.8L273.8,217.1z M237.1,106.7
			c0-3.2,2.7-5.8,5.9-5.8c3.3,0,5.9,2.6,5.9,5.8v6.7c-3.9-1.1-8-1.1-11.8,0V106.7z M243,118.3c8.2,0,14.8,6.5,14.8,14.6
			s-6.6,14.6-14.8,14.6s-14.8-6.5-14.8-14.6C228.2,124.9,234.8,118.3,243,118.3z M212.2,217.1l18.5-67.9c1.6,1.2,3.4,2.1,5.3,2.8
			l-18.2,66.6c-0.4,1.5-2,2.4-3.6,2.1h0l0,0C212.7,220.3,211.8,218.7,212.2,217.1z M340.7,235.1c-8-8-21.1-8.2-29.3-0.3
			c-0.1,0.1-0.2,0.2-0.3,0.3V132.9c0-8,6.6-14.6,14.8-14.6s14.8,6.5,14.8,14.6V235.1z"/>
		<path d="M243,141.6c4.9,0,8.9-3.9,8.9-8.7c0-4.8-4-8.7-8.9-8.7c-4.9,0-8.9,3.9-8.9,8.7C234.1,137.7,238.1,141.6,243,141.6z
			 M243,130c1.6,0,3,1.3,3,2.9c0,1.6-1.3,2.9-3,2.9s-3-1.3-3-2.9C240,131.3,241.4,130,243,130z"/>
	</g>
</g>
</svg>
