<?xml version="1.0" encoding="utf-8"?>
<!-- Generator: Adobe Illustrator 24.1.2, SVG Export Plug-In . SVG Version: 6.00 Build 0)  -->
<svg version="1.1" xmlns="http://www.w3.org/2000/svg" xmlns:xlink="http://www.w3.org/1999/xlink" x="0px" y="0px"
	 viewBox="0 0 512 512" style="enable-background:new 0 0 512 512;" xml:space="preserve">
<style type="text/css">
	.st0{fill:#00000D;}
	.st1{fill:#0A1A33;}
	.st2{fill:#FFFFFF;}
</style>
<g id="Layer_1">
	<g id="Layer_1_2_">
		<g id="Layer_1_1_">
			<g id="Outline">
				<path class="st0" d="M256,16C158.3,16.7,79.5,96.4,80,194.1c0,62.7,28.8,132.3,85.6,206.9c25.5,33.5,54,64.7,85.1,93
					c3,2.6,7.5,2.6,10.5,0c31.2-28.3,59.6-59.5,85.1-93c56.8-74.5,85.6-144.2,85.6-206.9C432.5,96.4,353.7,16.7,256,16z M256,477.2
					c-28.2-26.3-160-156-160-283c0-24.2,5.4-47.2,15-67.8c13.4-28.7,35.2-52.8,62.1-69.1c24.2-14.7,52.6-23.1,82.9-23.1
					c88.4,0,160,71.6,160,160C416,321.2,284.2,450.9,256,477.2z"/>
				<path class="st1" d="M256,34.2c-30.3,0-58.7,8.4-82.9,23.1c-26.9,16.3-48.7,40.4-62.1,69.1c-9.6,20.6-15,43.6-15,67.8
					c0,127,131.8,256.7,160,283c28.2-26.3,160-156,160-283C416,105.8,344.4,34.2,256,34.2z M256,336c-79.5,0-144-64.5-144-144
					S176.5,48,256,48c79.5,0.1,143.9,64.5,144,144C400,271.5,335.5,336,256,336z"/>
				<path class="st0" d="M256,48c-79.5,0-144,64.5-144,144s64.5,144,144,144s144-64.5,144-144C399.9,112.5,335.5,48.1,256,48z
					 M383.8,198.5C383.8,198.5,383.8,198.6,383.8,198.5C380.4,264,328,316.4,262.6,319.8c0,0,0,0-0.1,0c-1.1,0.1-2.1,0.1-3.2,0.1
					s-2.2,0-3.3,0c-2.3,0-4.7-0.1-7-0.2c-0.4,0-0.8,0-1.3-0.1c-0.6,0-1.2-0.1-1.8-0.1c-1-0.1-2-0.2-3-0.3c-0.5,0-1.1-0.1-1.6-0.2
					s-1.1-0.1-1.6-0.2C176.8,311,128,257.2,128,192S176.8,73,239.8,65c0.5-0.1,1.1-0.1,1.6-0.2s1.1-0.1,1.6-0.2c1-0.1,2-0.2,3-0.3
					c0.6,0,1.2-0.1,1.8-0.1c0.4,0,0.8-0.1,1.3-0.1c1.3-0.1,2.6-0.1,4-0.2c0.3,0,0.7,0,1,0c0.7,0,1.3,0,2,0s1.4,0,2,0
					c1.4,0,2.7,0.1,4.1,0.1c0.7,0,1.3,0.1,2,0.1c1,0.1,1.9,0.1,2.9,0.2c0.9,0.1,1.9,0.2,2.8,0.3c1.9,0.2,3.7,0.5,5.6,0.7
					c0.6,0.1,1.1,0.2,1.7,0.3c1,0.2,2.1,0.4,3.1,0.5h0.1c29.2,5.6,54.8,21.2,73.3,43c2,2.4,3.9,4.8,5.8,7.4c0.3,0.4,0.6,0.8,0.9,1.3
					c0.4,0.6,0.9,1.3,1.3,1.9s0.9,1.3,1.3,1.9l0,0c0.6,0.9,1.1,1.7,1.6,2.6l0,0c0.8,1.2,1.5,2.4,2.2,3.7c0.1,0.1,0.1,0.2,0.2,0.3
					c0.3,0.5,0.6,1.1,0.9,1.6c1.1,2,2.2,4.1,3.2,6.2c0.3,0.5,0.5,1.1,0.8,1.6c2.1,4.4,3.9,8.9,5.4,13.6c0.1,0.4,0.3,0.8,0.4,1.2
					c0.8,2.5,1.5,5,2.2,7.6c0.1,0.4,0.2,0.8,0.3,1.3c0.4,1.7,0.8,3.4,1.1,5.1c0.1,0.4,0.2,0.8,0.2,1.2c0.3,1.3,0.5,2.7,0.7,4
					c0.1,0.7,0.2,1.4,0.3,2.1c0.1,0.7,0.2,1.3,0.3,2c0,0.1,0,0.2,0,0.3c0.1,0.7,0.2,1.3,0.2,2c0.1,1,0.2,2.1,0.3,3.1
					c0.1,0.6,0.1,1.1,0.1,1.7c0.1,0.8,0.1,1.5,0.1,2.3s0.1,1.6,0.1,2.5c0,0.6,0,1.2,0,1.9c0,0.9,0,1.8,0,2.6c0,1.1,0,2.2,0,3.3
					C383.9,196.4,383.9,197.4,383.8,198.5z"/>
			</g>
		</g>
		<ellipse class="st2" cx="256.1" cy="192" rx="127.9" ry="128"/>
	</g>
	<g id="Layer_2_1_">
	</g>
</g>
<g id="Layer_2">
	<g transform="translate(0.000000,512.000000) scale(0.100000,-0.100000)">
		<path d="M2553.5,4316.6c-7.9-4.6-202.8-112.5-433.4-240.2c-230.5-127.7-425.1-236-432.3-241c-14.7-9.5-18.3-20.5-11.1-36.1
			c3.2-7.2,8.6-11,17.3-12.9l12.6-2.3v-55.1c0-63.8,4.3-77.2,30.6-96.9l16.2-12.2v-64.6c0-55.1,1.1-67.3,6.8-80.6
			c7.9-18.6,27.3-36.1,46-41.8l13.7-4.2v-339.4v-339.8l-11.1-2.3c-17.3-3.8-33.1-15.6-43.9-32.3c-9.7-15.2-9.7-16-10.8-86.7
			l-1.4-71.1l-9.4-5.3c-12.2-6.8-23.4-19.4-30.9-35.3c-4.7-9.5-5.8-23.9-5.8-66.5c0-30,1.4-56.2,2.9-58.5s6.1-6.1,10.4-8.7
			c11.1-6.1,1695.7-6.1,1706.9,0c4.3,2.7,9,6.5,10.4,8.7c1.4,2.3,2.9,28.5,2.9,58.5c0,42.6-1.1,57-5.8,66.5
			c-7.6,16-18.7,28.5-30.9,35.3l-10.1,5.7v63.5c0,35-1.8,69.9-4,77.9c-5.4,20.5-27,42.2-47.5,47.9l-16.9,4.2l0.7,339l1.1,338.6
			l13.7,4.2c18.7,5.7,38.1,23.2,46,41.8c5.8,13.3,6.8,25.5,6.8,80.6v64.6l16.2,12.2c26.3,19.8,30.6,32.7,30.6,97.7v55.1h10.4
			c7.2,0,12.9,3.4,18,9.9c9.4,12.5,9.4,20.9,1.1,31.2c-6.8,8.7-881.5,495.2-893.7,497.1C2571.4,4323.9,2561.4,4320.8,2553.5,4316.6z
			 M2942.2,4063.9c201.4-111.7,367.9-205.2,369.7-207.1c2.2-1.9-280.2-3.4-738.7-3.4c-461.4,0-740.9,1.5-738.7,3.4
			c4.3,4.9,732.2,410.1,737.3,410.5C2573.6,4267.6,2740.5,4176,2942.2,4063.9z M3384.6,3792.2c5.8-6.8,7.2-15.2,7.9-51.7
			c1.4-48.3-1.8-62.3-15.8-69.2c-12.6-6.1-1594-6.1-1606.6,0c-13.7,6.5-16.9,19.4-16.9,65.7c0,37.6,1.1,44.5,7.6,53.2l7.2,9.9h804.9
			h804.9L3384.6,3792.2z M2091.3,3596.8v-20.9h-143.9h-143.9v20.9v20.9h143.9h143.9V3596.8z M2379,3554.2c0-54.3,1.1-66.1,6.8-79.4
			c7.9-18.6,27.3-36.1,46-41.8l13.7-4.2v-339.4v-339.8l-11.1-2.7c-20.1-4.2-36.3-17.9-46-38.4c-9-18.6-9.4-22.8-9.4-81.7V2565
			h-118.7h-118.7v61.9c0,58.9-0.4,63.1-9.4,81.7c-9.7,20.5-25.9,34.2-46,38.4l-11.1,2.7v339.8v339.4l13.7,4.2
			c18.7,5.7,38.1,23.2,46,41.8c5.8,13.3,6.8,25.1,6.8,79.4v63.5h118.7H2379V3554.2z M2717.1,3596.8v-20.9h-143.9h-143.9v20.9v20.9
			h143.9h143.9V3596.8z M3004.8,3554.2c0-54.3,1.1-66.1,6.8-79.4c7.9-18.6,27.3-36.1,46-41.8l13.7-4.2v-339.4v-339.8l-11.1-2.7
			c-20.1-4.2-36.3-17.9-46-38.4c-9-18.6-9.4-22.8-9.4-81.7V2565h-118.7h-118.7v61.9c0,58.9-0.4,63.1-9.4,81.7
			c-9.7,20.5-25.9,34.2-46,38.4l-11.1,2.7v339.8v339.4l13.7,4.2c18.7,5.7,38.1,23.2,46,41.8c5.8,13.3,6.8,25.1,6.8,79.4v63.5h118.7
			h118.7V3554.2z M3342.9,3596.8v-20.9H3199h-143.9v20.9v20.9H3199h143.9V3596.8z M2091.3,3510.2c0-6.8-2.2-16-5-20.1
			c-5-6.8-11.1-7.2-134.1-8.4c-146.7-0.8-146-1.1-147.8,25.1l-1.1,16h143.9h144.2V3510.2z M2716.4,3506.7
			c-1.8-25.8-1.4-25.8-143.1-25.8s-141.3,0-143.1,25.8l-1.1,16h144.2h144.2L2716.4,3506.7z M3342.9,3507.9c0-27.4,1.4-27-143.9-27
			c-145.3,0-143.9-0.4-143.9,27v14.8H3199h143.9V3507.9z M1970.1,3428.8l56.5-2.3v-337.9v-337.5h-79.1h-79.1v337.5
			c0,185.8,1.1,339,2.5,340.1C1873.7,3432.2,1897.8,3432.2,1970.1,3428.8z M2651.7,3090.6l0.7-339.4h-79.1h-79.1v337.5
			c0,185.8,1.1,339,2.5,340.5c1.4,1.1,36.7,1.9,78,1.5l75.9-1.1L2651.7,3090.6z M3277.4,3090.6l0.7-339.4H3199h-79.1v337.5
			c0,185.8,1.1,339,2.5,340.5c1.4,1.1,36.7,1.9,78,1.5l75.9-1.1L3277.4,3090.6z M2083.4,2691.9c5.8-4.2,7.9-9.5,7.9-20.9v-14.8
			h-143.9h-143.9v14.8c0,27.4-1.4,27,143.9,27C2057.5,2698,2076.6,2697.2,2083.4,2691.9z M2709.2,2691.9c5.8-4.2,7.9-9.5,7.9-20.9
			v-14.8h-143.9h-143.9v14.1c0,28.5-4,27.7,141.7,27.7C2682.9,2698,2702.4,2697.2,2709.2,2691.9z M3335,2691.9
			c5.8-4.2,7.9-9.5,7.9-20.9v-14.8H3199h-143.9v14.8c0,27.4-1.4,27,143.9,27C3309.1,2698,3328.2,2697.2,3335,2691.9z M2091.3,2584
			v-19h-143.9h-143.9v19v19h143.9h143.9V2584z M2717.1,2584v-19h-143.9h-143.9v19v19h143.9h143.9V2584z M3342.9,2584v-19H3199
			h-143.9v19v19H3199h143.9V2584z M3374.2,2508c14.4-5.3,19.1-17.5,19.1-49.4v-26.6h-820h-820v26.6c0,30.8,4.7,44.1,17.6,49
			C1784.5,2512.9,3359.8,2512.9,3374.2,2508z"/>
	</g>
</g>
</svg>
