<?xml version="1.0" encoding="utf-8"?>
<!-- Generator: Adobe Illustrator 24.1.2, SVG Export Plug-In . SVG Version: 6.00 Build 0)  -->
<svg version="1.1" xmlns="http://www.w3.org/2000/svg" xmlns:xlink="http://www.w3.org/1999/xlink" x="0px" y="0px"
	 viewBox="0 0 512 512" style="enable-background:new 0 0 512 512;" xml:space="preserve">
<style type="text/css">
	.st0{fill:#00000D;}
	.st1{fill:#0A1A33;}
	.st2{fill:#FFFFFF;}
</style>
<g id="Layer_1">
	<g id="Layer_1_1_">
		<g id="Outline">
			<path class="st0" d="M256,16C158.3,16.7,79.5,96.4,80,194.1c0,62.7,28.8,132.3,85.6,206.9c25.5,33.5,54,64.7,85.1,93
				c3,2.6,7.5,2.6,10.5,0c31.2-28.3,59.6-59.5,85.1-93c56.8-74.5,85.6-144.2,85.6-206.9C432.5,96.4,353.7,16.7,256,16z M256,477.2
				c-28.2-26.3-160-156-160-283c0-24.2,5.4-47.2,15-67.8c13.4-28.7,35.2-52.8,62.1-69.1c24.2-14.7,52.6-23.1,82.9-23.1
				c88.4,0,160,71.6,160,160C416,321.2,284.2,450.9,256,477.2z"/>
			<path class="st1" d="M256,34.2c-30.3,0-58.7,8.4-82.9,23.1c-26.9,16.3-48.7,40.4-62.1,69.1c-9.6,20.6-15,43.6-15,67.8
				c0,127,131.8,256.7,160,283c28.2-26.3,160-156,160-283C416,105.8,344.4,34.2,256,34.2z M256,336c-79.5,0-144-64.5-144-144
				S176.5,48,256,48c79.5,0.1,143.9,64.5,144,144C400,271.5,335.5,336,256,336z"/>
			<path class="st0" d="M256,48c-79.5,0-144,64.5-144,144s64.5,144,144,144s144-64.5,144-144C399.9,112.5,335.5,48.1,256,48z
				 M383.8,198.5C383.8,198.5,383.8,198.6,383.8,198.5C380.4,264,328,316.4,262.6,319.8c0,0,0,0-0.1,0c-1.1,0.1-2.1,0.1-3.2,0.1
				s-2.2,0-3.3,0c-2.3,0-4.7-0.1-7-0.2c-0.4,0-0.8,0-1.3-0.1c-0.6,0-1.2-0.1-1.8-0.1c-1-0.1-2-0.2-3-0.3c-0.5,0-1.1-0.1-1.6-0.2
				s-1.1-0.1-1.6-0.2C176.8,311,128,257.2,128,192S176.8,73,239.8,65c0.5-0.1,1.1-0.1,1.6-0.2s1.1-0.1,1.6-0.2c1-0.1,2-0.2,3-0.3
				c0.6,0,1.2-0.1,1.8-0.1c0.4,0,0.8-0.1,1.3-0.1c1.3-0.1,2.6-0.1,4-0.2c0.3,0,0.7,0,1,0c0.7,0,1.3,0,2,0s1.4,0,2,0
				c1.4,0,2.7,0.1,4.1,0.1c0.7,0,1.3,0.1,2,0.1c1,0.1,1.9,0.1,2.9,0.2c0.9,0.1,1.9,0.2,2.8,0.3c1.9,0.2,3.7,0.5,5.6,0.7
				c0.6,0.1,1.1,0.2,1.7,0.3c1,0.2,2.1,0.4,3.1,0.5h0.1c29.2,5.6,54.8,21.2,73.3,43c2,2.4,3.9,4.8,5.8,7.4c0.3,0.4,0.6,0.8,0.9,1.3
				c0.4,0.6,0.9,1.3,1.3,1.9s0.9,1.3,1.3,1.9l0,0c0.6,0.9,1.1,1.7,1.6,2.6l0,0c0.8,1.2,1.5,2.4,2.2,3.7c0.1,0.1,0.1,0.2,0.2,0.3
				c0.3,0.5,0.6,1.1,0.9,1.6c1.1,2,2.2,4.1,3.2,6.2c0.3,0.5,0.5,1.1,0.8,1.6c2.1,4.4,3.9,8.9,5.4,13.6c0.1,0.4,0.3,0.8,0.4,1.2
				c0.8,2.5,1.5,5,2.2,7.6c0.1,0.4,0.2,0.8,0.3,1.3c0.4,1.7,0.8,3.4,1.1,5.1c0.1,0.4,0.2,0.8,0.2,1.2c0.3,1.3,0.5,2.7,0.7,4
				c0.1,0.7,0.2,1.4,0.3,2.1c0.1,0.7,0.2,1.3,0.3,2c0,0.1,0,0.2,0,0.3c0.1,0.7,0.2,1.3,0.2,2c0.1,1,0.2,2.1,0.3,3.1
				c0.1,0.6,0.1,1.1,0.1,1.7c0.1,0.8,0.1,1.5,0.1,2.3s0.1,1.6,0.1,2.5c0,0.6,0,1.2,0,1.9c0,0.9,0,1.8,0,2.6c0,1.1,0,2.2,0,3.3
				C383.9,196.4,383.9,197.4,383.8,198.5z"/>
		</g>
	</g>
	<ellipse class="st2" cx="256.1" cy="192" rx="127.9" ry="128"/>
</g>
<g id="Layer_2">
	<g transform="translate(0.000000,512.000000) scale(0.100000,-0.100000)">
		<path d="M2061,4130.8c-3.2-3.2-4.2-96.9-4.2-399.8c0-387.2,0-395.5,6.7-399.1c4.6-2.5,176.8-3.6,532.1-3.6h525l5.3,7.9
			c4.9,7.2,5.7,51.1,5.7,399.8c0,383.6,0,391.9-6.7,395.5C3114.1,4137.2,2066.6,4136.5,2061,4130.8z M3039.2,4085.7
			c0-1.8-12-13-26.5-25.2l-26.5-22.7h-392.4H2201l-26.2,22c-14.5,12.2-26.2,23.8-26.2,25.2c0,1.8,196.9,3.2,445.4,3.2
			C2839.1,4088.3,3039.5,4087.2,3039.2,4085.7z M2140.9,4023.4l25.5-22.7v-269v-269l-20.9-18.4c-11.3-10.1-25.5-22.7-31.8-27.7
			l-11-9.7v325.2c0,309,0.4,324.5,6.4,319.5C2112.2,4048.6,2126.7,4036,2140.9,4023.4z M3084.8,3569.3l-1.1-162.4l-30.8,27.4
			l-31.1,27.7l0.4,270.8v270.8l30.8,25.9l30.8,25.9l1.1-161.7C3085.1,3804.4,3085.1,3658.6,3084.8,3569.3z M2972.4,3906.7v-80.3
			l-14.8-2.5c-31.5-5-67.5-33.9-88.7-70.6c-4.9-9-19.8-44.7-32.5-79.2c-25.1-68.4-39.9-96.9-57.3-110.6
			c-26.5-20.5-87.7-30.6-130.5-21.6c-14.1,3.2-53.7,16.9-88.4,30.6c-123,49-158.7,56.9-204.7,46.1c-40.7-9.7-72.8-28.8-109.9-64.5
			l-33.2-32.1v232.7v232.7h380h380V3906.7z M2972.4,3625.4V3476h-364.5h-364.1l11.7,16.6c31.8,45.4,82.7,77.1,128.7,80
			c31.1,2.2,54.4-4.7,151.7-43.2c81.3-32.1,107.1-38.9,149.2-38.9c57.6,0,105,15.1,132.9,42.5c21.6,21.2,36.4,49.7,62.6,120.3
			c27.2,72.8,43.5,100.8,65.4,113.5C2974.5,3783.2,2972.4,3793.6,2972.4,3625.4z M3013.4,3403.2l26.5-22.7l-223.1-1.1
			c-122.3-0.4-323.1-0.4-445.8,0l-223.1,1.1l25.8,22.7l25.8,22.3h393.8h393.8L3013.4,3403.2z"/>
		<path d="M2603.3,3913.6c-24.7-7.2-53-28.1-67.5-50.8c-33.6-51.5-27.9-115.6,14.5-158.8c8.8-8.6,25.1-20.5,36.1-25.6
			c17.3-8.3,24.7-9.7,52-9.7c27.6,0,34.3,1.4,52,10.1c26.2,13,53,42.9,62.9,70.2c11,29.5,8.8,71-5.3,99.4
			C2721.7,3901,2658.1,3929.8,2603.3,3913.6z M2670.8,3859.6c25.8-13.3,37.5-32.1,39.2-62.7c1.1-19.8-0.4-26.7-7.1-40
			c-22.6-42.9-78.8-52.9-114.9-20.5c-31.1,27.7-33.9,72-7.4,104.8C2602.9,3868.9,2638.3,3876.1,2670.8,3859.6z"/>
		<path d="M3252.7,3258.1c-50.9-14.4-82.4-54.4-85.2-108.1c-1.8-35.3,6.7-61.2,27.6-85.7l14.1-16.2v-37.8v-37.5l-32.5-13
			c-158.7-61.6-340.1-57.6-491.4,10.8l-20.5,9.4v34.2v34.2l12.7,14.4c21.2,23.8,27.9,42.9,27.9,80c0,28.8-1.1,34.6-10.6,53.7
			c-20.2,40.7-57.6,63.4-105.4,63.4c-32.5,0-60.8-13-83.1-37.5c-22.6-25.2-30.4-45-30-79.6c0-34.2,7.8-55.1,29.3-78.5l14.1-15.8
			v-36.4v-36.4l-27.2-10.4c-74.2-29.2-130.5-40.3-213.2-42.9c-100.8-2.9-187.4,12.2-269.4,47.5l-31.1,13.3v32.4
			c0,31.7,0.4,32.8,12,46.8c21.6,25.6,28.3,43.9,28.3,78.9c0.4,28.5-0.7,32.8-12,55.8c-21.9,43.6-58.7,64.5-108.9,61.9
			c-32.2-1.4-51.6-10.1-74.6-32.4c-23.7-23.4-33.9-48.6-33.9-83.9c0-33.5,9.5-59.1,31.5-83.6l12.7-14.4v-292.5v-292.1h-65h-65.4
			l-7.1-9.4c-9.5-12.6-9.2-21.2,1.4-32.1l8.5-9h882c614.1,0,884.9,1.1,891.9,4c12,4.7,15.2,9,15.2,23.4c0,21.2-5.7,23.1-77.1,23.1
			h-64.3v293.9v294.3l12.7,14.4c29.3,33.1,38.9,79.2,24.7,121.4c-9.2,26.7-42.4,60.9-67.5,69.5
			C3298.7,3262.8,3273.9,3264.2,3252.7,3258.1z M1924.5,3207.6c50.9-15.1,63.6-83.2,22.6-118.1c-10.3-9-30.4-16.9-42.4-16.9
			c-34.6,0-67.2,33.9-67.2,70.2c0,36.7,24.7,62.3,67.5,69.9C1906.1,3213.1,1915,3210.5,1924.5,3207.6z M2622.4,3204
			c12-6.5,27.2-23.1,31.5-35.3c5.3-14,4.9-40-1.1-54c-6.4-15.8-27.2-33.9-44.9-38.5c-58.7-16.2-106.4,52.2-72.8,104.1
			C2553.8,3208.7,2592.7,3219.2,2622.4,3204z M3317.8,3200.1c20.5-11.9,34.6-41.4,31.5-65.2c-4.2-32.4-27.9-56.5-59.7-60.9
			c-24-3.6-52,11.2-64.7,33.5c-11.3,19.1-12.7,47.2-3.9,64.5c7.4,14.8,28.3,33.1,40.7,36c5.3,1.1,11.3,2.5,13.1,3.2
			C3282,3213.8,3303.6,3208.4,3317.8,3200.1z M1928.8,2743.4l-1.1-281.3h-23h-23l-1.1,281.3l-0.7,281.3h24.7h24.7L1928.8,2743.4z
			 M2615.3,2742.3v-282h-23h-23v282v282h23h23V2742.3z M3304.7,2742.3v-282h-23h-23v282v282h23h23V2742.3z M2023.1,2911.2
			c23-9.4,79.5-24.1,120.2-31.7c44.5-7.9,146-10.8,190.6-5c59.4,7.2,134,25.9,179.6,45c5.3,2.2,6.4,0.4,6.4-12.2
			c0-14.4-0.7-15.5-15.6-22c-85.9-37.5-203.6-56.2-299.1-47.5c-71.8,6.5-166.5,31-212.8,55.1c-12,6.5-13.4,8.3-13.4,21.3v14
			l13.4-4.7C1999.5,2920.6,2013.6,2915.2,2023.1,2911.2z M2753.5,2892.5c118.8-33.1,245.7-34.9,359.2-5.8c30,7.9,70,20.9,90.5,29.2
			c5.7,2.5,6.4,1.1,5.3-13l-1.1-15.5l-30-12.2c-145.7-58-327.4-57.6-469.1,1.1c-17,7.2-33.9,14-37.1,15.1c-4.9,1.4-6.4,5.8-6.4,17.3
			v15.5l25.8-10.8C2704.4,2907.6,2733,2898.3,2753.5,2892.5z M2013.2,2831.3c144.6-56.9,328.4-58.7,474.1-5.4c13.4,5,26.5,9,28.6,9
			c2.8,0,3.9-50.4,3.9-187.3v-187.3l-271.5,0.7l-271.2,1.1l-1.1,190.2c-0.7,163.5,0,189.8,4.2,189.8
			C1983.2,2842.1,1998,2837,2013.2,2831.3z M2695.5,2827.7c36.1-14,95.8-30.3,142.5-38.2c45.6-7.9,153.1-8.6,199.7-1.8
			c39.9,5.8,105.4,22.3,142.8,35.7l28.6,10.4v-186.6v-186.9H2937h-272.2v189.1c0,104.1,0.7,189.1,1.4,189.1
			C2667.3,2838.5,2680.3,2833.4,2695.5,2827.7z"/>
	</g>
</g>
</svg>
