<?xml version="1.0" encoding="utf-8"?>
<!-- Generator: Adobe Illustrator 24.1.2, SVG Export Plug-In . SVG Version: 6.00 Build 0)  -->
<svg version="1.1" xmlns="http://www.w3.org/2000/svg" xmlns:xlink="http://www.w3.org/1999/xlink" x="0px" y="0px"
	 viewBox="0 0 512 512" style="enable-background:new 0 0 512 512;" xml:space="preserve">
<style type="text/css">
	.st0{fill:#00000D;}
	.st1{fill:#0A1A33;}
	.st2{fill:#FFFFFF;}
</style>
<g id="Layer_1">
	<g id="Layer_1_2_">
		<g id="Layer_1_1_">
			<g id="Outline">
				<path class="st0" d="M256,16C158.3,16.7,79.5,96.4,80,194.1c0,62.7,28.8,132.3,85.6,206.9c25.5,33.5,54,64.7,85.1,93
					c3,2.6,7.5,2.6,10.5,0c31.2-28.3,59.6-59.5,85.1-93c56.8-74.5,85.6-144.2,85.6-206.9C432.5,96.4,353.7,16.7,256,16z M256,477.2
					c-28.2-26.3-160-156-160-283c0-24.2,5.4-47.2,15-67.8c13.4-28.7,35.2-52.8,62.1-69.1c24.2-14.7,52.6-23.1,82.9-23.1
					c88.4,0,160,71.6,160,160C416,321.2,284.2,450.9,256,477.2z"/>
				<path class="st1" d="M256,34.2c-30.3,0-58.7,8.4-82.9,23.1c-26.9,16.3-48.7,40.4-62.1,69.1c-9.6,20.6-15,43.6-15,67.8
					c0,127,131.8,256.7,160,283c28.2-26.3,160-156,160-283C416,105.8,344.4,34.2,256,34.2z M256,336c-79.5,0-144-64.5-144-144
					S176.5,48,256,48c79.5,0.1,143.9,64.5,144,144C400,271.5,335.5,336,256,336z"/>
				<path class="st0" d="M256,48c-79.5,0-144,64.5-144,144s64.5,144,144,144s144-64.5,144-144C399.9,112.5,335.5,48.1,256,48z
					 M383.8,198.5C383.8,198.5,383.8,198.6,383.8,198.5C380.4,264,328,316.4,262.6,319.8c0,0,0,0-0.1,0c-1.1,0.1-2.1,0.1-3.2,0.1
					s-2.2,0-3.3,0c-2.3,0-4.7-0.1-7-0.2c-0.4,0-0.8,0-1.3-0.1c-0.6,0-1.2-0.1-1.8-0.1c-1-0.1-2-0.2-3-0.3c-0.5,0-1.1-0.1-1.6-0.2
					s-1.1-0.1-1.6-0.2C176.8,311,128,257.2,128,192S176.8,73,239.8,65c0.5-0.1,1.1-0.1,1.6-0.2s1.1-0.1,1.6-0.2c1-0.1,2-0.2,3-0.3
					c0.6,0,1.2-0.1,1.8-0.1c0.4,0,0.8-0.1,1.3-0.1c1.3-0.1,2.6-0.1,4-0.2c0.3,0,0.7,0,1,0c0.7,0,1.3,0,2,0s1.4,0,2,0
					c1.4,0,2.7,0.1,4.1,0.1c0.7,0,1.3,0.1,2,0.1c1,0.1,1.9,0.1,2.9,0.2c0.9,0.1,1.9,0.2,2.8,0.3c1.9,0.2,3.7,0.5,5.6,0.7
					c0.6,0.1,1.1,0.2,1.7,0.3c1,0.2,2.1,0.4,3.1,0.5h0.1c29.2,5.6,54.8,21.2,73.3,43c2,2.4,3.9,4.8,5.8,7.4c0.3,0.4,0.6,0.8,0.9,1.3
					c0.4,0.6,0.9,1.3,1.3,1.9s0.9,1.3,1.3,1.9l0,0c0.6,0.9,1.1,1.7,1.6,2.6l0,0c0.8,1.2,1.5,2.4,2.2,3.7c0.1,0.1,0.1,0.2,0.2,0.3
					c0.3,0.5,0.6,1.1,0.9,1.6c1.1,2,2.2,4.1,3.2,6.2c0.3,0.5,0.5,1.1,0.8,1.6c2.1,4.4,3.9,8.9,5.4,13.6c0.1,0.4,0.3,0.8,0.4,1.2
					c0.8,2.5,1.5,5,2.2,7.6c0.1,0.4,0.2,0.8,0.3,1.3c0.4,1.7,0.8,3.4,1.1,5.1c0.1,0.4,0.2,0.8,0.2,1.2c0.3,1.3,0.5,2.7,0.7,4
					c0.1,0.7,0.2,1.4,0.3,2.1c0.1,0.7,0.2,1.3,0.3,2c0,0.1,0,0.2,0,0.3c0.1,0.7,0.2,1.3,0.2,2c0.1,1,0.2,2.1,0.3,3.1
					c0.1,0.6,0.1,1.1,0.1,1.7c0.1,0.8,0.1,1.5,0.1,2.3s0.1,1.6,0.1,2.5c0,0.6,0,1.2,0,1.9c0,0.9,0,1.8,0,2.6c0,1.1,0,2.2,0,3.3
					C383.9,196.4,383.9,197.4,383.8,198.5z"/>
			</g>
		</g>
		<ellipse class="st2" cx="256.1" cy="192" rx="127.9" ry="128"/>
	</g>
	<g id="Layer_2_1_">
	</g>
</g>
<g id="Layer_2">
	<g transform="translate(0.000000,512.000000) scale(0.100000,-0.100000)">
		<path d="M2546.4,4279.9c-9.8-5.1-53.6-45.9-111.5-104.4c-52.4-53.1-106.4-107.4-119.3-120.4l-23.9-24l-2,26.9
			c-2.3,29.1-9.4,44.2-25.4,53.5c-14.9,8.4-190.9,8.4-205.7,0c-24.6-14.3-24.2-12.2-23.1-183.6l1.2-156.2l-125.2-126.7
			c-117.7-119.6-125.2-128.4-133.4-151.6c-32.9-93.5,58.3-181.5,139.6-134.7c9.4,5.1,37.9,30.7,63.8,56.8l46.9,48v-135.6
			c0-127.2-0.4-135.6-6.6-132.6c-3.9,1.3-33.6,3.8-66.1,5.1l-59.5,2.5l-2.3,23.2c-3.5,32.4-13.7,54.7-34.8,75.4
			c-27,26.5-48.1,32-123.2,29.9c-52-1.3-64.1-2.5-79-10.1c-21.1-10.5-40.3-30.3-52-53.9c-8.6-17.3-8.6-18.1-9.8-277.5
			c-0.8-168.8,0.4-262.7,2.7-267.8c5.9-11.8,24.6-17.7,36-11.4c19.2,10.1,19.2,9.3,19.2,275.4c0,274.5-1.2,263.2,23.9,277.1
			c16.8,9.3,121.6,8.4,136.9-1.3c24.2-15.6,23.1,2.1,23.1-408.4c0-288.4-1.2-376-5.1-384c-2.3-5.5-9.8-14.3-15.6-18.9
			c-10.2-8-16.4-8.8-70.8-8.8c-84.9,0-89.2,3.4-92.3,73.3c-2,39.2-3.1,44.2-11.3,51.4c-13.3,11.4-29.3,10.1-39.1-2.9
			c-7-9.7-8.2-17.3-8.2-50.5c0-65.3,19.2-102.3,64.5-124.6c18-8.8,25-9.7,86-9.7c64.9,0,66.9,0.4,88.8,11.8
			c34,18.1,47.7,38.7,60.6,90.1l3.1,13.5l209.6-85.5c115.4-47.2,216.3-86.7,224.5-88.4c8.2-1.7,26.2-2.9,40.7-2.9
			c28.9,0,634.8,93.5,671.2,103.6c34,9.3,90.3,40.4,115.4,64c143.5,135.2,409.5,397.1,418.5,412.2c30.5,51.8,23.5,119.6-16.8,162.9
			c-36,38.7-91.5,49.7-136.9,27.4c-12.5-6.3-78.6-52.2-147.1-101.9c-68.8-49.7-125.9-89.3-127.1-88c-3.1,3.4-3.1,565.5,0,565.5
			c1.2,0,24.2-21.9,50.8-48.8c27-26.5,56.3-52.2,65.3-56.4c37.2-18.1,88.4-5.9,115.8,27.4c18,22.3,24.6,41.7,25,71.6
			c0.4,42.5-7.4,54.7-83.7,132.6c-132.2,135.2-126.3,130.1-144.3,122.1c-14.9-6.7-21.9-24.8-14.9-39.6c2.7-5.9,43-48.4,89.2-95.2
			c46.2-46.3,87.2-90.9,91.5-98.9c18.4-37.9-17.2-80.4-53.6-63.6c-7,2.9-163.9,158.3-348.9,345.3
			c-185,186.5-340.7,340.6-345.7,342.3c-5.1,1.3-13.3,0.8-18.4-1.3c-4.7-2.1-156.4-153.3-336.4-336.4
			c-180.3-182.7-333.6-337.7-341.1-344c-19.9-17.3-40.3-16.4-57.9,2.5c-10.6,11.4-13.3,17.7-13.3,30.7c0,8.8,3.1,21.1,7,26.9
			c12.5,20.2,722,737.3,736.1,743.6c26.2,12.2,27,11.8,240.9-203.8c249.9-252.2,230-232.8,244.1-232.8c14.9,0,27.4,13.5,27.4,29.5
			c0,14.7,21.5-8-230,245.9c-128.7,130.1-207.7,206.7-220.2,214.3C2609.3,4290.8,2571.8,4292.1,2546.4,4279.9z M2231.9,4012.9v-43.4
			l-49.7-50.5c-27.8-27.8-59.5-59.8-70.4-70.7l-20.7-20.6v114.5v114.1h70.4h70.4V4012.9z M2874.9,3742.6l217.5-219V3188v-336
			l-40.7-29.1l-41.1-29.5l-41.8,2.9l-42.2,2.9l-5.1,30.7c-11.7,77.1-59.5,137.3-126.7,160.4l-14.1,5.1l-2.3,76.2
			c-1.6,42.1-2.7,136.8-2.7,211v134.7l-15.6,16.4l-16,16H2591c-145.5,0-153.3-0.4-165.4-8.4c-23.5-15.6-23.5-14.3-25.4-213.5
			l-2-181.9l-41.1,14.3c-22.7,8-75.1,32.8-117.3,56c-46.9,25.3-90.7,45.9-114.2,53.5l-38.3,12.2v171l0.4,170.5l250.3,253.9
			l250.3,253.5l34.8-34.5C2641.8,3977.1,2755.2,3863,2874.9,3742.6z M2720.8,3197.3c0-152.4-1.2-193.7-4.7-193.3
			c-2.7,0-61.4,7.2-130.2,16l-125.2,15.6l-1.2,177.7l-0.8,177.7h131h131V3197.3z M2022.7,3132c73.1-11.8,129.1-32.8,202.6-76.2
			c59.4-34.9,113.4-56.8,172.9-70.7c15.3-3.8,104-16,197.5-27.8c93.5-11.8,176.4-23.2,183.8-25.7c22.3-7.2,52-31.6,65.7-53.1
			c12.5-20.2,24.6-65.3,19.2-71.2c-1.6-1.7-138.5,9.7-304.3,25.3c-278.1,26.1-301.9,27.8-310.9,21.5c-18.8-13.1-15.6-43.4,5.9-52.2
			c5.5-2.1,156.4-17.3,334.8-33.7c361-33.3,367.3-33.7,409.1-34.9l30.1-0.8l209.6,151.6l210,151.2h25c27.8,0,40.3-7.2,55.9-31.6
			c11.7-18.9,11.7-51.4-0.4-72c-11-18.9-403.2-399.6-433-419.8c-23.5-16.4-48.9-27.8-75.1-34.1c-9.4-2.5-158.4-26.1-331.7-53.1
			c-232.7-36.2-319.9-48.4-334.4-46.3c-11,1.3-118.1,42.5-239.4,91.8l-220.2,89.3v289.7v289.3h44.2
			C1963.6,3138.4,2001.2,3135.4,2022.7,3132z"/>
	</g>
</g>
</svg>
