<?xml version="1.0" encoding="utf-8"?>
<!-- Generator: Adobe Illustrator 24.1.2, SVG Export Plug-In . SVG Version: 6.00 Build 0)  -->
<svg version="1.1" xmlns="http://www.w3.org/2000/svg" xmlns:xlink="http://www.w3.org/1999/xlink" x="0px" y="0px"
	 viewBox="0 0 512 512" style="enable-background:new 0 0 512 512;" xml:space="preserve">
<style type="text/css">
	.st0{fill:#00000D;}
	.st1{fill:#0A1A33;}
	.st2{fill:#FFFFFF;}
</style>
<g id="Layer_1">
	<g id="Layer_1_3_">
		<g id="Layer_1_2_">
			<g id="Layer_1_1_">
				<g id="Outline">
					<path class="st0" d="M256,16C158.3,16.7,79.5,96.4,80,194.1c0,62.7,28.8,132.3,85.6,206.9c25.5,33.5,54,64.7,85.1,93
						c3,2.6,7.5,2.6,10.5,0c31.2-28.3,59.6-59.5,85.1-93c56.8-74.5,85.6-144.2,85.6-206.9C432.5,96.4,353.7,16.7,256,16z M256,477.2
						c-28.2-26.3-160-156-160-283c0-24.2,5.4-47.2,15-67.8c13.4-28.7,35.2-52.8,62.1-69.1c24.2-14.7,52.6-23.1,82.9-23.1
						c88.4,0,160,71.6,160,160C416,321.2,284.2,450.9,256,477.2z"/>
					<path class="st1" d="M256,34.2c-30.3,0-58.7,8.4-82.9,23.1c-26.9,16.3-48.7,40.4-62.1,69.1c-9.6,20.6-15,43.6-15,67.8
						c0,127,131.8,256.7,160,283c28.2-26.3,160-156,160-283C416,105.8,344.4,34.2,256,34.2z M256,336c-79.5,0-144-64.5-144-144
						S176.5,48,256,48c79.5,0.1,143.9,64.5,144,144C400,271.5,335.5,336,256,336z"/>
					<path class="st0" d="M256,48c-79.5,0-144,64.5-144,144s64.5,144,144,144s144-64.5,144-144C399.9,112.5,335.5,48.1,256,48z
						 M383.8,198.5C383.8,198.5,383.8,198.6,383.8,198.5C380.4,264,328,316.4,262.6,319.8c0,0,0,0-0.1,0c-1.1,0.1-2.1,0.1-3.2,0.1
						s-2.2,0-3.3,0c-2.3,0-4.7-0.1-7-0.2c-0.4,0-0.8,0-1.3-0.1c-0.6,0-1.2-0.1-1.8-0.1c-1-0.1-2-0.2-3-0.3c-0.5,0-1.1-0.1-1.6-0.2
						s-1.1-0.1-1.6-0.2C176.8,311,128,257.2,128,192S176.8,73,239.8,65c0.5-0.1,1.1-0.1,1.6-0.2s1.1-0.1,1.6-0.2c1-0.1,2-0.2,3-0.3
						c0.6,0,1.2-0.1,1.8-0.1c0.4,0,0.8-0.1,1.3-0.1c1.3-0.1,2.6-0.1,4-0.2c0.3,0,0.7,0,1,0c0.7,0,1.3,0,2,0s1.4,0,2,0
						c1.4,0,2.7,0.1,4.1,0.1c0.7,0,1.3,0.1,2,0.1c1,0.1,1.9,0.1,2.9,0.2c0.9,0.1,1.9,0.2,2.8,0.3c1.9,0.2,3.7,0.5,5.6,0.7
						c0.6,0.1,1.1,0.2,1.7,0.3c1,0.2,2.1,0.4,3.1,0.5h0.1c29.2,5.6,54.8,21.2,73.3,43c2,2.4,3.9,4.8,5.8,7.4
						c0.3,0.4,0.6,0.8,0.9,1.3c0.4,0.6,0.9,1.3,1.3,1.9s0.9,1.3,1.3,1.9l0,0c0.6,0.9,1.1,1.7,1.6,2.6l0,0c0.8,1.2,1.5,2.4,2.2,3.7
						c0.1,0.1,0.1,0.2,0.2,0.3c0.3,0.5,0.6,1.1,0.9,1.6c1.1,2,2.2,4.1,3.2,6.2c0.3,0.5,0.5,1.1,0.8,1.6c2.1,4.4,3.9,8.9,5.4,13.6
						c0.1,0.4,0.3,0.8,0.4,1.2c0.8,2.5,1.5,5,2.2,7.6c0.1,0.4,0.2,0.8,0.3,1.3c0.4,1.7,0.8,3.4,1.1,5.1c0.1,0.4,0.2,0.8,0.2,1.2
						c0.3,1.3,0.5,2.7,0.7,4c0.1,0.7,0.2,1.4,0.3,2.1c0.1,0.7,0.2,1.3,0.3,2c0,0.1,0,0.2,0,0.3c0.1,0.7,0.2,1.3,0.2,2
						c0.1,1,0.2,2.1,0.3,3.1c0.1,0.6,0.1,1.1,0.1,1.7c0.1,0.8,0.1,1.5,0.1,2.3s0.1,1.6,0.1,2.5c0,0.6,0,1.2,0,1.9c0,0.9,0,1.8,0,2.6
						c0,1.1,0,2.2,0,3.3C383.9,196.4,383.9,197.4,383.8,198.5z"/>
				</g>
			</g>
			<ellipse class="st2" cx="256.1" cy="192" rx="127.9" ry="128"/>
		</g>
		<g id="Layer_2_1_">
		</g>
	</g>
	<g id="Layer_2_2_">
	</g>
</g>
<g id="Layer_2">
	<g transform="translate(-1)">
		<g>
			<g>
				<path d="M349.1,237c1.8,0,3.2-1.3,3.2-3c0-1.6-1.4-3-3.2-3H346c0-1.6-1.4-3-3.2-3s-3.2,1.3-3.2,3h-50.9c0-1.6-1.4-3-3.2-3
					c-1.8,0-3.2,1.3-3.2,3h-3.2c-1.8,0-3.2,1.3-3.2,3c0,1.6,1.4,3,3.2,3h3.2v8.9h-3.2c-1.8,0-3.2,1.3-3.2,3s1.4,3,3.2,3h3.2v3h-3.2
					c-1.8,0-3.2,1.3-3.2,3s1.4,3,3.2,3h3.2v8.9h-54v-24.5c4.7,2.5,10,3.8,15.4,3.8c18.1-0.2,32.5-14.1,32.3-30.9
					c0.1-11.7-6.9-22.5-18.1-27.8c3.7-4.7,5.7-10.3,5.6-16.1c0.1-12.8-9.5-23.9-23-26.5c3.4-7,2.8-15.1-1.6-21.7
					c-4.4-6.5-12-10.6-20.2-10.8c-0.1,0-0.2,0-0.3,0c-1.7-10.2-11.2-17.7-22.2-17.6c-11.1,0.1-20.4,7.8-21.8,18.1
					c-8.1,1.4-13.6,8.4-12.8,16c0.8,7.6,7.6,13.4,15.8,13.4H196c0.3,0.9,0.6,1.7,1,2.5c-13.5,2.6-23.1,13.7-23,26.5
					c0,5.8,1.9,11.5,5.6,16.1c-11.2,5.3-18.2,16.1-18.1,27.8c-0.2,16.8,14.2,30.7,32.3,30.9c5.4,0,10.7-1.3,15.4-3.8v24.5h-44.5
					c-1.8,0-3.2,1.3-3.2,3c0,1.6,1.4,3,3.2,3h184.4c1.8,0,3.2-1.3,3.2-3c0-1.6-1.4-3-3.2-3H346v-8.9h3.2c1.8,0,3.2-1.3,3.2-3
					s-1.4-3-3.2-3H346v-3h3.2c1.8,0,3.2-1.3,3.2-3s-1.4-3-3.2-3H346V237L349.1,237L349.1,237z M194.8,138.1c0,0.3,0,0.7,0.1,1h-17.4
					c-5.3,0-9.5-4-9.5-8.9c0-4.9,4.3-8.9,9.5-8.9c0.8,0,1.7-0.3,2.2-0.9c0.6-0.6,0.9-1.3,0.9-2.1c0-7.7,6.4-14.2,14.6-14.8
					c8.3-0.6,15.6,4.8,16.9,12.5C201.8,119,194.7,128,194.8,138.1z M222,269.7h-6.4v-28.9c1.1-1,2.2-2.1,3.2-3.2
					c1,1.1,2,2.2,3.2,3.2L222,269.7L222,269.7z M222.3,232l20.9-19.5c1.2-1.2,1.2-3,0-4.2c-1.2-1.2-3.2-1.2-4.5,0L222,223.9v-30.2
					l15-14c1.2-1.2,1.2-3,0-4.2c-1.2-1.2-3.2-1.2-4.5,0l-10.5,9.8v-13.6c0-1.6-1.4-3-3.2-3c-1.8,0-3.2,1.3-3.2,3v13.6l-10.5-9.8
					c-1.2-1.1-3.2-1.1-4.5,0c-1.2,1.2-1.2,3,0,4.2l15,14v30.2l-16.8-15.7c-1.2-1.1-3.2-1.1-4.5,0c-1.2,1.2-1.2,3,0,4.2l20.9,19.5
					c-4.7,6.8-12.7,11-21.4,11c-14.5-0.2-26.1-11.4-25.9-25c-0.1-10.7,7.1-20.3,18-23.8c1.1-0.3,1.8-1.1,2.1-2.1
					c0.3-1-0.1-2.1-0.9-2.8c-4.4-4-6.8-9.5-6.8-15.2c-0.2-11.3,9.4-20.7,21.5-21c1.3,0.1,2.6-0.5,3.2-1.6c0.5-1,0.4-2.2-0.3-3.1
					c-2.4-3-3.6-6.5-3.6-10.2c-0.2-9.2,7.7-16.8,17.6-17c9.9,0.2,17.8,7.8,17.6,17c0,3.7-1.3,7.3-3.6,10.2c-0.7,0.9-0.8,2.1-0.2,3.1
					c0.6,1,1.7,1.6,2.9,1.6c12.2,0.2,22,9.6,21.8,21c0,5.7-2.4,11.2-6.8,15.2c-0.8,0.7-1.1,1.8-0.9,2.8c0.3,1,1,1.8,2.1,2.1
					c12.2,4,19.7,15.5,17.7,27.4c-1.9,11.9-12.7,20.9-25.6,21.3C235.1,242.9,227,238.8,222.3,232z M339.6,269.7h-50.9v-8.9h50.9
					V269.7z M339.6,254.8h-50.9v-3h50.9V254.8z M339.6,245.9h-50.9V237h50.9V245.9z"/>
				<path d="M298.3,171.8h38.2c8.2,0,15.1-5.8,15.8-13.4c0.8-7.6-4.8-14.5-12.8-16c-1.5-10.3-10.9-18.1-22.1-18.1
					s-20.6,7.7-22.1,18.1c-8.1,1.4-13.6,8.4-12.8,16C283.2,166,290.1,171.8,298.3,171.8z M298.3,148c0.8,0,1.7-0.3,2.2-0.9
					c0.6-0.6,0.9-1.3,0.9-2.1c0-8.2,7.1-14.8,15.9-14.8c8.8,0,15.9,6.6,15.9,14.8c0,0.8,0.3,1.5,0.9,2.1c0.6,0.6,1.4,0.9,2.2,0.9
					c5.3,0,9.5,4,9.5,8.9s-4.3,8.9-9.5,8.9h-38.2c-5.3,0-9.5-4-9.5-8.9S293,148,298.3,148z"/>
			</g>
		</g>
	</g>
</g>
</svg>
