<?xml version="1.0" encoding="utf-8"?>
<!-- Generator: Adobe Illustrator 24.1.2, SVG Export Plug-In . SVG Version: 6.00 Build 0)  -->
<svg version="1.1" xmlns="http://www.w3.org/2000/svg" xmlns:xlink="http://www.w3.org/1999/xlink" x="0px" y="0px"
	 viewBox="0 0 512 512" style="enable-background:new 0 0 512 512;" xml:space="preserve">
<style type="text/css">
	.st0{fill:#00000D;}
	.st1{fill:#0A1A33;}
	.st2{fill:#FFFFFF;}
</style>
<g id="Layer_1">
	<g id="Layer_1_3_">
		<g id="Layer_1_2_">
			<g id="Layer_1_1_">
				<g id="Outline">
					<path class="st0" d="M256,16C158.3,16.7,79.5,96.4,80,194.1c0,62.7,28.8,132.3,85.6,206.9c25.5,33.5,54,64.7,85.1,93
						c3,2.6,7.5,2.6,10.5,0c31.2-28.3,59.6-59.5,85.1-93c56.8-74.5,85.6-144.2,85.6-206.9C432.5,96.4,353.7,16.7,256,16z M256,477.2
						c-28.2-26.3-160-156-160-283c0-24.2,5.4-47.2,15-67.8c13.4-28.7,35.2-52.8,62.1-69.1c24.2-14.7,52.6-23.1,82.9-23.1
						c88.4,0,160,71.6,160,160C416,321.2,284.2,450.9,256,477.2z"/>
					<path class="st1" d="M256,34.2c-30.3,0-58.7,8.4-82.9,23.1c-26.9,16.3-48.7,40.4-62.1,69.1c-9.6,20.6-15,43.6-15,67.8
						c0,127,131.8,256.7,160,283c28.2-26.3,160-156,160-283C416,105.8,344.4,34.2,256,34.2z M256,336c-79.5,0-144-64.5-144-144
						S176.5,48,256,48c79.5,0.1,143.9,64.5,144,144C400,271.5,335.5,336,256,336z"/>
					<path class="st0" d="M256,48c-79.5,0-144,64.5-144,144s64.5,144,144,144s144-64.5,144-144C399.9,112.5,335.5,48.1,256,48z
						 M383.8,198.5C383.8,198.5,383.8,198.6,383.8,198.5C380.4,264,328,316.4,262.6,319.8c0,0,0,0-0.1,0c-1.1,0.1-2.1,0.1-3.2,0.1
						s-2.2,0-3.3,0c-2.3,0-4.7-0.1-7-0.2c-0.4,0-0.8,0-1.3-0.1c-0.6,0-1.2-0.1-1.8-0.1c-1-0.1-2-0.2-3-0.3c-0.5,0-1.1-0.1-1.6-0.2
						s-1.1-0.1-1.6-0.2C176.8,311,128,257.2,128,192S176.8,73,239.8,65c0.5-0.1,1.1-0.1,1.6-0.2s1.1-0.1,1.6-0.2c1-0.1,2-0.2,3-0.3
						c0.6,0,1.2-0.1,1.8-0.1c0.4,0,0.8-0.1,1.3-0.1c1.3-0.1,2.6-0.1,4-0.2c0.3,0,0.7,0,1,0c0.7,0,1.3,0,2,0s1.4,0,2,0
						c1.4,0,2.7,0.1,4.1,0.1c0.7,0,1.3,0.1,2,0.1c1,0.1,1.9,0.1,2.9,0.2c0.9,0.1,1.9,0.2,2.8,0.3c1.9,0.2,3.7,0.5,5.6,0.7
						c0.6,0.1,1.1,0.2,1.7,0.3c1,0.2,2.1,0.4,3.1,0.5h0.1c29.2,5.6,54.8,21.2,73.3,43c2,2.4,3.9,4.8,5.8,7.4
						c0.3,0.4,0.6,0.8,0.9,1.3c0.4,0.6,0.9,1.3,1.3,1.9s0.9,1.3,1.3,1.9l0,0c0.6,0.9,1.1,1.7,1.6,2.6l0,0c0.8,1.2,1.5,2.4,2.2,3.7
						c0.1,0.1,0.1,0.2,0.2,0.3c0.3,0.5,0.6,1.1,0.9,1.6c1.1,2,2.2,4.1,3.2,6.2c0.3,0.5,0.5,1.1,0.8,1.6c2.1,4.4,3.9,8.9,5.4,13.6
						c0.1,0.4,0.3,0.8,0.4,1.2c0.8,2.5,1.5,5,2.2,7.6c0.1,0.4,0.2,0.8,0.3,1.3c0.4,1.7,0.8,3.4,1.1,5.1c0.1,0.4,0.2,0.8,0.2,1.2
						c0.3,1.3,0.5,2.7,0.7,4c0.1,0.7,0.2,1.4,0.3,2.1c0.1,0.7,0.2,1.3,0.3,2c0,0.1,0,0.2,0,0.3c0.1,0.7,0.2,1.3,0.2,2
						c0.1,1,0.2,2.1,0.3,3.1c0.1,0.6,0.1,1.1,0.1,1.7c0.1,0.8,0.1,1.5,0.1,2.3s0.1,1.6,0.1,2.5c0,0.6,0,1.2,0,1.9c0,0.9,0,1.8,0,2.6
						c0,1.1,0,2.2,0,3.3C383.9,196.4,383.9,197.4,383.8,198.5z"/>
				</g>
			</g>
			<ellipse class="st2" cx="256.1" cy="192" rx="127.9" ry="128"/>
		</g>
		<g id="Layer_2_1_">
		</g>
	</g>
	<g id="Layer_2_2_">
	</g>
</g>
<g id="Layer_2">
	<g transform="translate(0.000000,512.000000) scale(0.100000,-0.100000)">
		<path d="M1939.4,4148.5c-16.2-7.7-29.8-23.6-34.7-40.9c-1.9-7.4-3.8-35.4-3.8-62.3v-48.7l-108.1-1.1
			c-157.9-1.5-147.7,11.1-148.1-186.2c0-88.1,1.5-140.9,4.1-147.5c1.9-5.5,8.3-15.1,13.9-21c18.8-19.5,25.6-20.6,136.4-20.6H1901
			v-110.6v-110.6h-104.4c-104,0-104,0-120.2-9.2c-10.6-5.9-18.5-14.4-23.7-25.1c-7.5-15.5-7.9-21.4-7.9-153.8s0.4-138.3,7.9-153.8
			c5.3-10.7,13.2-19.2,23.7-25.1c16.2-9.2,16.2-9.2,120.2-9.2H1901v-110.6v-110.6h-101.7c-110.8,0-117.6-1.1-136.4-20.6
			c-5.7-5.9-12.1-15.5-13.9-21c-2.6-6.6-4.1-59.4-4.1-147.5c0-153.4,0.8-158.2,26.8-176.3c12.8-8.8,13.6-8.8,121-10l107.8-1.1
			l1.5-56c1.5-63.1,4.1-72.3,28.3-90l13.6-10.3l98.3-1.1c97.2-1.1,98.7-1.1,115.3,7.7c11.3,5.9,19.2,13.6,25.2,24.7
			c7.9,14.4,8.7,20.6,8.7,70.8v54.6h354.2h354.2v-56c0-52.7,0.4-56.8,9.4-71.5c6.4-10.3,14.7-18.1,26-23.6
			c15.8-7.4,21.1-7.7,114.2-6.6l98,1.1l13.6,10.3c24.1,17.7,26.8,26.9,28.3,90l1.5,56l107.8,1.1c105.5,1.1,108.5,1.5,120.2,9.6
			c6.4,4.4,15.4,15.5,19.6,24c7.5,15.5,7.9,21.8,7.9,153c0,108.4-1.1,139.7-5.3,149.3c-6,14.4-23,30.2-37.3,35.4
			c-6.4,2.6-49.7,4.1-112.3,4.1h-101.4v110.6v110.6h104.4c104,0,104,0,120.2,9.2c10.6,5.9,18.5,14.4,23.7,25.1
			c7.5,15.5,7.9,21.4,7.9,153.8s-0.4,138.3-7.9,153.8c-5.3,10.7-13.2,19.2-23.7,25.1c-16.2,9.2-16.2,9.2-120.2,9.2h-104.4v110.6
			v110.6h101.4c62.6,0,105.9,1.5,112.3,4.1c14.3,5.2,31.3,21,37.3,35.4c4.1,9.6,5.3,40.6,5.3,149.3c0,153.8-0.8,158.6-26.8,176.6
			c-12.8,8.8-13.6,8.8-121,10l-107.8,1.1l-1.5,56c-1.5,63.1-4.1,72.3-28.3,90l-13.6,10.3l-98,1.1c-93.1,1.1-98.3,0.7-114.2-6.6
			c-11.3-5.5-19.6-13.3-26-23.6c-9-14.7-9.4-18.8-9.4-71.5v-56h-354.2h-354.2v54.6c0,50.1-0.8,56.4-8.7,70.8
			c-6,11.1-13.9,18.8-25.2,24.7c-15.8,8.1-19.2,8.5-110.8,8.5C1966.9,4154.7,1950,4153.6,1939.4,4148.5z M2127.1,3210.8v-881.3h-81
			h-81v881.3V4092h81h81V3210.8z M3125.6,3210.8v-881.3h-81h-81v881.3V4092h81h81V3210.8z M1901,3808.1v-125.4h-96.1h-96.1v125.4
			v125.4h96.1h96.1V3808.1z M2899.6,3887.4v-46.1h-34.7c-41.1,0-57.3-6.6-61.4-25.4c-2.6-12.2,5.7-31.3,15.1-35
			c3.4-1.1,23-2.2,43.7-2.2h37.3v-47.9v-47.9h-354.2h-354.2v47.9v47.9h38.8c33.5,0,39.9,1.1,46.7,7.4c11.3,10,13.9,20.6,8.3,33.6
			c-6.8,16.6-20.7,21.8-59.9,21.8h-33.9v46.1v46.1h354.2h354.2V3887.4z M3381.9,3808.1v-125.4h-96.1h-96.1v125.4v125.4h96.1h96.1
			V3808.1z M2899.6,3509.4v-110.6h-354.2h-354.2v110.6v110.6h354.2h354.2V3509.4z M1901,3210.8v-125.4h-96.1h-96.1v125.4v125.4h96.1
			h96.1V3210.8z M2899.6,3290.1V3244h-32c-38.8,0-55.4-5.5-61.8-21.8c-4.1-9.2-4.1-13.6,0-22.9c6.4-16.2,23-21.8,61.8-21.8h32v-46.1
			v-46.1h-354.2h-354.2v46.1v46.1h32c38.8,0,55.4,5.5,61.8,21.8c4.1,9.2,4.1,13.6,0,22.9c-6.4,16.2-23,21.8-61.8,21.8h-32v46.1v46.1
			h354.2h354.2V3290.1z M3381.9,3210.8v-125.4h-96.1h-96.1v125.4v125.4h96.1h96.1V3210.8z M2899.6,2912.1v-110.6h-354.2h-354.2
			v110.6v110.6h354.2h354.2V2912.1z M1901,2613.4v-125.4h-96.1h-96.1v125.4v125.4h96.1h96.1V2613.4z M2899.6,2676.1v-62.7h-37.3
			c-33.5,0-38.8-0.7-47.1-8.5c-15.1-12.5-16.2-28.4-4.1-42.4l10.2-11.8h39.2h39.2v-31.3v-31.3h-354.2h-354.2v31.3v31.3h39.2h39.2
			l10.2,11.8c12.1,14,10.9,29.9-4.1,42.8c-8.3,7.4-13.6,8.1-47.1,8.1h-37.3v62.7v62.7h354.2h354.2V2676.1z M3381.9,2613.4v-125.4
			h-96.1h-96.1v125.4v125.4h96.1h96.1V2613.4z"/>
		<path d="M1791.7,3836.5c-12.1-5.9-20.3-22.5-17.3-34.3c9-35,62.6-29.1,62.6,7C1836.9,3831,1811.3,3846.5,1791.7,3836.5z"/>
		<path d="M3276.4,3838.7c-13.2-4.8-22.6-17.3-22.6-29.5c0-31.7,44.1-42.8,58.8-15.1c6.8,12.5,4.1,28.8-5.3,37.2
			C3299.7,3838,3284.3,3841.7,3276.4,3838.7z"/>
		<path d="M1792.8,3238.4c-6.4-2.6-13.2-9.6-16.2-16.2c-13.2-32.1,30.9-57.9,52.8-30.6c4.1,4.8,7.5,13.6,7.5,19.2
			c0,12.9-12.1,28-24.1,30.2C1807.9,3242.1,1798.9,3240.6,1792.8,3238.4z"/>
		<path d="M3277.5,3241c-11.3-1.8-23.7-17.7-23.7-30.2c0-12.9,12.1-28,24.1-30.2c14.3-2.6,30.5,5.9,36.2,19.2
			C3323.5,3221.8,3303.1,3245.1,3277.5,3241z"/>
		<path d="M1784.2,2635.6c-16.2-15.9-12.4-39.5,7.5-49.8c31.3-15.9,60.7,24,35.8,47.9C1815.8,2645.1,1795.1,2646.2,1784.2,2635.6z"
			/>
		<path d="M3263.2,2633.7c-24.9-24,4.5-63.8,35.8-47.9c29.4,15.1,19.6,57.2-13.2,57.2C3276.4,2642.9,3269.2,2640,3263.2,2633.7z"/>
	</g>
</g>
</svg>
