<?xml version="1.0" encoding="utf-8"?>
<!-- Generator: Adobe Illustrator 24.1.2, SVG Export Plug-In . SVG Version: 6.00 Build 0)  -->
<svg version="1.1" xmlns="http://www.w3.org/2000/svg" xmlns:xlink="http://www.w3.org/1999/xlink" x="0px" y="0px"
	 viewBox="0 0 512 512" style="enable-background:new 0 0 512 512;" xml:space="preserve">
<style type="text/css">
	.st0{fill:#00000D;}
	.st1{fill:#0A1A33;}
	.st2{fill:#FFFFFF;}
</style>
<g id="Layer_1">
	<g id="Layer_1_2_">
		<g id="Layer_1_1_">
			<g id="Outline">
				<path class="st0" d="M256,16C158.3,16.7,79.5,96.4,80,194.1c0,62.7,28.8,132.3,85.6,206.9c25.5,33.5,54,64.7,85.1,93
					c3,2.6,7.5,2.6,10.5,0c31.2-28.3,59.6-59.5,85.1-93c56.8-74.5,85.6-144.2,85.6-206.9C432.5,96.4,353.7,16.7,256,16z M256,477.2
					c-28.2-26.3-160-156-160-283c0-24.2,5.4-47.2,15-67.8c13.4-28.7,35.2-52.8,62.1-69.1c24.2-14.7,52.6-23.1,82.9-23.1
					c88.4,0,160,71.6,160,160C416,321.2,284.2,450.9,256,477.2z"/>
				<path class="st1" d="M256,34.2c-30.3,0-58.7,8.4-82.9,23.1c-26.9,16.3-48.7,40.4-62.1,69.1c-9.6,20.6-15,43.6-15,67.8
					c0,127,131.8,256.7,160,283c28.2-26.3,160-156,160-283C416,105.8,344.4,34.2,256,34.2z M256,336c-79.5,0-144-64.5-144-144
					S176.5,48,256,48c79.5,0.1,143.9,64.5,144,144C400,271.5,335.5,336,256,336z"/>
				<path class="st0" d="M256,48c-79.5,0-144,64.5-144,144s64.5,144,144,144s144-64.5,144-144C399.9,112.5,335.5,48.1,256,48z
					 M383.8,198.5C383.8,198.5,383.8,198.6,383.8,198.5C380.4,264,328,316.4,262.6,319.8c0,0,0,0-0.1,0c-1.1,0.1-2.1,0.1-3.2,0.1
					s-2.2,0-3.3,0c-2.3,0-4.7-0.1-7-0.2c-0.4,0-0.8,0-1.3-0.1c-0.6,0-1.2-0.1-1.8-0.1c-1-0.1-2-0.2-3-0.3c-0.5,0-1.1-0.1-1.6-0.2
					s-1.1-0.1-1.6-0.2C176.8,311,128,257.2,128,192S176.8,73,239.8,65c0.5-0.1,1.1-0.1,1.6-0.2s1.1-0.1,1.6-0.2c1-0.1,2-0.2,3-0.3
					c0.6,0,1.2-0.1,1.8-0.1c0.4,0,0.8-0.1,1.3-0.1c1.3-0.1,2.6-0.1,4-0.2c0.3,0,0.7,0,1,0c0.7,0,1.3,0,2,0s1.4,0,2,0
					c1.4,0,2.7,0.1,4.1,0.1c0.7,0,1.3,0.1,2,0.1c1,0.1,1.9,0.1,2.9,0.2c0.9,0.1,1.9,0.2,2.8,0.3c1.9,0.2,3.7,0.5,5.6,0.7
					c0.6,0.1,1.1,0.2,1.7,0.3c1,0.2,2.1,0.4,3.1,0.5h0.1c29.2,5.6,54.8,21.2,73.3,43c2,2.4,3.9,4.8,5.8,7.4c0.3,0.4,0.6,0.8,0.9,1.3
					c0.4,0.6,0.9,1.3,1.3,1.9s0.9,1.3,1.3,1.9l0,0c0.6,0.9,1.1,1.7,1.6,2.6l0,0c0.8,1.2,1.5,2.4,2.2,3.7c0.1,0.1,0.1,0.2,0.2,0.3
					c0.3,0.5,0.6,1.1,0.9,1.6c1.1,2,2.2,4.1,3.2,6.2c0.3,0.5,0.5,1.1,0.8,1.6c2.1,4.4,3.9,8.9,5.4,13.6c0.1,0.4,0.3,0.8,0.4,1.2
					c0.8,2.5,1.5,5,2.2,7.6c0.1,0.4,0.2,0.8,0.3,1.3c0.4,1.7,0.8,3.4,1.1,5.1c0.1,0.4,0.2,0.8,0.2,1.2c0.3,1.3,0.5,2.7,0.7,4
					c0.1,0.7,0.2,1.4,0.3,2.1c0.1,0.7,0.2,1.3,0.3,2c0,0.1,0,0.2,0,0.3c0.1,0.7,0.2,1.3,0.2,2c0.1,1,0.2,2.1,0.3,3.1
					c0.1,0.6,0.1,1.1,0.1,1.7c0.1,0.8,0.1,1.5,0.1,2.3s0.1,1.6,0.1,2.5c0,0.6,0,1.2,0,1.9c0,0.9,0,1.8,0,2.6c0,1.1,0,2.2,0,3.3
					C383.9,196.4,383.9,197.4,383.8,198.5z"/>
			</g>
		</g>
		<ellipse class="st2" cx="256.1" cy="192" rx="127.9" ry="128"/>
	</g>
	<g id="Layer_2_1_">
	</g>
</g>
<g id="Layer_2">
	<g transform="translate(0.000000,512.000000) scale(0.100000,-0.100000)">
		<path d="M2497.2,4372.4c-7-7.1-12.7-15.9-12.7-19.5c0-4-12.7-9.3-38.2-15.5c-111.6-27.4-194.6-107.1-253.9-242.9
			c-35.1-81-63.3-196.4-70.3-288.9c-1.3-18.1-3.5-39.8-4.8-47.3l-2.2-14.6h-61.5c-96.7,0-98-1.3-95.3-127l1.3-77.4l12.3-10.6
			l12.3-10.6h651.6h651.6l10.5,11.5c10.1,11.1,10.5,13.7,11.9,92.5c1.8,90.2-2.2,109.3-23.3,117.2c-6.6,2.7-39.1,4.4-72.5,4.4h-61.1
			l-2.6,25.7c-11.9,116.8-23.3,179.2-46.1,250.8c-16.3,50.4-47.9,120.8-71.6,157.9c-54.9,85.8-123,137.6-210.4,159.3
			c-28.1,6.6-38.7,11.5-38.7,16.4c-0.4,9.3-8.8,19.9-20.6,26.1c-6.6,3.5-47,5.3-130.9,5.3H2510L2497.2,4372.4z M2708.5,4122v-188
			h37.3h37.3v167.7v167.7l23.3-5.8c90.5-22.1,162.6-97.8,210.9-221.2c26.8-68.6,50.5-178.3,57.6-268.5l2.2-30.1h-333.5h-333.9v-37.6
			v-37.6h413h413v-37.6v-37.6h-599.7h-599.7v37.6v37.6h149.4h149.4v37.6v37.6h-71.6h-72.1l1.8,25.7c3.1,46,14.9,121.7,26.4,171.2
			c42.6,182.3,130.9,298.2,247.4,324.7l17.6,4v-167.7V3934h37.3h37.3v188v188h74.7h74.7V4122z"/>
		<path d="M2047.3,3467.3c-11-10.6-11-10.6-11-104.8v-94.2l-36.9-15.9l-37.3-15.9l-60.6,61.5c-33.4,34.1-66.3,64.6-72.9,68.1
			c-22.4,11.9-35.1,3.5-125.2-88.5c-110.3-111.9-109-97.8-18.9-190.2l65.5-66.8l-7.9-15.5c-4.4-8.4-10.1-23.9-13.2-34.1l-5.7-18.6
			l-95.8-1.3c-93.1-1.3-96.2-1.8-105.9-11.5c-10.1-9.7-10.1-11.5-11.4-133.6c-1.3-140.7-0.4-146.4,29-154.4c8.8-2.7,54-4.9,99.7-4.9
			h83.5l13.6-34.5l13.2-34.1l-65-66.8c-88.7-91.6-90.5-75.6,24.2-191.1c94-94.2,100.6-99.1,123.9-85.8c4.8,2.7,36,32.3,69.4,66.4
			l60.6,61.5l36-14.6l36-14.6l2.2-98.7c1.3-54.4,3.1-99.1,3.5-99.5s6.6-4,14.1-8c10.5-5.3,33.8-6.6,133.6-6.6h120.8l12.3,10.6
			l12.3,10.6l1.3,96l1.3,95.6l11.9,4.9c6.6,2.7,22,9.3,34.3,14.6l22.8,10.2l60.6-61.5c66.8-67.2,81.7-77.4,101.5-70.3
			c14.5,5.8,170,159.7,179.7,178.7c4.4,7.5,5.7,16.8,4,24.3c-1.8,6.6-29.9,38.9-66.8,76.5c-47.9,48.2-63.3,66.8-61.5,73
			c1.3,4.4,7.5,19.9,13.6,34.5l11,26.5l94.9,2.2l95.3,2.2l10.5,12.4l10.5,12.4V2801v127.4l-11.4,10.6c-11,10.2-13.2,10.6-105.9,12.8
			l-94.5,2.2l-13.2,34.5l-13.6,34.5l61.5,62.8c34.3,34.5,64.1,67.7,67.2,73c2.6,5.8,4,15.9,2.2,22.1
			c-3.1,13.3-159.5,174.3-178.8,184.9c-21.5,11.1-33,4-101.1-63.7l-64.6-64.1l-34.3,13.7l-34.3,13.3l-2.2,95.1
			c-2.2,93.3-2.6,95.6-12.7,106.6l-10.5,11.5h-127h-127L2047.3,3467.3z M2260.4,3313.3c0-105.3-1.3-102.2,47-118.6
			c16.3-5.3,45.7-17.7,65-27c24.6-11.9,38.7-16.4,46.1-14.6c6.2,1.8,39.1,30.5,73.8,65.5l62.4,62.8l53.6-54.4l54-54l-62.4-62.8
			c-34.7-35.4-63.3-68.1-65-74.3c-1.8-7.5,2.6-21.2,13.6-44.2c8.8-18.1,20.6-46.9,26.4-63.7c18-52.6,14.5-51.3,119.1-51.3h89.2
			v-75.2v-75.2h-77.8c-43.1,0-85.7-2.2-94.5-4.9c-18-4.9-23.7-12.8-36.5-52.6c-4.4-13.3-15.8-40.3-25-59.7
			c-11.9-24.8-16.3-38.9-14.5-46.5c1.8-6.2,30.3-38.9,65-73.9l62.4-63.3l-52.7-53.1l-52.3-53.1l-61.9,61.5
			c-38.2,38.5-66.3,62.8-73.8,64.6c-9.7,2.7-21.1-0.9-50.5-14.6c-21.1-9.7-51.4-22.1-68.1-27.4c-17.1-5.8-32.1-13.7-36-19
			c-5.3-7.5-6.6-26.5-6.6-99.1v-89.8h-74.3h-74.7l-1.3,90.2c-1.8,105.3-0.4,102.6-47,118.1c-15.8,5.3-44.8,17.3-63.7,27
			c-19.3,9.3-40,16.8-46.1,16.8c-7.9,0-26.8-16.4-74.7-64.1l-64.1-64.1l-54,54l-53.6,54.4l63.7,64.6c47,47.3,63.7,67.2,63.7,75.2
			c0,5.8-6.2,23.4-14.1,39.4c-7.5,15.9-19.8,45.6-27.2,66.4c-19.3,52.6-20.2,53.1-126.5,53.1h-82.6v75.2v75.2h89.2
			c72.1,0,90.9,1.3,98.4,6.6c5.3,4,13.6,19.5,19.3,36.3c5.3,16.8,17.1,46,26.8,65c18,37.6,19.3,46.5,11.9,61.5
			c-2.6,5.3-31.2,36.7-63.7,69.5l-58.9,59.7l52.7,53.1l52.7,53.1l62.8-62.8c36.5-36.7,67.2-63.7,73.8-65.5
			c8.3-2.2,18.9,0.9,35.1,9.3c13.2,6.6,43.5,19.5,67.7,28.3c59.8,21.7,59.3,20.3,59.3,129.6v82.7h74.7h74.7V3313.3z"/>
		<path d="M2136.5,3097.9c-117.7-19.9-213.1-108.8-243-225.6c-9.7-36.7-9.7-103.5-0.4-143.3c24.6-105.7,111.2-193.8,217.9-222.1
			c18.5-4.9,44.8-7.5,74.7-7.1c84.4,0.4,152,28.8,211.8,89.4c26.8,27.9,37.3,42.5,53.6,75.6c43.9,92.5,43.9,177.8-0.4,269.4
			c-16.7,34.5-26.8,48.2-56.2,77.9c-29.4,30.1-43.1,39.8-77.3,56.2C2255.6,3098.3,2196.3,3108,2136.5,3097.9z M2231,3020.5
			c141.5-30.1,218.8-190.7,153.8-320.3c-56.2-112.4-187.2-157.5-297.9-102.6c-138.8,69-169.6,252.2-60.6,361
			C2082.9,3014.7,2155,3036.8,2231,3020.5z"/>
		<path d="M3138.7,3472.6c-13.2-10.2-17.1-24.8-17.1-61.5v-36.3l-28.6,28.3c-43.9,43.8-44.8,43.4-123-35.4
			c-77.8-78.3-77.8-78.7-37.3-121.2c14.5-15.5,26.4-29.2,26.4-30.5c0-1.8-17.1-3.1-38.2-3.1c-60.6-0.4-62.8-4.4-62.8-111
			c0-107.1,4.8-114.6,71.6-114.6h30.8l-26.8-28.3c-23.3-24.3-27.2-31-27.2-44.7c0-15,4.8-21.2,56.2-73.9
			c56.2-58,71.6-69.9,88.7-69.9c5.7,0,21.5,11.9,40,29.6l30.3,29.2v-36.3c0-37.6,6.6-58.8,19.8-64.1c4-1.3,46.6-2.7,94.9-2.7
			c87.4,0,87.9,0,98.4,11.1c10.1,9.7,11,14.2,11,51.3v40.7l30.3-29.2c18.5-17.7,34.3-29.6,40-29.6c17.1,0,32.5,11.9,89.2,69.9
			c51.4,52.6,55.8,58.4,55.8,73.4c0,14.2-3.5,20.8-26.8,44.7l-26.4,27.9l39.5,1.3c60.2,2.7,59.3,1.3,61.1,104.4
			c1.8,89.8,0.4,99.1-12.3,111.9c-7.5,7.5-14.9,8.8-48.3,8.8c-21.5,0-39.5,1.8-39.5,3.5s11.9,15,26.4,29.6
			c23.3,23,26.4,28.3,26.4,43.4c0,16.4-3.5,21.2-57.6,76.5c-78.6,80.5-83.5,81.4-132.2,33.6l-25.5-24.8v40.7c0,37.6-0.9,42-11,51.8
			c-10.5,11.1-11,11.1-99.7,11.1C3171.6,3477.9,3143.5,3476.6,3138.7,3472.6z M3270.9,3356.7c0-56.2,4.8-68.6,30.8-79.2
			c33.8-13.7,41.3-11.1,81.7,29.2l36.9,36.3l26.4-26.1l26.4-26.1l-35.1-35.8c-18.9-19.9-36-41.1-37.3-47.3c-1.8-7.5,0.4-19.5,7-34.5
			c12.7-30.5,24.6-35.4,83-35.4h43.9v-37.6v-37.6h-52.3H3430l-11.4-13.3c-14.9-18.1-22.4-45.6-15.4-58.4
			c2.6-5.8,19.3-25.2,37.3-43.4l32.5-33.6l-26.4-26.1l-26.4-26.1l-36.9,36.3c-40,39.4-47.9,42.5-78.6,29.6
			c-29-11.9-33.8-23.4-33.8-77.9v-48.2h-37.3h-37.3v50c0,56.2-3.5,63.7-32.5,75.6c-31.6,13.3-38.7,10.6-80-29.2l-37.3-36.3
			l-23.7,23.9c-13.2,13.3-24.2,26.1-24.2,28.3s15.8,20.8,35.1,40.7s35.1,39.4,35.1,43.8c0,13.3-9.2,39.8-17.6,51.3
			c-7.9,10.2-11.4,10.6-62.4,12.8l-54,2.2l-1.3,36.7l-1.3,36.3h45.3c57.1,0,72.1,6.2,83.9,36.3c5.3,13.7,7.5,25.2,5.7,33.2
			c-1.8,6.2-18.5,27.4-36.9,46.5l-33.4,34.5l25.9,26.5l25.9,26.5l36-35.4c31.6-31.4,37.8-35.4,51.8-35.4c18.9,0,48.8,14.2,55.4,26.1
			c2.2,4.9,4.4,30.5,4.4,57.5v49.1h37.3h37.3V3356.7z"/>
		<path d="M3199.3,3248.3c-41.7-10.6-80.8-42.9-99.7-81.8c-15.4-31.9-17.6-83.6-4.4-118.1c28.1-75.6,116-115.9,190.7-87.6
			c84.4,32.3,121.3,133.6,78.2,213.7C3334.2,3230.6,3260.4,3263.3,3199.3,3248.3z M3266.5,3167.8c45.3-23.4,55.4-77.4,21.5-116.3
			c-15.8-18.1-37.8-26.1-64.1-23c-22.8,2.7-38.7,12.8-53.2,34.5c-8.8,12.8-10.1,19.5-8.8,41.6c2.2,32.7,14.5,52.6,40.4,64.6
			C3226.1,3180.2,3243.2,3179.7,3266.5,3167.8z"/>
	</g>
</g>
</svg>
