<?xml version="1.0" encoding="utf-8"?>
<!-- Generator: Adobe Illustrator 24.1.2, SVG Export Plug-In . SVG Version: 6.00 Build 0)  -->
<svg version="1.1" xmlns="http://www.w3.org/2000/svg" xmlns:xlink="http://www.w3.org/1999/xlink" x="0px" y="0px"
	 viewBox="0 0 512 512" style="enable-background:new 0 0 512 512;" xml:space="preserve">
<style type="text/css">
	.st0{fill:#00000D;}
	.st1{fill:#0A1A33;}
	.st2{fill:#FFFFFF;}
</style>
<g id="Layer_1">
	<g id="Layer_1_2_">
		<g id="Layer_1_1_">
			<g id="Outline">
				<path class="st0" d="M256,16C158.3,16.7,79.5,96.4,80,194.1c0,62.7,28.8,132.3,85.6,206.9c25.5,33.5,54,64.7,85.1,93
					c3,2.6,7.5,2.6,10.5,0c31.2-28.3,59.6-59.5,85.1-93c56.8-74.5,85.6-144.2,85.6-206.9C432.5,96.4,353.7,16.7,256,16z M256,477.2
					c-28.2-26.3-160-156-160-283c0-24.2,5.4-47.2,15-67.8c13.4-28.7,35.2-52.8,62.1-69.1c24.2-14.7,52.6-23.1,82.9-23.1
					c88.4,0,160,71.6,160,160C416,321.2,284.2,450.9,256,477.2z"/>
				<path class="st1" d="M256,34.2c-30.3,0-58.7,8.4-82.9,23.1c-26.9,16.3-48.7,40.4-62.1,69.1c-9.6,20.6-15,43.6-15,67.8
					c0,127,131.8,256.7,160,283c28.2-26.3,160-156,160-283C416,105.8,344.4,34.2,256,34.2z M256,336c-79.5,0-144-64.5-144-144
					S176.5,48,256,48c79.5,0.1,143.9,64.5,144,144C400,271.5,335.5,336,256,336z"/>
				<path class="st0" d="M256,48c-79.5,0-144,64.5-144,144s64.5,144,144,144s144-64.5,144-144C399.9,112.5,335.5,48.1,256,48z
					 M383.8,198.5C383.8,198.5,383.8,198.6,383.8,198.5C380.4,264,328,316.4,262.6,319.8c0,0,0,0-0.1,0c-1.1,0.1-2.1,0.1-3.2,0.1
					s-2.2,0-3.3,0c-2.3,0-4.7-0.1-7-0.2c-0.4,0-0.8,0-1.3-0.1c-0.6,0-1.2-0.1-1.8-0.1c-1-0.1-2-0.2-3-0.3c-0.5,0-1.1-0.1-1.6-0.2
					s-1.1-0.1-1.6-0.2C176.8,311,128,257.2,128,192S176.8,73,239.8,65c0.5-0.1,1.1-0.1,1.6-0.2s1.1-0.1,1.6-0.2c1-0.1,2-0.2,3-0.3
					c0.6,0,1.2-0.1,1.8-0.1c0.4,0,0.8-0.1,1.3-0.1c1.3-0.1,2.6-0.1,4-0.2c0.3,0,0.7,0,1,0c0.7,0,1.3,0,2,0s1.4,0,2,0
					c1.4,0,2.7,0.1,4.1,0.1c0.7,0,1.3,0.1,2,0.1c1,0.1,1.9,0.1,2.9,0.2c0.9,0.1,1.9,0.2,2.8,0.3c1.9,0.2,3.7,0.5,5.6,0.7
					c0.6,0.1,1.1,0.2,1.7,0.3c1,0.2,2.1,0.4,3.1,0.5h0.1c29.2,5.6,54.8,21.2,73.3,43c2,2.4,3.9,4.8,5.8,7.4c0.3,0.4,0.6,0.8,0.9,1.3
					c0.4,0.6,0.9,1.3,1.3,1.9s0.9,1.3,1.3,1.9l0,0c0.6,0.9,1.1,1.7,1.6,2.6l0,0c0.8,1.2,1.5,2.4,2.2,3.7c0.1,0.1,0.1,0.2,0.2,0.3
					c0.3,0.5,0.6,1.1,0.9,1.6c1.1,2,2.2,4.1,3.2,6.2c0.3,0.5,0.5,1.1,0.8,1.6c2.1,4.4,3.9,8.9,5.4,13.6c0.1,0.4,0.3,0.8,0.4,1.2
					c0.8,2.5,1.5,5,2.2,7.6c0.1,0.4,0.2,0.8,0.3,1.3c0.4,1.7,0.8,3.4,1.1,5.1c0.1,0.4,0.2,0.8,0.2,1.2c0.3,1.3,0.5,2.7,0.7,4
					c0.1,0.7,0.2,1.4,0.3,2.1c0.1,0.7,0.2,1.3,0.3,2c0,0.1,0,0.2,0,0.3c0.1,0.7,0.2,1.3,0.2,2c0.1,1,0.2,2.1,0.3,3.1
					c0.1,0.6,0.1,1.1,0.1,1.7c0.1,0.8,0.1,1.5,0.1,2.3s0.1,1.6,0.1,2.5c0,0.6,0,1.2,0,1.9c0,0.9,0,1.8,0,2.6c0,1.1,0,2.2,0,3.3
					C383.9,196.4,383.9,197.4,383.8,198.5z"/>
			</g>
		</g>
		<ellipse class="st2" cx="256.1" cy="192" rx="127.9" ry="128"/>
	</g>
	<g id="Layer_2_1_">
	</g>
</g>
<g id="Layer_2">
	<g transform="translate(0.000000,512.000000) scale(0.100000,-0.100000)">
		<path d="M2168.2,4072.1c-14.9-9.1-17.2-17-17.2-60.9v-42.7h-227.1h-227.5l-9.2-10.9l-9.5-10.4v-205v-204.6h-34.3
			c-37.8,0-50.4-4.4-56.9-20.5c-3.1-7-4.2-74.9-4.2-216.4c0-248.1-5.3-225.5,54.2-229l39.3-2.2l1.9-205.5
			c1.9-201.1,1.9-205.9,9.9-214.6c5.3-6.1,14.9-10,29-11.8l21.4-2.6l1.5-46.1c1.9-51.8,8-72.7,27.1-95.3
			c22.5-27,37.4-32.7,88.9-34.8c72.5-3,106.5,13.5,125.9,61.8c7.6,19.2,9.2,29.2,9.2,69.2v46.6h299.2h299.6l5-11.8
			c2.7-7,10.7-14.8,17.6-18.3c12.2-6.1,12.2-6.5,12.2-37c0-36.6,8.8-60.1,30.5-82.7c20.2-20.9,46.2-28.7,93.5-28.7
			c48.1,0,73.3,7.8,94.3,29.6c19.8,20.5,29,43.5,32.1,82.7l2.7,31.3h188.2H3254v-29.2c0-54.4,25.2-94,68.3-108.4
			c30.5-10.4,107.2-7,128.2,5.7c34,20,51.5,53.1,54.6,102.7c1.5,26.1,3.1,30.5,10.3,33.5c20.6,9.1,21,11.3,21,177.2v153.2l-9.2,12.2
			c-8.8,11.8-10.7,12.2-51.1,13.5l-42,1.7l-29.4,134.5c-26,117.5-30.9,135.8-39.3,143.2c-9.2,8.3-16,8.7-186.2,8.7h-176.7
			l-1.1,132.8c-1.5,161.9,2.3,151.5-56.5,153.7l-37.8,1.7l-1.1,204.6l-1.1,204.6l-10.7,10.4l-10.7,10.4h-209.9h-209.5v42.7
			c-0.4,44-2.7,51.8-17.9,60.9C2434.9,4079.1,2179.2,4079.1,2168.2,4072.1z M2402.9,3985.9v-17.4h-95.4h-95.4v17.4v17.4h95.4h95.4
			V3985.9z M2841.8,3574.5v-324.3h-15.3h-15.3v184.6v185l-9.2,12.2l-9.2,12.2l-490,1.3c-269.1,0.4-495.4,0-502.2-1.3
			c-6.9-1.3-16-6.5-20.2-11.3c-6.9-7.8-7.3-16.5-7.3-258.2v-250.3l9.9-8.7c10.3-9.1,10.7-9.1,475.2-9.1c256.1,0,465.2-1.3,465.2-2.6
			c0-2.2-18.7-88.4-27.1-124.5l-3.4-15.7l-42-1.7c-62.6-2.2-58.8,6.5-60.3-136.3l-1.1-115.4h-33.2h-33.6l-12.6,90.6
			c-7.3,49.6-15.3,96.2-18.3,104c-3.4,8.7-9.9,15.7-17.2,18.3c-16.4,6.5-318.3,6.5-334.7,0c-6.5-2.6-14.1-9.1-16.4-14.4
			c-2.7-4.8-10.7-51.4-18.3-102.7l-13.7-93.6l-176.3-1.3l-176.3-0.9v591.2c0,325.2,1.1,592.9,2.7,594.2c1.1,1.7,249.6,3,551.5,3
			h548.8V3574.5z M2750.2,3397.4c0-129.3-1.5-181.1-5-197.2l-5-21.8l-453-1.3l-453-0.9v198.1v198.1h458h458V3397.4z M1677.8,3302.5
			v-161.1h-15.3h-15.3v161.1v161.1h15.3h15.3V3302.5z M2937.2,3356.9v-106.7h-15.3h-15.3v106.7v106.7h15.3h15.3V3356.9z
			 M3324.6,3166.6c6.9-27.9,34-25.3-260.7-25.3h-267.2l3.8,17.4l3.8,17.4h259.1h258.8L3324.6,3166.6z M3349,3055.6
			c8.8-38.3,19.5-87.9,19.5-90.1c0-1.3-137.4-2.6-305.7-2.6c-289.3,0-305.3,0.4-303.4,7.8c1.1,3.9,6.5,28.3,12.2,54.4l9.9,46.6h282
			h281.7L3349,3055.6z M2742.6,2879.7c-37-19.2-55-50.9-55-97.5c0-46.6,17.9-78.4,55-97.5l17.2-9.1h-52.3h-52.7v106.7v106.7h52.7
			h52.3L2742.6,2879.7z M3313.9,2882.3c-45.8-18.3-69.8-76.6-55.7-134.5c5.3-22.2,35.1-57.5,55-65.7c13.4-5.2-16-6.1-247.7-6.5
			h-263.3l19.8,11.3c67.9,38.7,67.9,151.9,0,190.7l-19.8,11.3h263.3C3292.9,2888.4,3326.5,2887.6,3313.9,2882.3z M3471.5,2782.2
			v-106.7l-52.3,0.4c-44.3,0.4-50.4,1.3-39.3,5.2c18.7,7,50.8,44.4,56.5,66.6c5.7,22.6,5.7,46.1,0,68.3
			c-6.1,23.1-35.1,58.3-54.6,66.2c-14.5,5.7-12.6,6.1,37.4,6.5h52.3V2782.2z M2439.1,2844.5c1.1-5.7,5.7-37.9,10.7-71.8l9.2-62.3
			h-152.3c-143.5,0-152.3,0.4-150.4,7.8c0.8,3.9,5.3,34,9.9,66.2c4.6,32.2,8.8,61.4,9.5,64.4c1.1,3.9,30.9,5.2,131.3,5.2h130.1
			L2439.1,2844.5z M2802.9,2803.5c20.6-26.6-3.4-65.3-33.6-53.5c-13.4,5.7-19.1,15.2-19.1,33.1
			C2750.2,2816.2,2783,2828.8,2802.9,2803.5z M3370.4,2806.2c17.9-20.5,3.4-58.3-22.5-58.3c-23.3,0-38.2,25.3-28.2,48.8
			C3329.5,2819.7,3354,2824,3370.4,2806.2z M1929.6,2598.9c0-61.4-5.3-66.6-64.1-67c-40.8,0-43.5,0.4-52.3,10.9
			c-8.8,9.6-9.5,13.9-9.5,52.2v41.4h63h63V2598.9z M2811.2,2577.6c0-20-1.5-26.1-9.5-34.8c-8.8-10.4-11.8-10.9-51.1-10.9
			c-22.9,0-44.7,1.3-48.1,2.6c-9.5,4.4-17.2,25.3-17.2,47.5v19.6h63h63V2577.6z M3441,2577.6c0-20-1.5-26.1-9.5-34.8
			c-8.8-10.4-11.4-10.9-52.3-10.9c-27.9,0.4-45.4,2.2-49.2,5.7c-9.9,8.7-14.9,23.1-14.9,44v20h63h63V2577.6z"/>
		<path d="M2065.1,3848.8c-9.2-10-9.5-12.2-9.5-77.1c0.4-69.7,1.5-75.8,17.9-85.3c11.4-7,454.5-7.4,467.9-0.4
			c14.9,7.8,17.9,21.8,17.9,84.9c0,60.9-3.8,80.1-17.2,86.2c-3.4,1.3-110.3,2.6-237,2.6h-230.9L2065.1,3848.8z M2494.5,3770.4v-19.6
			l-187.8,0.9l-188.2,1.3l-1.1,12.2c-2.7,26.1-13.7,24.8,190.1,24.8h187V3770.4z"/>
		<path d="M1856.4,3026c-50.4-21.3-83.2-74.4-83.2-135.4c0-107.1,97.3-175.4,181.3-127.6c20.2,11.8,44.3,39.2,55.3,63.1
			c16.4,37,16.4,91.4-0.4,129.3c-11.8,26.6-42.4,57.5-66.8,68.3C1918.2,3033.8,1878.1,3035.2,1856.4,3026z M1931.2,2950.3
			c18.3-13.1,30.5-43.1,27.9-68.8c-7.3-75.3-101.9-84.5-121-11.3c-6.5,24.8-2.3,46.6,14.1,67
			C1873.5,2964.2,1904.1,2969.4,1931.2,2950.3z"/>
	</g>
</g>
</svg>
