<?xml version="1.0" encoding="utf-8"?>
<!-- Generator: Adobe Illustrator 24.1.2, SVG Export Plug-In . SVG Version: 6.00 Build 0)  -->
<svg version="1.1" xmlns="http://www.w3.org/2000/svg" xmlns:xlink="http://www.w3.org/1999/xlink" x="0px" y="0px"
	 viewBox="0 0 512 512" style="enable-background:new 0 0 512 512;" xml:space="preserve">
<style type="text/css">
	.st0{fill:#00000D;}
	.st1{fill:#0A1A33;}
	.st2{fill:#FFFFFF;}
</style>
<g id="Layer_1">
	<g id="Layer_1_1_">
		<g id="Outline">
			<path class="st0" d="M256,16C158.3,16.7,79.5,96.4,80,194.1c0,62.7,28.8,132.3,85.6,206.9c25.5,33.5,54,64.7,85.1,93
				c3,2.6,7.5,2.6,10.5,0c31.2-28.3,59.6-59.5,85.1-93c56.8-74.5,85.6-144.2,85.6-206.9C432.5,96.4,353.7,16.7,256,16z M256,477.2
				c-28.2-26.3-160-156-160-283c0-24.2,5.4-47.2,15-67.8c13.4-28.7,35.2-52.8,62.1-69.1c24.2-14.7,52.6-23.1,82.9-23.1
				c88.4,0,160,71.6,160,160C416,321.2,284.2,450.9,256,477.2z"/>
			<path class="st1" d="M256,34.2c-30.3,0-58.7,8.4-82.9,23.1c-26.9,16.3-48.7,40.4-62.1,69.1c-9.6,20.6-15,43.6-15,67.8
				c0,127,131.8,256.7,160,283c28.2-26.3,160-156,160-283C416,105.8,344.4,34.2,256,34.2z M256,336c-79.5,0-144-64.5-144-144
				S176.5,48,256,48c79.5,0.1,143.9,64.5,144,144C400,271.5,335.5,336,256,336z"/>
			<path class="st0" d="M256,48c-79.5,0-144,64.5-144,144s64.5,144,144,144s144-64.5,144-144C399.9,112.5,335.5,48.1,256,48z
				 M383.8,198.5C383.8,198.5,383.8,198.6,383.8,198.5C380.4,264,328,316.4,262.6,319.8c0,0,0,0-0.1,0c-1.1,0.1-2.1,0.1-3.2,0.1
				s-2.2,0-3.3,0c-2.3,0-4.7-0.1-7-0.2c-0.4,0-0.8,0-1.3-0.1c-0.6,0-1.2-0.1-1.8-0.1c-1-0.1-2-0.2-3-0.3c-0.5,0-1.1-0.1-1.6-0.2
				s-1.1-0.1-1.6-0.2C176.8,311,128,257.2,128,192S176.8,73,239.8,65c0.5-0.1,1.1-0.1,1.6-0.2s1.1-0.1,1.6-0.2c1-0.1,2-0.2,3-0.3
				c0.6,0,1.2-0.1,1.8-0.1c0.4,0,0.8-0.1,1.3-0.1c1.3-0.1,2.6-0.1,4-0.2c0.3,0,0.7,0,1,0c0.7,0,1.3,0,2,0s1.4,0,2,0
				c1.4,0,2.7,0.1,4.1,0.1c0.7,0,1.3,0.1,2,0.1c1,0.1,1.9,0.1,2.9,0.2c0.9,0.1,1.9,0.2,2.8,0.3c1.9,0.2,3.7,0.5,5.6,0.7
				c0.6,0.1,1.1,0.2,1.7,0.3c1,0.2,2.1,0.4,3.1,0.5h0.1c29.2,5.6,54.8,21.2,73.3,43c2,2.4,3.9,4.8,5.8,7.4c0.3,0.4,0.6,0.8,0.9,1.3
				c0.4,0.6,0.9,1.3,1.3,1.9s0.9,1.3,1.3,1.9l0,0c0.6,0.9,1.1,1.7,1.6,2.6l0,0c0.8,1.2,1.5,2.4,2.2,3.7c0.1,0.1,0.1,0.2,0.2,0.3
				c0.3,0.5,0.6,1.1,0.9,1.6c1.1,2,2.2,4.1,3.2,6.2c0.3,0.5,0.5,1.1,0.8,1.6c2.1,4.4,3.9,8.9,5.4,13.6c0.1,0.4,0.3,0.8,0.4,1.2
				c0.8,2.5,1.5,5,2.2,7.6c0.1,0.4,0.2,0.8,0.3,1.3c0.4,1.7,0.8,3.4,1.1,5.1c0.1,0.4,0.2,0.8,0.2,1.2c0.3,1.3,0.5,2.7,0.7,4
				c0.1,0.7,0.2,1.4,0.3,2.1c0.1,0.7,0.2,1.3,0.3,2c0,0.1,0,0.2,0,0.3c0.1,0.7,0.2,1.3,0.2,2c0.1,1,0.2,2.1,0.3,3.1
				c0.1,0.6,0.1,1.1,0.1,1.7c0.1,0.8,0.1,1.5,0.1,2.3s0.1,1.6,0.1,2.5c0,0.6,0,1.2,0,1.9c0,0.9,0,1.8,0,2.6c0,1.1,0,2.2,0,3.3
				C383.9,196.4,383.9,197.4,383.8,198.5z"/>
		</g>
	</g>
	<ellipse class="st2" cx="256.1" cy="192" rx="127.9" ry="128"/>
</g>
<g id="Layer_2">
	<path d="M220,198.1h5.6v5.9H220V198.1z"/>
	<path d="M231.1,198.1h5.6v5.9h-5.6V198.1z"/>
	<path d="M242.2,198.1h5.6v5.9h-5.6V198.1z"/>
	<path d="M220,209.9h5.6v5.9H220V209.9z"/>
	<path d="M231.1,209.9h5.6v5.9h-5.6V209.9z"/>
	<path d="M242.2,209.9h5.6v5.9h-5.6V209.9z"/>
	<path d="M253.3,209.9h5.6v5.9h-5.6V209.9z"/>
	<path d="M264.4,209.9h5.6v5.9h-5.6V209.9z"/>
	<path d="M220,221.7h5.6v5.9H220V221.7z"/>
	<path d="M231.1,221.7h5.6v5.9h-5.6V221.7z"/>
	<path d="M242.2,221.7h5.6v5.9h-5.6V221.7z"/>
	<path d="M253.3,221.7h5.6v5.9h-5.6V221.7z"/>
	<path d="M264.4,221.7h5.6v5.9h-5.6V221.7z"/>
	<path d="M220,233.5h5.6v5.9H220V233.5z"/>
	<path d="M231.1,233.5h5.6v5.9h-5.6V233.5z"/>
	<path d="M242.2,233.5h5.6v5.9h-5.6V233.5z"/>
	<path d="M253.3,233.5h5.6v5.9h-5.6V233.5z"/>
	<path d="M264.4,233.5h5.6v5.9h-5.6V233.5z"/>
	<path d="M220,245.3h5.6v5.9H220V245.3z"/>
	<path d="M231.1,245.3h5.6v5.9h-5.6V245.3z"/>
	<path d="M242.2,245.3h5.6v5.9h-5.6V245.3z"/>
	<path d="M253.3,245.3h5.6v5.9h-5.6V245.3z"/>
	<path d="M264.4,245.3h5.6v5.9h-5.6V245.3z"/>
	<path d="M220,257.1h5.6v5.9H220V257.1z"/>
	<path d="M231.1,257.1h5.6v5.9h-5.6V257.1z"/>
	<path d="M242.2,257.1h5.6v5.9h-5.6V257.1z"/>
	<path d="M253.3,257.1h5.6v5.9h-5.6V257.1z"/>
	<path d="M264.4,257.1h5.6v5.9h-5.6V257.1z"/>
	<path d="M336.7,106.8h-19.4v-5.9c0-1.6-1.2-2.9-2.8-2.9h-27.8c-1.5,0-2.8,1.3-2.8,2.9v5.9H175.5c-1.5,0-2.8,1.3-2.8,2.9v11.8
		c0,1.6,1.2,2.9,2.8,2.9h8.3v56c0,1.6,1.2,2.9,2.8,2.9s2.8,1.3,2.8,2.9c0,1.6-1.2,2.9-2.8,2.9s-2.8-1.3-2.8-2.9h-5.6
		c0,2.2,0.8,4.2,2.1,5.8l-7.1,10.1l0,0c-0.4,0.5-0.6,1.1-0.6,1.7v11.8c0,0.8,0.3,1.5,0.8,2.1l5.6,5.9c0.5,0.6,1.2,0.9,2,0.9h11.1
		c0.7,0,1.4-0.3,2-0.9l5.6-5.9c0.5-0.6,0.8-1.3,0.8-2.1V204c0-0.6-0.2-1.2-0.6-1.7l0,0l-7.1-10.1c1.9-2.2,2.6-5.2,1.9-8.1
		c-0.7-2.8-2.7-5.1-5.3-6.1v-53.5h94.4v2.9c0,1.6,1.2,2.9,2.8,2.9h5.6v138.5h-11.1V151h-5.6v11.8h-16.7v-5.9h-5.6v5.9h-16.7v-2.9
		h-5.6v2.9h-16.7v-8.8h36.1V148h-36.1v-11.8h-5.6v132.6h-4.4L191.4,255c-1.1-1.2-2.8-1.2-3.9,0l-13.1,13.9h-1.6v5.9h166.7v-5.9h-2.2
		c2-2.3,2.6-5.4,1.8-8.4c-0.8-2.9-3-5.2-5.8-6c1.4-3.7,0.3-7.9-2.7-10.3c-3-2.4-7.1-2.4-10.1,0c-3,2.4-4.1,6.7-2.7,10.3
		c-2.8,0.8-5,3.1-5.8,6c-0.8,2.9-0.1,6.1,1.8,8.4h-4.9V130.3h5.6c1.5,0,2.8-1.3,2.8-2.9v-2.9h19.4c1.5,0,2.8-1.3,2.8-2.9v-11.8
		C339.4,108.1,338.2,106.8,336.7,106.8z M188,195.2l4.2,5.9h-11.1l4.2-5.9H188z M195,214.6l-3.9,4.2h-8.8l-3.9-4.2V207H195V214.6z
		 M324.7,112.7l-7.5,5.3v-5.3H324.7z M289.4,103.8h11.1v11.8h-11.1V103.8z M214.4,113.3l7.5,5.3h-15L214.4,113.3z M197.8,118
		l-7.5-5.3h15L197.8,118z M223.6,112.7h15l-7.5,5.3L223.6,112.7z M247.8,113.3l7.5,5.3h-15L247.8,113.3z M256.9,112.7h15l-7.5,5.3
		L256.9,112.7z M178.3,112.7h1.9l8.3,5.9h-10.3V112.7z M273.6,118.6l8.3-5.9h1.9v5.9H273.6z M303.3,259.1l-5-8l5-8V259.1z
		 M303.3,188.4l-5-8l5-8V188.4z M297.8,190.2l5,8l-5,8V190.2z M297.8,170.7v-15.9l5,8L297.8,170.7z M297.8,225.5l5,8l-5,8V225.5z
		 M303.3,223.7l-5-7.9l5-8V223.7z M298.3,145.1l5-8V153L298.3,145.1z M297.8,135.4v-5h3.1L297.8,135.4z M275.5,168.7v29.5h-16.7
		v-29.5H275.5z M253.3,168.7V194l-6.4-6.7c-0.5-0.5-1.2-0.8-1.9-0.9h-8.3v-17.8H253.3z M231.1,168.7v4.9h-16.7v-4.9H231.1z
		 M189.4,261.2l7.2,7.6h-14.4L189.4,261.2z M214.4,268.8v-89.4h16.7v9.9c0,1.6,1.2,2.9,2.8,2.9h10l10.3,10.8
		c0.5,0.5,1.2,0.8,1.9,0.9h19.4v64.8H214.4z M297.8,260.9l5,8h-5V260.9z M331.1,265.9c-1.5,0-2.8-1.3-2.8-2.9c0-1.6,1.2-2.9,2.8-2.9
		c1.5,0,2.8,1.3,2.8,2.9C333.9,264.6,332.6,265.9,331.1,265.9z M325.5,248.2c1.5,0,2.8,1.3,2.8,2.9c0,1.6-1.2,2.9-2.8,2.9
		c-1.5,0-2.8-1.3-2.8-2.9C322.8,249.5,324,248.2,325.5,248.2z M320,260c1.5,0,2.8,1.3,2.8,2.9c0,1.6-1.2,2.9-2.8,2.9
		c-1.5,0-2.8-1.3-2.8-2.9C317.2,261.3,318.5,260,320,260z M311.7,124.5h-22.2v-2.9h13.9c1.5,0,2.8-1.3,2.8-2.9v-14.7h5.6V124.5z
		 M326.4,118.6l7.5-5.3v5.3H326.4z"/>
</g>
</svg>
