<?xml version="1.0" encoding="utf-8"?>
<!-- Generator: Adobe Illustrator 24.1.2, SVG Export Plug-In . SVG Version: 6.00 Build 0)  -->
<svg version="1.1" xmlns="http://www.w3.org/2000/svg" xmlns:xlink="http://www.w3.org/1999/xlink" x="0px" y="0px"
	 viewBox="0 0 512 512" style="enable-background:new 0 0 512 512;" xml:space="preserve">
<style type="text/css">
	.st0{fill:#00000D;}
	.st1{fill:#0A1A33;}
	.st2{fill:#FFFFFF;}
</style>
<g id="Layer_1">
	<g id="Layer_1_2_">
		<g id="Layer_1_1_">
			<g id="Outline">
				<path class="st0" d="M256,16C158.3,16.7,79.5,96.4,80,194.1c0,62.7,28.8,132.3,85.6,206.9c25.5,33.5,54,64.7,85.1,93
					c3,2.6,7.5,2.6,10.5,0c31.2-28.3,59.6-59.5,85.1-93c56.8-74.5,85.6-144.2,85.6-206.9C432.5,96.4,353.7,16.7,256,16z M256,477.2
					c-28.2-26.3-160-156-160-283c0-24.2,5.4-47.2,15-67.8c13.4-28.7,35.2-52.8,62.1-69.1c24.2-14.7,52.6-23.1,82.9-23.1
					c88.4,0,160,71.6,160,160C416,321.2,284.2,450.9,256,477.2z"/>
				<path class="st1" d="M256,34.2c-30.3,0-58.7,8.4-82.9,23.1c-26.9,16.3-48.7,40.4-62.1,69.1c-9.6,20.6-15,43.6-15,67.8
					c0,127,131.8,256.7,160,283c28.2-26.3,160-156,160-283C416,105.8,344.4,34.2,256,34.2z M256,336c-79.5,0-144-64.5-144-144
					S176.5,48,256,48c79.5,0.1,143.9,64.5,144,144C400,271.5,335.5,336,256,336z"/>
				<path class="st0" d="M256,48c-79.5,0-144,64.5-144,144s64.5,144,144,144s144-64.5,144-144C399.9,112.5,335.5,48.1,256,48z
					 M383.8,198.5C383.8,198.5,383.8,198.6,383.8,198.5C380.4,264,328,316.4,262.6,319.8c0,0,0,0-0.1,0c-1.1,0.1-2.1,0.1-3.2,0.1
					s-2.2,0-3.3,0c-2.3,0-4.7-0.1-7-0.2c-0.4,0-0.8,0-1.3-0.1c-0.6,0-1.2-0.1-1.8-0.1c-1-0.1-2-0.2-3-0.3c-0.5,0-1.1-0.1-1.6-0.2
					s-1.1-0.1-1.6-0.2C176.8,311,128,257.2,128,192S176.8,73,239.8,65c0.5-0.1,1.1-0.1,1.6-0.2s1.1-0.1,1.6-0.2c1-0.1,2-0.2,3-0.3
					c0.6,0,1.2-0.1,1.8-0.1c0.4,0,0.8-0.1,1.3-0.1c1.3-0.1,2.6-0.1,4-0.2c0.3,0,0.7,0,1,0c0.7,0,1.3,0,2,0s1.4,0,2,0
					c1.4,0,2.7,0.1,4.1,0.1c0.7,0,1.3,0.1,2,0.1c1,0.1,1.9,0.1,2.9,0.2c0.9,0.1,1.9,0.2,2.8,0.3c1.9,0.2,3.7,0.5,5.6,0.7
					c0.6,0.1,1.1,0.2,1.7,0.3c1,0.2,2.1,0.4,3.1,0.5h0.1c29.2,5.6,54.8,21.2,73.3,43c2,2.4,3.9,4.8,5.8,7.4c0.3,0.4,0.6,0.8,0.9,1.3
					c0.4,0.6,0.9,1.3,1.3,1.9s0.9,1.3,1.3,1.9l0,0c0.6,0.9,1.1,1.7,1.6,2.6l0,0c0.8,1.2,1.5,2.4,2.2,3.7c0.1,0.1,0.1,0.2,0.2,0.3
					c0.3,0.5,0.6,1.1,0.9,1.6c1.1,2,2.2,4.1,3.2,6.2c0.3,0.5,0.5,1.1,0.8,1.6c2.1,4.4,3.9,8.9,5.4,13.6c0.1,0.4,0.3,0.8,0.4,1.2
					c0.8,2.5,1.5,5,2.2,7.6c0.1,0.4,0.2,0.8,0.3,1.3c0.4,1.7,0.8,3.4,1.1,5.1c0.1,0.4,0.2,0.8,0.2,1.2c0.3,1.3,0.5,2.7,0.7,4
					c0.1,0.7,0.2,1.4,0.3,2.1c0.1,0.7,0.2,1.3,0.3,2c0,0.1,0,0.2,0,0.3c0.1,0.7,0.2,1.3,0.2,2c0.1,1,0.2,2.1,0.3,3.1
					c0.1,0.6,0.1,1.1,0.1,1.7c0.1,0.8,0.1,1.5,0.1,2.3s0.1,1.6,0.1,2.5c0,0.6,0,1.2,0,1.9c0,0.9,0,1.8,0,2.6c0,1.1,0,2.2,0,3.3
					C383.9,196.4,383.9,197.4,383.8,198.5z"/>
			</g>
		</g>
		<ellipse class="st2" cx="256.1" cy="192" rx="127.9" ry="128"/>
	</g>
	<g id="Layer_2_1_">
	</g>
</g>
<g id="Layer_2">
	<g transform="translate(0.000000,512.000000) scale(0.100000,-0.100000)">
		<path d="M2529.6,4297.2c-7.4-9.6-8.2-15.4-8.2-75.2v-64.8l-106.7-1.2c-98.1-1.2-107.5-1.9-114.9-8.5c-7.4-6.6-8.2-12-9-79
			l-1.2-71.7l-47.9-1.9c-41.7-1.5-49.1-3.1-53.7-9.3c-4.3-5.8-5.5-23.5-5.5-78.3v-70.5h-58h-58.4l-7.8-10
			c-8.2-10-8.2-14.3-8.2-183.1v-173.1h-23.4h-23.4v202.4v202.8l-9.7,9.3c-12.1,12.3-26.9,12.3-38.9,0c-9.7-9.3-9.7-10.4-9.7-77.1
			c0-61.7-0.8-67.5-6.6-67.5c-12.9,0-66.6-25.8-91.5-43.6c-63.1-44.7-104-109.1-116.1-182.3c-2.7-14.6-5.5-30.5-6.2-35.1
			c-1.6-8.5-3.5-8.9-40.5-8.9c-46.3,0-56.9-3.9-62.3-22.7c-5.5-20-5.5-704.7,0.4-720.9c6.6-18.9,28.4-25.8,44.8-14.3
			c7,5.4,7.4,14.6,9.3,352l1.9,346.2l186.2,1.2l185.8,0.8v-393.2v-393.2h-206c-196.3,0-206.4-0.4-215-7.3
			c-8.6-6.6-9.3-10.8-10.5-50.1l-1.6-42.8h-16.7c-21,0-40.1-6.6-44.8-15.4c-6.6-12-4.3-25.1,5.1-33.9l9-8.5h240.3h240.3v-42
			c0-36.2,1.2-43.2,8.2-52l7.8-10h484.5h484.5l7.8,10c7,8.9,8.2,15.8,8.2,52v42h238.7H3529l8.2,8.9c22.2,23.5,1.9,49-38.6,49h-15.2
			v353.9c0,232.5-1.6,358.5-3.9,367.8c-2.3,8.1-7.4,16.2-11.7,18.5c-3.9,1.9-23,3.9-42.5,3.9h-35.1l-1.2,158.1l-1.2,157.7l-9,8.9
			c-8.6,8.5-11.7,8.9-84.5,10l-75.9,1.2v59.8c0,54.4-0.8,60.1-7.8,67.1c-10.5,10.4-31.5,10-41.3-0.4c-6.6-6.9-7.4-15.4-8.6-67.5
			l-1.2-59.4h-54.5h-54.1v105.6c0,100.6-0.4,105.6-8.2,115.7l-7.8,10h-58.4h-58v70.5c0,54.7-1.2,72.5-5.5,78.3
			c-4.7,6.2-12.1,7.7-53.7,9.3l-47.9,1.9l-1.2,71.7c-0.8,67.1-1.6,72.5-9,79c-7.4,6.6-16.7,7.3-114.9,8.5l-106.7,1.2v64.8
			c0,59.8-0.8,65.5-8.2,75.2c-5.8,7.3-11.7,10-21,10S2535.5,4304.5,2529.6,4297.2z M2751.2,4047v-52h-200.6h-200.6v52v52h200.6
			h200.6V4047z M2860.3,3887v-50.1h-207.6c-233.3,0-224.7,1.2-224.7-27c0-11.6,2.3-16.6,10.1-22.7c10.1-8.1,13.2-8.1,282.4-8.1
			h272.2v-273.7v-274.1l9.7-9.3l9.3-9.6h206.8H3425l-0.8-291.8l-1.2-292.2l-185.8-1.2l-186.2-0.8v243.6v243.6l-8.6,8.9
			c-10.9,11.6-31.2,12-42.1,0.4c-7.8-8.5-7.8-12-7.8-302.6v-294.1h-37h-37v41.6c0,57.4,1.2,56.3-59.2,58.6l-47.9,1.9l-1.9,259.4
			c-1.9,251.3-2.3,259.8-9.3,265.2c-6.6,4.6-46.7,5.4-249.3,5.4h-241.5l-9-8.5l-9-8.1V2884v-257.5h-45.6c-41.3,0-46.3-0.8-54.5-8.5
			c-8.2-7.7-9-11.6-9-50.1v-41.6h-37h-37v626.4v626.4h107.5h107.5l11.3,11.2c13.2,13.5,14,22.7,3.1,36.6c-7.8,9.6-9,10-52.6,10H2241
			v50.1v50.1h309.6h309.6V3887z M1945,3576.7v-106h-81h-81.4l3.5,22.4c7.4,48.6,30.8,98.3,60.8,129.5c20.3,20.8,76.3,55.9,97.4,59.8
			C1944.6,3682.7,1945,3634.9,1945,3576.7z M3330.8,3408.2l0.8-138h-140.2h-140.2V3409v138.8l139.4-0.8l139-1.2L3330.8,3408.2z
			 M2521.4,2863.5v-237.1h-85.7h-85.7v237.1v237.1h85.7h85.7V2863.5z M2751.2,2863.5v-237.1h-85.7h-85.7v237.1v237.1h85.7h85.7
			V2863.5z M2050.2,2547.4v-21.2h-186.9h-186.9v21.2v21.2h186.9h186.9V2547.4z M2860.3,2547.4v-21.2h-309.6H2241v21.2v21.2h309.6
			h309.6V2547.4z M3425,2547.4v-21.2h-186.9h-186.9v21.2v21.2h186.9H3425V2547.4z M2992.7,2445.3v-23.1h-442.1h-442.1v23.1v23.1
			h442.1h442.1V2445.3z"/>
		<path d="M2190.8,3668.8c-7.4-9.3-8.2-15.4-8.2-71.3c0-83.7-1.6-82.1,89.6-79.8c54.9,1.2,55.3,1.2,64.7,12
			c9,10.4,9.3,13.1,9.3,70.5c0,58.2-0.4,60.1-9.7,69c-9.3,9.6-10.5,9.6-73.6,9.6h-64.3L2190.8,3668.8z M2287,3599.1l-1.2-22.4
			l-22.2-1.2l-22.6-1.2v23.5v23.1h23.4h23.8L2287,3599.1z"/>
		<path d="M2479.4,3670c-8.2-8.5-8.6-12.7-8.6-70.9c0-84.8-4.7-80.2,79.5-80.2c84.5,0,81.8-2.3,83.3,68.2
			c2.3,92.9,3.5,91.7-82.2,91.7C2489.9,3678.9,2487.6,3678.5,2479.4,3670z M2575.2,3599.1l-1.2-22.4l-22.2-1.2l-22.6-1.2v23.5v23.1
			h23.4h23.8L2575.2,3599.1z"/>
		<path d="M2766.8,3671.1c-7-6.9-7.8-12.7-7.8-72.5c0-85.2-5.5-79.8,80.6-79.8c83.7,0,79.1-5,79.1,81.3c0,83.7,5.1,78.6-79.8,78.6
			C2779.7,3678.9,2773.8,3678.1,2766.8,3671.1z M2860.3,3597.9v-23.1h-21.4h-21.4v23.1v23.1h21.4h21.4V3597.9z"/>
		<path d="M2192.3,3410.9c-9.3-9.3-9.7-10.8-9.7-70.5c0-83.7-3.9-79.4,74-81c64.7-1.5,77.9,1.2,85.3,17c2.3,5.8,4.3,32.8,4.3,67.5
			c0,56.3-0.4,58.2-9.7,67.1c-9.3,9.3-10.5,9.6-72.1,9.6S2201.7,3420.2,2192.3,3410.9z M2287.8,3339.6v-23.1h-23.4H2241v23.1v23.1
			h23.4h23.4V3339.6z"/>
		<path d="M2479.4,3411.7c-8.2-8.5-8.6-12.7-8.6-70.9c0-84.4-4.3-79.8,77.1-81.3c61.1-1.2,62.3-1.2,73.2,8.1
			c11.3,9.6,11.3,10,12.5,60.9c2.3,93.3,3.5,92.1-82.2,92.1C2489.9,3420.6,2487.6,3420.2,2479.4,3411.7z M2575.2,3340.8l-1.2-22.4
			l-22.2-1.2l-22.6-1.2v23.5v23.1h23.4h23.8L2575.2,3340.8z"/>
		<path d="M2766.8,3412.9c-7-6.9-7.8-12.7-7.8-72.9v-65.5l10.5-8.1c10.1-7.7,14.4-8.1,71.7-6.9c82.6,1.5,77.5-3.5,77.5,80.2
			c0,85.6,4.7,81-81,81C2779.7,3420.6,2773.8,3419.8,2766.8,3412.9z M2860.3,3339.6v-23.1h-21.4h-21.4v23.1v23.1h21.4h21.4V3339.6z"
			/>
		<path d="M3166,3081.7c-19.1-8.1-24.9-32-11.7-46.6c6.6-7.3,11.7-7.7,76.7-7.7c64.3,0,69.7,0.4,77.1,7.7
			c10.5,10.4,10.1,31.2-0.4,40.9c-7.4,6.6-15.6,7.3-71.3,8.1C3202.2,3084.4,3170.3,3083.6,3166,3081.7z"/>
		<path d="M3156.7,2939.5c-12.9-10-12.1-30.5,1.2-42c10.1-8.5,13.2-8.9,74-8.9c58.4,0,64.3,0.8,74,8.1c12.9,10,14,30.5,2.3,42
			c-7,6.9-12.9,7.7-75.6,7.7C3173.8,2946.4,3163.7,2945.6,3156.7,2939.5z"/>
		<path d="M3161.4,2806.9c-17.9-8.5-17.5-43.9,0.8-50.9c3.5-1.2,35.8-2.3,71.7-2.3c63.1,0,65.4,0.4,73.6,8.9
			c12.1,12.7,11.3,30.8-1.6,40.9c-9.7,7.3-15.2,8.1-73.2,7.7C3196.8,2811.1,3166.4,2809.2,3161.4,2806.9z"/>
		<path d="M3172.6,3444.9c-4.7-3.9-9.3-11.6-10.9-17.3c-1.9-8.5,0-13.1,9.7-22.7c9.7-9.6,14.4-11.6,23-9.6
			c22.6,5.4,31.9,33.2,16.4,48.6C3201.1,3453.3,3183.2,3453.7,3172.6,3444.9z"/>
		<path d="M1785.7,3306.5c-10.1-13.1-10.5-26.2-0.4-36.2c11.3-11.2,20.3-12.3,87.2-10.8c59.2,1.2,61.9,1.5,68.9,10.4
			c9.7,11.6,9.3,23.9-0.8,36.6l-7.8,10h-69.7h-69.7L1785.7,3306.5z"/>
		<path d="M1787.3,3171.9c-5.5-5-9.7-13.9-9.7-19.3s4.3-14.3,9.7-19.3c9.3-9.6,10.5-9.6,75.9-9.6s66.6,0,75.9,9.6
			c5.5,5,9.7,13.9,9.7,19.3s-4.3,14.3-9.7,19.3c-9.3,9.6-10.5,9.6-75.9,9.6S1796.6,3181.6,1787.3,3171.9z"/>
		<path d="M1797.4,3042.4c-20.3-8.1-25.3-26.6-11.7-43.6l7.8-10h69.3c67.4,0,69.3,0.4,77.5,8.9c14,14.6,10.9,33.9-7.4,43.2
			C1920.1,3047.4,1813.4,3048.6,1797.4,3042.4z"/>
		<path d="M1785.7,2897.8c-10.1-12.7-10.5-25.1-0.8-36.6c7.4-9.3,8.6-9.3,78.3-9.3c69.7,0,70.9,0,78.3,9.3
			c9.7,11.6,9.3,23.9-0.8,36.6l-7.8,10h-69.7h-69.7L1785.7,2897.8z"/>
		<path d="M1787.3,2763.3c-5.5-5-9.7-13.9-9.7-19.3s4.3-14.3,9.7-19.3c9.3-9.6,10.5-9.6,75.9-9.6s66.6,0,75.9,9.6
			c5.5,5,9.7,13.9,9.7,19.3s-4.3,14.3-9.7,19.3c-9.3,9.6-10.5,9.6-75.9,9.6S1796.6,2772.9,1787.3,2763.3z"/>
	</g>
</g>
</svg>
