<?xml version="1.0" encoding="utf-8"?>
<!-- Generator: Adobe Illustrator 24.1.2, SVG Export Plug-In . SVG Version: 6.00 Build 0)  -->
<svg version="1.1" xmlns="http://www.w3.org/2000/svg" xmlns:xlink="http://www.w3.org/1999/xlink" x="0px" y="0px"
	 viewBox="0 0 512 512" style="enable-background:new 0 0 512 512;" xml:space="preserve">
<style type="text/css">
	.st0{fill:#00000D;}
	.st1{fill:#0A1A33;}
	.st2{fill:#FFFFFF;}
</style>
<g id="Layer_1">
	<g id="Layer_1_2_">
		<g id="Layer_1_1_">
			<g id="Outline">
				<path class="st0" d="M256,16C158.3,16.7,79.5,96.4,80,194.1c0,62.7,28.8,132.3,85.6,206.9c25.5,33.5,54,64.7,85.1,93
					c3,2.6,7.5,2.6,10.5,0c31.2-28.3,59.6-59.5,85.1-93c56.8-74.5,85.6-144.2,85.6-206.9C432.5,96.4,353.7,16.7,256,16z M256,477.2
					c-28.2-26.3-160-156-160-283c0-24.2,5.4-47.2,15-67.8c13.4-28.7,35.2-52.8,62.1-69.1c24.2-14.7,52.6-23.1,82.9-23.1
					c88.4,0,160,71.6,160,160C416,321.2,284.2,450.9,256,477.2z"/>
				<path class="st1" d="M256,34.2c-30.3,0-58.7,8.4-82.9,23.1c-26.9,16.3-48.7,40.4-62.1,69.1c-9.6,20.6-15,43.6-15,67.8
					c0,127,131.8,256.7,160,283c28.2-26.3,160-156,160-283C416,105.8,344.4,34.2,256,34.2z M256,336c-79.5,0-144-64.5-144-144
					S176.5,48,256,48c79.5,0.1,143.9,64.5,144,144C400,271.5,335.5,336,256,336z"/>
				<path class="st0" d="M256,48c-79.5,0-144,64.5-144,144s64.5,144,144,144s144-64.5,144-144C399.9,112.5,335.5,48.1,256,48z
					 M383.8,198.5C383.8,198.5,383.8,198.6,383.8,198.5C380.4,264,328,316.4,262.6,319.8c0,0,0,0-0.1,0c-1.1,0.1-2.1,0.1-3.2,0.1
					s-2.2,0-3.3,0c-2.3,0-4.7-0.1-7-0.2c-0.4,0-0.8,0-1.3-0.1c-0.6,0-1.2-0.1-1.8-0.1c-1-0.1-2-0.2-3-0.3c-0.5,0-1.1-0.1-1.6-0.2
					s-1.1-0.1-1.6-0.2C176.8,311,128,257.2,128,192S176.8,73,239.8,65c0.5-0.1,1.1-0.1,1.6-0.2s1.1-0.1,1.6-0.2c1-0.1,2-0.2,3-0.3
					c0.6,0,1.2-0.1,1.8-0.1c0.4,0,0.8-0.1,1.3-0.1c1.3-0.1,2.6-0.1,4-0.2c0.3,0,0.7,0,1,0c0.7,0,1.3,0,2,0s1.4,0,2,0
					c1.4,0,2.7,0.1,4.1,0.1c0.7,0,1.3,0.1,2,0.1c1,0.1,1.9,0.1,2.9,0.2c0.9,0.1,1.9,0.2,2.8,0.3c1.9,0.2,3.7,0.5,5.6,0.7
					c0.6,0.1,1.1,0.2,1.7,0.3c1,0.2,2.1,0.4,3.1,0.5h0.1c29.2,5.6,54.8,21.2,73.3,43c2,2.4,3.9,4.8,5.8,7.4c0.3,0.4,0.6,0.8,0.9,1.3
					c0.4,0.6,0.9,1.3,1.3,1.9s0.9,1.3,1.3,1.9l0,0c0.6,0.9,1.1,1.7,1.6,2.6l0,0c0.8,1.2,1.5,2.4,2.2,3.7c0.1,0.1,0.1,0.2,0.2,0.3
					c0.3,0.5,0.6,1.1,0.9,1.6c1.1,2,2.2,4.1,3.2,6.2c0.3,0.5,0.5,1.1,0.8,1.6c2.1,4.4,3.9,8.9,5.4,13.6c0.1,0.4,0.3,0.8,0.4,1.2
					c0.8,2.5,1.5,5,2.2,7.6c0.1,0.4,0.2,0.8,0.3,1.3c0.4,1.7,0.8,3.4,1.1,5.1c0.1,0.4,0.2,0.8,0.2,1.2c0.3,1.3,0.5,2.7,0.7,4
					c0.1,0.7,0.2,1.4,0.3,2.1c0.1,0.7,0.2,1.3,0.3,2c0,0.1,0,0.2,0,0.3c0.1,0.7,0.2,1.3,0.2,2c0.1,1,0.2,2.1,0.3,3.1
					c0.1,0.6,0.1,1.1,0.1,1.7c0.1,0.8,0.1,1.5,0.1,2.3s0.1,1.6,0.1,2.5c0,0.6,0,1.2,0,1.9c0,0.9,0,1.8,0,2.6c0,1.1,0,2.2,0,3.3
					C383.9,196.4,383.9,197.4,383.8,198.5z"/>
			</g>
		</g>
		<ellipse class="st2" cx="256.1" cy="192" rx="127.9" ry="128"/>
	</g>
	<g id="Layer_2_1_">
	</g>
</g>
<g id="Layer_2">
	<g transform="translate(0.000000,512.000000) scale(0.100000,-0.100000)">
		<path d="M2111.9,4142.7c-274.7-115.5-442.3-187.6-446.4-192.9c-6-7.1-6.4-19.1-5.6-171.6c1.1-151.4,1.5-164.5,7.9-170.4
			c5.3-5.2,14.3-7.1,42.1-7.8l35.3-1.5l1.1-66.9c1.1-76.3,1.9-78.1,31.9-81.9l18-1.9l1.1-52.7c0.8-47.1,1.9-53.5,8.3-59.4
			c10.5-9.3,28.6-8.6,38.7,1.5c7.5,7.5,8.3,12.3,9.4,60.2l1.5,52.3h91.7h91.7v-285.9v-285.9h-92.1h-91.7l-1.1,179.8l-1.1,179.8
			l-9,7.1c-10.5,8.2-25.9,9.3-36.5,1.9c-6.8-5.2-7.1-12.7-9-186.1l-1.9-180.5l-11.3-1.1c-37.2-3.4-39.5-8.2-39.5-88.6v-61.7h-30.1
			c-33.4,0-46.2-4.1-52.2-17.6c-2.3-5.2-4.1-31-4.1-60.9v-52.3H1637c-19.5,0-23.3-1.1-30.1-9.7c-7.5-9.3-7.9-15-7.9-82.6
			c0-72.1,0-72.5,9.4-81.5l9-9.3H2561h943.6l9,9.3c9.4,9,9.4,9.3,9.4,81.5c0,67.7-0.4,73.3-7.9,82.6c-6.8,8.6-10.5,9.7-30.1,9.7
			h-22.2v52.3c0,29.9-1.9,55.7-4.1,60.9c-6,13.5-18.8,17.6-52.2,17.6h-30.1v61.7c0,80.4-2.3,85.2-39.5,88.6l-11.3,1.1l-1.1,52.3
			c-1.1,59.4-3.8,65.4-27.1,65.4c-24.8,0-27.8-7.8-29.3-67.7l-1.5-52H3175h-91.7v285.9v285.9h92.1h91.7l1.1-179
			c1.1-170.1,1.5-179.4,8.3-186.9c9.4-10.1,32.3-10.8,41-1.1c5.6,6,6.4,25.8,7.1,186.1l1.1,179l18,1.9c30.1,3.7,30.8,5.6,31.9,81.9
			l1.1,66.9l35.3,1.5c27.8,0.7,36.8,2.6,42.1,7.8c6.4,6,6.8,19.1,7.9,170.4c0.8,152.5,0.4,164.5-5.6,171.6
			c-7.9,9.3-884.6,378.6-897,377.9C2555,4327.4,2353.9,4244.4,2111.9,4142.7z M2988.3,4090.4l418.2-175.3v-129.7v-130.1h-394.6H2617
			l-9.8-9.7c-7.5-7.5-9-11.6-7.1-21.3c4.9-24.3-4.1-23.2,195.8-24.3l182.3-1.1v-66.9c0-62.4,0.4-67.7,7.5-74.8
			c5.3-5.2,12.4-7.5,24.4-7.5h16.9v-285.9v-285.9h-15.8c-10.9,0-18.4-2.6-24.4-8.2c-8.3-7.8-8.6-9.7-8.6-74.8v-66.5h-80.8h-80.8
			v112.5c0,89.7-1.1,117.4-6,139c-20.3,89.7-84.2,159.2-173.2,188.8c-25.2,8.2-36.1,9.3-76.3,9.3c-40.6,0-51.1-1.1-77-9.7
			c-80.4-26.2-138.3-84.1-167.6-167.1c-8.3-23.2-8.6-30.7-10.1-148.8l-1.1-124.1h-80.8h-80.4v66.2c0,62.8-0.4,66.5-8.3,74.8
			c-6,6.4-12,8.6-24.4,8.6H2095v285.9v285.9h16.9c12,0,19.2,2.2,24.4,7.5c7.1,7.1,7.5,12.3,7.5,74.8v66.9l182.3,1.1
			c199.9,1.1,190.9,0,195.8,24.3c1.9,9.7,0.4,13.8-7.1,21.3l-9.8,9.7h-394.9h-394.6v130.1v129.7l420.1,176.4
			c230.7,97.2,423.1,176.1,427.3,175.3C2567,4266.4,2758.7,4186.8,2988.3,4090.4z M2087.5,3552.5v-46.7h-142.8h-142.8v46.7v46.7
			h142.8h142.8V3552.5z M3320.1,3552.5v-46.7h-142.8h-142.8v46.7v46.7h142.8h142.8V3552.5z M2530.9,2924.5v-196.2h-84.6h-84.6v111.4
			c0,120.7,1.9,134.6,21.4,175.7c12.4,25.8,56,70.6,80,83c21,10.8,52.2,22.1,61.3,22.4C2530.6,3120.8,2530.9,3108.8,2530.9,2924.5z
			 M2645.6,3104.3c46.2-21.7,83.4-62,103.7-112.5c8.6-21.7,9-26.5,10.1-142.8l1.1-120.7H2676h-84.9v196.6v196.6l14.3-2.2
			C2612.9,3117.8,2631.3,3111.1,2645.6,3104.3z M2087.5,2775v-46.7h-142.8h-142.8v46.7v46.7h142.8h142.8V2775z M3320.1,2775v-46.7
			h-142.8h-142.8v46.7v46.7h142.8h142.8V2775z M3406.5,2634.8v-37.4H2561h-845.5v37.4v37.4H2561h845.5V2634.8z M3466.6,2505.9v-35.5
			H2561h-905.6v35.5v35.5H2561h905.6V2505.9z"/>
		<path d="M2426.8,4145.3c-39.5-14.6-67.6-40-86.8-78.9c-9-18.3-10.1-24.7-10.1-59.8c0-36.6,0.8-41.1,12.4-65.4
			c11.3-23.2,22.5-35.9,109-122.2c89.4-89,97.7-96.4,109.7-96.4c12,0,20.3,7.5,109.7,96.4c86.4,86.3,98.1,99.4,109,122.6
			c11.6,23.9,12.4,28.4,12.4,65c0,35.9-1.1,41.1-10.9,61.7c-14.3,28.8-45.1,59.1-72.5,72.1c-19.5,9-25.9,10.1-63.1,10.1
			c-37.6,0-43.2-1.1-62.4-10.5l-21-10.1l-22.2,10.1C2510.3,4153.9,2456.5,4156.2,2426.8,4145.3z M2524.9,4083.3
			c34.6-21.3,35.3-21.3,45.1-16.1c4.9,2.6,17.3,10.1,27.1,16.1c16.5,10.1,21.4,11.2,48.9,11.2c27.1,0,32.3-1.1,48.9-11.2
			c24.4-15.3,39.8-40.4,42.1-68.4c3-43.4,1.5-46-91.7-139l-84.2-84.1l-78.9,78.5c-43.6,43.4-82.7,84.1-87.2,90.8
			c-9.4,15.3-13.2,53.8-7.1,72.9c7.5,22.4,24.8,41.9,46.2,52.7c16.9,8.6,23.7,10.1,46.2,9
			C2501.6,4094.5,2509.9,4092.2,2524.9,4083.3z"/>
		<path d="M2012.4,3969.6c-116.9-49-216.4-92.3-221.7-96.8c-9.4-7.5-9.4-7.8-9.4-71c0-57.2,0.8-64.3,7.1-71.4l7.1-7.8h304
			c298.7,0,303.6,0,311.1,7.5c4.1,4.1,7.5,12.3,7.5,19.1c0,10.1-8.6,20.2-59.4,72.1c-79.3,81.1-94.7,110.3-96.2,185.4
			c-0.8,42.2-6,52.3-26.3,52.3C2229.9,4058.6,2129.2,4018.6,2012.4,3969.6z M2208.9,3965.9c3-28.8,20.7-75.9,38.3-103.5
			c7.9-12,27.8-35.9,44.3-52.7l30.4-31h-243.5h-243.1l1.1,28.4l1.1,28L2018,3911c99.2,41.9,182.3,76.3,184.5,76.6
			C2204.8,3988,2207.8,3978.6,2208.9,3965.9z"/>
		<path d="M2866.9,4051.1c-5.6-6.4-7.1-14.2-7.5-44.5c-1.5-75.1-16.9-104.3-96.2-185.4c-50.7-52-59.4-62-59.4-72.1
			c0-6.7,3.4-15,7.5-19.1c7.5-7.5,12.4-7.5,311.1-7.5h304l7.1,7.8c6.4,7.1,7.1,14.2,7.1,71c0,57.9-0.8,63.5-7.5,70.3
			c-4.1,3.7-61.6,29.9-127.8,57.6s-162.7,68-214.9,90.1c-52.2,21.7-99.6,39.6-105.6,39.6C2878.5,4059,2871,4055.6,2866.9,4051.1z
			 M3102.1,3911.7l182.3-76.6l1.1-28l1.1-28.4h-243.1h-242.8l33.8,35.5c27.4,28.4,37.6,42.2,51.1,69.9c18,36.3,28.6,70.3,28.6,91.6
			c0,6.7,1.5,12.3,3,12.3S3002.2,3953.6,3102.1,3911.7z"/>
		<path d="M2321.6,3460.9c-14.7-6-16.2-15-16.2-90.8c0-66.2,0.8-73.6,7.1-81.5l7.1-9H2561h241.3l7.1,9c6.4,7.8,7.1,15.3,7.1,82.6
			c0,67.3-0.8,74.8-7.1,82.6l-7.1,9l-236.4,0.7C2434.4,3463.9,2326.1,3462.8,2321.6,3460.9z M2760.2,3371.2v-37.4H2561h-199.2v37.4
			v37.4H2561h199.2V3371.2z"/>
	</g>
</g>
</svg>
