<?xml version="1.0" encoding="utf-8"?>
<!-- Generator: Adobe Illustrator 24.1.2, SVG Export Plug-In . SVG Version: 6.00 Build 0)  -->
<svg version="1.1" xmlns="http://www.w3.org/2000/svg" xmlns:xlink="http://www.w3.org/1999/xlink" x="0px" y="0px"
	 viewBox="0 0 512 512" style="enable-background:new 0 0 512 512;" xml:space="preserve">
<style type="text/css">
	.st0{fill:#00000D;}
	.st1{fill:#0A1A33;}
	.st2{fill:#FFFFFF;}
</style>
<g id="Layer_1">
	<g id="Layer_1_1_">
		<g id="Outline">
			<path class="st0" d="M256,16C158.3,16.7,79.5,96.4,80,194.1c0,62.7,28.8,132.3,85.6,206.9c25.5,33.5,54,64.7,85.1,93
				c3,2.6,7.5,2.6,10.5,0c31.2-28.3,59.6-59.5,85.1-93c56.8-74.5,85.6-144.2,85.6-206.9C432.5,96.4,353.7,16.7,256,16z M256,477.2
				c-28.2-26.3-160-156-160-283c0-24.2,5.4-47.2,15-67.8c13.4-28.7,35.2-52.8,62.1-69.1c24.2-14.7,52.6-23.1,82.9-23.1
				c88.4,0,160,71.6,160,160C416,321.2,284.2,450.9,256,477.2z"/>
			<path class="st1" d="M256,34.2c-30.3,0-58.7,8.4-82.9,23.1c-26.9,16.3-48.7,40.4-62.1,69.1c-9.6,20.6-15,43.6-15,67.8
				c0,127,131.8,256.7,160,283c28.2-26.3,160-156,160-283C416,105.8,344.4,34.2,256,34.2z M256,336c-79.5,0-144-64.5-144-144
				S176.5,48,256,48c79.5,0.1,143.9,64.5,144,144C400,271.5,335.5,336,256,336z"/>
			<path class="st0" d="M256,48c-79.5,0-144,64.5-144,144s64.5,144,144,144s144-64.5,144-144C399.9,112.5,335.5,48.1,256,48z
				 M383.8,198.5C383.8,198.5,383.8,198.6,383.8,198.5C380.4,264,328,316.4,262.6,319.8c0,0,0,0-0.1,0c-1.1,0.1-2.1,0.1-3.2,0.1
				s-2.2,0-3.3,0c-2.3,0-4.7-0.1-7-0.2c-0.4,0-0.8,0-1.3-0.1c-0.6,0-1.2-0.1-1.8-0.1c-1-0.1-2-0.2-3-0.3c-0.5,0-1.1-0.1-1.6-0.2
				s-1.1-0.1-1.6-0.2C176.8,311,128,257.2,128,192S176.8,73,239.8,65c0.5-0.1,1.1-0.1,1.6-0.2s1.1-0.1,1.6-0.2c1-0.1,2-0.2,3-0.3
				c0.6,0,1.2-0.1,1.8-0.1c0.4,0,0.8-0.1,1.3-0.1c1.3-0.1,2.6-0.1,4-0.2c0.3,0,0.7,0,1,0c0.7,0,1.3,0,2,0s1.4,0,2,0
				c1.4,0,2.7,0.1,4.1,0.1c0.7,0,1.3,0.1,2,0.1c1,0.1,1.9,0.1,2.9,0.2c0.9,0.1,1.9,0.2,2.8,0.3c1.9,0.2,3.7,0.5,5.6,0.7
				c0.6,0.1,1.1,0.2,1.7,0.3c1,0.2,2.1,0.4,3.1,0.5h0.1c29.2,5.6,54.8,21.2,73.3,43c2,2.4,3.9,4.8,5.8,7.4c0.3,0.4,0.6,0.8,0.9,1.3
				c0.4,0.6,0.9,1.3,1.3,1.9s0.9,1.3,1.3,1.9l0,0c0.6,0.9,1.1,1.7,1.6,2.6l0,0c0.8,1.2,1.5,2.4,2.2,3.7c0.1,0.1,0.1,0.2,0.2,0.3
				c0.3,0.5,0.6,1.1,0.9,1.6c1.1,2,2.2,4.1,3.2,6.2c0.3,0.5,0.5,1.1,0.8,1.6c2.1,4.4,3.9,8.9,5.4,13.6c0.1,0.4,0.3,0.8,0.4,1.2
				c0.8,2.5,1.5,5,2.2,7.6c0.1,0.4,0.2,0.8,0.3,1.3c0.4,1.7,0.8,3.4,1.1,5.1c0.1,0.4,0.2,0.8,0.2,1.2c0.3,1.3,0.5,2.7,0.7,4
				c0.1,0.7,0.2,1.4,0.3,2.1c0.1,0.7,0.2,1.3,0.3,2c0,0.1,0,0.2,0,0.3c0.1,0.7,0.2,1.3,0.2,2c0.1,1,0.2,2.1,0.3,3.1
				c0.1,0.6,0.1,1.1,0.1,1.7c0.1,0.8,0.1,1.5,0.1,2.3s0.1,1.6,0.1,2.5c0,0.6,0,1.2,0,1.9c0,0.9,0,1.8,0,2.6c0,1.1,0,2.2,0,3.3
				C383.9,196.4,383.9,197.4,383.8,198.5z"/>
		</g>
	</g>
	<ellipse class="st2" cx="256.1" cy="192" rx="127.9" ry="128"/>
</g>
<g id="Layer_2">
	<g transform="translate(0.000000,500.000000) scale(0.100000,-0.100000)">
		<path d="M1826.4,3943.2c-67.7-1.1-71.5-1.4-77.1-8.6c-5.9-6.8-6.3-19.6-6.3-148.6V3645l19.8-35.6c10.8-20,24.7-45.2,31.3-56.6
			l11.5-20.7v-218.4v-218.4l-19.4-2.1c-25.7-2.9-48.3-17.1-61.8-39.2c-12.8-21.4-16.3-58.4-7.6-81.9c6.9-19.2,28.1-40.6,45.8-47
			l13.5-4.6l1.7-281.1l1.7-280.7l8-16.7c18.1-37.4,58.3-60.6,104.9-60.6c44.5,0,83.3,23.9,103.5,62.7l9.4,18.2l2.1,220.9
			c1.4,121.5,2.4,247.6,2.8,280l0.3,59.5l9.7,2.5c13.9,3.2,34.4,18.9,42,31.7c10.1,16.4,13.9,43.8,9.7,69.5
			c-5.9,37.4-31.9,60.6-74.7,66.6l-17.7,2.1l-1,70.9c-1,79.8-2.1,82.3-25.7,82.3c-24,0-25.7-5.3-25.7-84.8v-69.1h-36.5h-36.5v227.3
			v226.9l-8,13.2c-4.2,7.5-19.1,32.8-32.6,56.6l-25.4,43.1v69.1v69.1h102.4h102.4v-69.5v-69.5l-23.6-42
			c-13.2-22.8-28.1-48.1-33-55.6l-9.4-13.9v-97.3c0-93,0.3-98,6.9-104.7c8.3-8.6,26.7-9.6,36.8-2.1c6.3,4.6,6.6,11.4,8.3,100.8
			l1.7,95.5l11.1,17.8c6.3,10,20.1,33.1,31.3,51.7l20.1,33.8v141.8v142.2l-9.7,8.6C2022.9,3946.8,2043.8,3946.1,1826.4,3943.2z
			 M1993.1,3872.7v-19.6h-102.4h-102.4v19.6v19.6h102.4h102.4V3872.7z M2012.9,3035.4c9.4-6.8,15.3-26.7,11.8-39.9
			c-1.4-5.3-6.9-12.8-12.2-16.7c-9-7.1-14.6-7.5-119.8-8.6l-110.4-1.1l-11.1,10.7c-14.2,13.5-14.9,33.8-1.7,49.9l9,11H1892
			C1988.2,3040.8,2006.6,3040.1,2012.9,3035.4z M1958.3,2653.1v-266.5l-8.7-18.2c-5.2-10-14.6-22.8-21.5-28.1
			c-30.2-23.5-76.1-10.3-94.8,27.4c-6.6,13.2-6.9,22.8-6.9,282.9v269h66h66V2653.1z"/>
		<path d="M2290,3942.9c-10.4-2.1-36.1-22.4-58-46.3c-39.2-42.4-75-108.3-95.2-177.1c-8.3-28.5-9.4-38.1-9.7-85.5
			c-0.3-50.9,0-54.5,9.7-78.4c22.9-57.4,62.9-96.2,121.2-117.6l21.5-8.2v-215.5v-215.9l-12.5-13.5c-25.7-27.1-47.9-62.3-75.4-119.4
			c-54.2-111.9-70.2-187-70.2-332V2465l-12.2-4.6c-28.1-10.3-50.4-48.5-50.4-85.9c0-26.7,11.8-56.3,29.5-73.4
			c18.1-17.5,31.9-21.7,79.2-24.6c57-3.2,146.6-29.9,197.6-58.4c31.9-17.5,76.4-33.5,121.9-43.8c34.4-7.8,41.7-7.8,238.6-8.2
			c178.5,0,207,0.7,235.1,6.4c45.8,8.6,95.5,25.7,127.8,43.8c28.1,15.3,55.9,26.7,107.7,42.8c37.2,11.8,55.6,15.3,102.8,18.9
			c47.6,3.6,63.6,10.3,79.5,34.2c14.6,21.7,20.8,41.7,20.8,65.6c0,33.8-22.6,72-49.7,83.4l-12.2,5.3l-1.7,95.5
			c-2.1,103.3-5.2,129-23.3,192.7c-26,91.6-75.7,181-135.1,244.4c-62.5,66.3-92.7,85.9-114.3,74.1c-6.3-3.6-13.2-0.4-48.6,20.3
			c-30.6,18.2-55.2,29.2-92.4,41.7l-50.7,17.1v11.4c0,15.7-10.4,27.8-31.9,37.4c-77.4,34.2-155.2,32.4-232.7-5.3
			c-13.5-6.8-20.1-17.8-20.1-33.5c0-10-1.4-10.7-42.4-24.2l-42.7-14.3l-0.7,77c-0.7,42.4,0,111.2,1.7,153.2l2.4,76.2l17.4,6.1
			c46.9,16.4,87.2,46.7,109.4,81.6c24,38.8,31.3,115.8,17.7,187.4c-7.3,38.5-14.2,58.8-33.7,98.7c-20.5,41.7-36.5,63.1-76.1,101.9
			c-31.6,31-38.9,36.3-48.3,36.3c-7.3,0-13.9-2.9-18.1-7.5c-6.3-7.1-6.6-15.3-7.6-124c-0.7-112.9-1-116.1-8-122.2
			c-6.3-5.7-15.3-6.4-65.6-6.4h-58.7l-7.3,9.6c-7.3,9.6-7.3,12.1-6.6,122.9c0.7,103,0.3,113.7-5.2,120.1
			C2307.7,3942.5,2300.1,3945,2290,3942.9z M2278.5,3669.6c7.6-14.6,19.4-25.3,34.7-32.1c10.1-4.3,27.4-5.3,80.6-5.3
			c71.9,0,80.9,1.8,96.9,17.1c19.4,18.9,20.8,26.7,22.9,125.4l2.1,90.5l16-20.3c69.1-89.8,98.3-214.5,65.6-282.5
			c-19.4-40.6-59.4-70.5-112.9-84.8c-35.1-9.3-33,2.9-33-180.3c0-87.6-1-168.9-2.1-180.3l-2.1-21l-21.9-13.2
			c-19.8-12.1-22.9-13.2-33-9.6c-14.6,5.3-29.2,1.8-45.1-11c-7.3-5.7-14.2-10.7-15.6-10.7c-1.7,0-1.7,91.2-0.3,202.4
			c2.4,202,2.4,202.4-4.9,212c-4.5,5.7-12.2,10.3-20.1,11.8c-43.8,8.6-82,30.3-100.7,58.4c-19.4,28.1-24.7,41-28.8,68.4
			c-6.3,42,5.9,109.7,28.1,156c3.1,6.8,6.9,16.4,8,21.4c2.8,12.1,26,48.8,43.1,68l13.2,15l1.7-92.3
			C2272.3,3695.6,2273.7,3678.5,2278.5,3669.6z M2799.8,3162.3l19.8-7.8v-342v-341.7h-90.3H2639V2812v341.7l8.3,4.6
			C2677.2,3174.7,2762.6,3176.9,2799.8,3162.3z M2586.9,2786v-315.3h-79.2h-79.5l-2.1,48.8c-1.4,26.7-2.4,150-2.4,274V3019
			l14.9,10.3c27.8,20,73.6,44.5,108.4,58.1c19.1,7.5,35.8,13.9,37.5,13.9C2585.9,3101.3,2586.9,2959.5,2586.9,2786z M2899.1,3092.4
			c30.2-10.3,87.9-40.3,116-59.5l19.8-13.9v-158.2c0-138.9,0.7-158.5,5.6-163.5c8.7-8.9,21.2-10.7,30.9-4.3l8.7,5.7v160.7
			c0,151.4,0.3,160,6.3,156.8c13.2-7.1,75.4-75.2,96.5-105.5c38.5-55.2,75.4-141.1,89.3-208.4c9.7-46,12.8-84.8,12.8-159.3v-72.3
			h-102.4h-102.4v60.2c0,63.8-0.3,65.2-17.4,69.8c-6.3,1.4-11.8,0-18.4-5.3l-9.4-7.5v-58.8v-58.4h-81.6h-81.6V2786
			c0,173.5,0.3,315.3,1,315.3S2885.2,3097.4,2899.1,3092.4z M2375.1,2745.1v-274.3H2274H2173l1.7,95.5
			c1.7,105.1,4.2,121.1,31.6,211.3c20.5,65.9,69.5,143.2,130.2,204.9c20.1,20.3,37.2,37.1,37.5,37.1
			C2374.7,3019.4,2375.1,2896.1,2375.1,2745.1z M3330.1,2411.9c14.6-7.8,24.3-23.9,24.3-40.6c0-11.8-2.1-16.7-11.8-26.4
			c-12.8-13.2-25-16.7-58.7-16.7c-26.7,0-80.9-11.4-119.5-25.3c-16.7-5.7-52.4-22.1-79.5-36c-38.5-19.6-58-27.1-92-35.6l-43.1-10.7
			l-156.3-2.9c-278.9-4.6-321.6,0.4-417.4,48.5c-89.9,45.2-129.9,57.4-199.7,61.6c-50.7,2.9-60.1,7.1-68.4,31.4
			c-6.3,18.2-3.1,31,11.8,46.3l11.5,11.8h594.2C3244.7,2417.3,3321.4,2416.6,3330.1,2411.9z"/>
		<path d="M3036.6,3941.8c-26.4-6.8-35.8-21.4-45.5-70.2l-6.3-33.5l-19.4-10.3c-10.4-5.7-26.7-16.4-35.8-23.2l-16.7-12.8l-29.5,11
			c-34.4,12.8-57.3,14.3-72.6,4.6c-6.6-4.3-15.3-16.7-23.6-32.8c-7.3-14.6-18.8-34.6-25.4-44.9c-13.5-20.7-17.4-37.1-13.9-56.6
			c2.1-10,9-19.2,31.6-41.3l28.8-28.9l0.3-43.8v-43.8l-24-23.5c-42.7-41.3-43.8-53.8-11.8-112.6c11.5-20.7,22.9-42,25.7-47.7
			c6.6-13.2,25.7-23.5,43.4-23.5c8,0,27.1,5,42.7,10.7c16,6.1,30.9,10.7,33.7,10.7s15.3-7.1,27.4-15.7c12.2-8.6,27.8-17.5,34.7-20
			c6.9-2.1,12.5-4.6,12.5-5.3c0-0.4,3.1-16.4,6.9-35.3c7.6-38.1,12.8-48.5,29.5-59.1c10.1-6.4,17-7.1,68.1-7.1
			c50.4,0,58.3,0.7,68.1,7.1c16.7,10.3,22.9,22.8,30.6,61.6c5.2,27.4,8.7,36.3,13.9,39.5c3.8,2.1,20.1,12.5,35.8,23.2l29.2,19.6
			l33.3-11.4c35.4-12.1,43.8-13.2,57-8.2c13.9,5.3,25.7,20.7,51.1,65.9c35.8,63.8,34.7,75.9-12.5,118.3l-27.1,24.2l-0.3,43.8
			l-0.7,43.8l26,23.5c45.5,42,46.9,53.8,11.1,116.5c-42.7,75.2-49,78.4-108.4,57.4l-37.5-12.8l-24,16c-12.8,8.9-29.2,18.9-35.8,21.7
			c-12.8,5.3-14.9,11-21.9,55.6c-2.8,16.7-12.8,33.5-26.4,43.8c-8.3,6.4-15.6,7.5-59,8.2C3072.8,3945,3044.3,3943.9,3036.6,3941.8z
			 M3140.8,3857.7c8.3-48.5,12.2-56.3,28.5-61.6c21.5-7.5,46.9-21.4,63.6-35.6c8.7-7.5,19.1-14.3,22.9-15.7
			c4.9-1.4,21.9,2.9,46.9,12.1c21.9,7.8,41.3,14.3,43.1,14.3c2.1,0,12.5-17.1,23.6-37.8l20.1-38.1l-25.4-24.2
			c-13.9-13.5-26.7-24.6-28.1-24.6c-7.3,0-11.8-22.1-8.3-42c1.7-11,2.1-37.4,1-58.8c-2.1-37.1-2.1-38.5,5.9-46.3
			c4.5-4.3,19.4-18.9,33.3-32.4l25.4-24.6l-6.6-9.3c-3.5-5-12.5-21.7-19.4-36.7c-7.6-16-15.3-27.8-18.4-27.8
			c-2.8,0-20.8,5.7-39.9,12.5c-19.4,6.8-38.5,12.5-42.4,12.5c-4.2,0-17-8.2-28.5-18.5c-11.5-10-33.7-24.2-49.3-31.7
			c-16.3-7.8-29.2-16.4-30.2-20c-0.7-3.6-4.9-23.2-9-43.8c-4.2-20.7-8.7-38.8-10.1-40.3s-21.2-2.1-43.8-1.8l-41.3,1.1l-8,40.6
			c-7.3,37.4-14.2,53.8-22.6,53.8s-57.3,26.4-72.9,39.2c-9.7,7.8-20.5,14.3-23.6,14.3c-5.2,0-54.2-16.4-80.6-26.7
			c-4.2-1.8-9,3.6-20.1,23.9c-8,14.3-18.4,31.7-22.6,38.8l-8.3,13.2l29.5,25.7c39.9,34.9,41,36.7,36.1,64.8
			c-2.8,14.3-3.5,36.3-2.1,60.6l2.4,38.1l-33.3,29.6c-18.1,16-33,32.1-33,34.9c0,5,33.7,63.4,41.7,72.3c1,1.4,19.8-3.9,41.3-11.8
			c42.4-15.3,50.4-15.7,62.5-1.4c9.4,11,39.6,31,63.6,41.7c10.1,4.6,20.1,10.7,22.2,13.5c2.1,2.9,7.3,23.9,11.8,47l8,41.7h44.1h44.5
			L3140.8,3857.7z"/>
		<path d="M3061,3713.1c-67.4-18.2-112.9-77.7-112.9-148.2c0-44.2,14.6-79.4,45.5-109.4c18.4-17.8,29.9-24.2,57-32.1
			c26.7-7.5,60.8-7.5,88.9,0.7c26.4,7.5,34.7,12.1,54.9,31.4c20.5,19.6,29.2,34.9,36.8,64.5c18.1,67.3-4.5,137.5-54.9,170.7
			C3141.2,3713.8,3096,3722.3,3061,3713.1z M3133.9,3655.7c22.2-10.3,44.8-36.3,52.4-59.9c24.7-76.2-51.4-152.5-124.3-124.3
			c-39.6,15.7-63.2,50.6-63.6,94.8c0,21,1.7,27.8,10.4,44.2c12.2,22.4,31.9,41,51.7,48.1C3083.2,3666.7,3113.4,3665.7,3133.9,3655.7
			z"/>
	</g>
</g>
</svg>
