<?xml version="1.0" encoding="utf-8"?>
<!-- Generator: Adobe Illustrator 24.1.2, SVG Export Plug-In . SVG Version: 6.00 Build 0)  -->
<svg version="1.1" xmlns="http://www.w3.org/2000/svg" xmlns:xlink="http://www.w3.org/1999/xlink" x="0px" y="0px"
	 viewBox="0 0 512 512" style="enable-background:new 0 0 512 512;" xml:space="preserve">
<style type="text/css">
	.st0{fill:#00000D;}
	.st1{fill:#0A1A33;}
	.st2{fill:#FFFFFF;}
</style>
<g id="Layer_1">
	<g id="Layer_1_1_">
		<g id="Outline">
			<path class="st0" d="M256,16C158.3,16.7,79.5,96.4,80,194.1c0,62.7,28.8,132.3,85.6,206.9c25.5,33.5,54,64.7,85.1,93
				c3,2.6,7.5,2.6,10.5,0c31.2-28.3,59.6-59.5,85.1-93c56.8-74.5,85.6-144.2,85.6-206.9C432.5,96.4,353.7,16.7,256,16z M256,477.2
				c-28.2-26.3-160-156-160-283c0-24.2,5.4-47.2,15-67.8c13.4-28.7,35.2-52.8,62.1-69.1c24.2-14.7,52.6-23.1,82.9-23.1
				c88.4,0,160,71.6,160,160C416,321.2,284.2,450.9,256,477.2z"/>
			<path class="st1" d="M256,34.2c-30.3,0-58.7,8.4-82.9,23.1c-26.9,16.3-48.7,40.4-62.1,69.1c-9.6,20.6-15,43.6-15,67.8
				c0,127,131.8,256.7,160,283c28.2-26.3,160-156,160-283C416,105.8,344.4,34.2,256,34.2z M256,336c-79.5,0-144-64.5-144-144
				S176.5,48,256,48c79.5,0.1,143.9,64.5,144,144C400,271.5,335.5,336,256,336z"/>
			<path class="st0" d="M256,48c-79.5,0-144,64.5-144,144s64.5,144,144,144s144-64.5,144-144C399.9,112.5,335.5,48.1,256,48z
				 M383.8,198.6c-3.4,65.4-55.8,117.8-121.2,121.2c-2.2,0.1-4.4,0.2-6.6,0.2c-0.7,0-1.4,0-2.1,0c-0.5,0-0.9,0-1.4,0
				c-1,0-2.1-0.1-3.1-0.1c-1.3-0.1-2.5-0.1-3.7-0.2c-0.9-0.1-1.9-0.2-2.8-0.3c-0.5,0-1.1-0.1-1.6-0.2c-0.5-0.1-1.1-0.1-1.6-0.2
				c-0.9-0.1-1.8-0.2-2.6-0.4c-0.8-0.1-1.6-0.2-2.4-0.4c-0.4-0.1-0.8-0.1-1.3-0.2c-0.6-0.1-1.2-0.2-1.7-0.3c-0.5-0.1-1-0.2-1.4-0.3
				c-0.5-0.1-1-0.2-1.6-0.3C171.1,304.6,128,253.4,128,192S171.1,79.4,228.8,66.9c0.5-0.1,1-0.2,1.6-0.3c0.5-0.1,0.9-0.2,1.4-0.3
				c0.6-0.1,1.1-0.2,1.7-0.3c0.4-0.1,0.8-0.2,1.3-0.2c0.8-0.1,1.6-0.3,2.4-0.4c0.9-0.1,1.8-0.3,2.6-0.4c0.5-0.1,1.1-0.1,1.6-0.2
				c0.5-0.1,1.1-0.1,1.6-0.2c0.9-0.1,1.8-0.2,2.8-0.3c1.2-0.1,2.5-0.2,3.7-0.2c1.1-0.1,2.2-0.1,3.3-0.1c0.4,0,0.9,0,1.3,0
				c0.7,0,1.3,0,2,0c0.7,0,1.4,0,2,0c1.4,0,2.7,0.1,4.1,0.1c0.7,0,1.3,0.1,2,0.1c1,0.1,1.9,0.1,2.9,0.2c0.9,0.1,1.9,0.2,2.8,0.3
				c1.9,0.2,3.7,0.5,5.6,0.7c0.6,0.1,1.1,0.2,1.7,0.3c1,0.2,2.1,0.4,3.1,0.5c0,0,0.1,0,0.1,0c1.8,0.3,3.6,0.7,5.4,1.2
				c2.7,0.7,5.3,1.4,8,2.2c17.5,5.4,33.4,14.5,46.8,26.3c1.3,1.2,2.7,2.4,3.9,3.6c0.6,0.6,1.3,1.2,1.9,1.9c0.6,0.6,1.2,1.2,1.8,1.8
				c0.2,0.2,0.3,0.3,0.5,0.5c0.5,0.5,1,1,1.5,1.5c0.6,0.7,1.3,1.4,1.9,2.1c0.6,0.6,1.1,1.3,1.7,1.9c0,0,0.1,0.1,0.1,0.1
				c0.5,0.6,0.9,1.1,1.4,1.7c1,1.2,2,2.4,2.9,3.7c0.5,0.6,0.9,1.3,1.4,1.9c0.3,0.4,0.6,0.8,0.9,1.3c0.4,0.6,0.9,1.3,1.3,1.9
				c0.4,0.6,0.9,1.3,1.3,1.9c0,0,0,0,0,0c0.6,0.9,1.1,1.7,1.6,2.6c0.8,1.3,1.6,2.6,2.4,4c0.3,0.5,0.6,1.1,0.9,1.6
				c0.5,0.8,0.9,1.6,1.3,2.4c0.2,0.4,0.4,0.8,0.6,1.2c0.1,0.1,0.1,0.2,0.2,0.4c0.2,0.4,0.4,0.8,0.6,1.2c1,2,1.9,4,2.8,6.1
				c0.2,0.5,0.4,1,0.6,1.5c0.9,2.2,1.8,4.5,2.6,6.8c0.2,0.6,0.4,1.2,0.6,1.7c0.1,0.4,0.3,0.8,0.4,1.2c0.2,0.6,0.4,1.3,0.6,1.9
				c0.7,2.3,1.4,4.6,1.9,7c0.1,0.6,0.3,1.1,0.4,1.7c0,0,0,0.1,0,0.2c0.1,0.5,0.2,1,0.3,1.4c0.7,3,1.2,6.1,1.7,9.2
				c0.1,0.7,0.2,1.3,0.3,2c0.1,0.4,0.1,0.8,0.2,1.2c0,0.3,0.1,0.5,0.1,0.8c0,0.2,0,0.4,0.1,0.6c0.1,0.8,0.2,1.5,0.2,2.2
				c0,0.3,0.1,0.6,0.1,0.9c0,0.4,0.1,0.9,0.1,1.3c0.1,1.2,0.2,2.3,0.2,3.5c0,0.4,0,0.8,0,1.2c0,0.6,0,1.2,0,1.9c0,0.9,0,1.8,0,2.6
				C384,194.2,384,196.3,383.8,198.6C383.8,198.5,383.8,198.6,383.8,198.6z"/>
		</g>
	</g>
	<ellipse class="st2" cx="256.1" cy="192" rx="127.9" ry="128"/>
</g>
<g id="Layer_2">
	<path d="M171.7,275.3h139.7c1.6,0,2.9-1.3,2.9-2.9v-25.8h20.4c1.6,0,2.9-1.3,2.9-2.9v-28.6c0-1.6-1.3-2.9-2.9-2.9h-20.4v-25.8
		c0-1.6-1.3-2.9-2.9-2.9H306c0.4-1.9,0-3.8-1.2-5.4l-13.1-17.2l6.1-4.5c2.7-2,4.2-5.2,4-8.5l-0.3-5.2c-0.1-1.4,0.6-2.7,1.7-3.6
		l6.1-4.5l2.6,3.3c0.5,0.6,1.2,1,1.9,1.1c0.1,0,0.3,0,0.4,0c0.6,0,1.2-0.2,1.7-0.6l24-17.7c3.9-2.8,4.6-8.2,1.7-12L340,107
		c-2.9-3.8-8.4-4.6-12.2-1.7l-24,17.7c-1.3,0.9-1.5,2.7-0.6,4l2.6,3.3l-6.1,4.5c-2.7,2-4.2,5.2-4,8.5l0.3,5.2
		c0.1,1.4-0.6,2.7-1.7,3.6l-6.1,4.5l-13.1-17.2c-1.4-1.8-3.6-2.8-5.9-2.7c-2.2,0.2-4.2,1.4-5.2,3.3L240,183.7h-68.3
		c-1.6,0-2.9,1.3-2.9,2.9v28.6c0,1.6,1.3,2.9,2.9,2.9h20.4V241h-20.4c-1.6,0-2.9,1.3-2.9,2.9v28.6
		C168.8,274,170.1,275.3,171.7,275.3z M331.3,109.9c1.3-0.9,3.1-0.7,4.1,0.6l1.6,2.1c1,1.3,0.7,3.1-0.6,4l-21.7,16l-5.1-6.7
		L331.3,109.9z M221.2,246.7h40.7v22.9h-40.7V246.7z M244.5,218.1h40.7V241h-40.7V218.1z M308.5,269.6h-40.7v-22.9h40.7V269.6z
		 M331.8,241H291v-22.9h40.7V241z M308.5,212.3h-40.7v-16.7l29.8-6.2h11V212.3z M269.1,142.7c0.1-0.2,0.3-0.3,0.5-0.3l0.1,0
		c0.3,0,0.6,0.2,0.8,0.4l13.1,17.2l-12,8.9c-1.3,0.9-1.5,2.7-0.6,4c1,1.3,2.8,1.5,4.1,0.6l12-8.9l13.1,17.2c0.2,0.3,0.3,0.6,0.2,0.9
		c-0.1,0.2-0.3,0.4-0.5,0.4l-57.7,12.1c-0.4,0.1-0.7-0.1-0.9-0.4c-0.2-0.3-0.3-0.7-0.1-1L269.1,142.7z M236.6,198.2
		c1.6,2.1,4.2,3.1,6.8,2.6l18.6-3.9v15.5h-40.7v-22.9h15.7l-0.9,1.7C234.7,193.4,235,196.2,236.6,198.2z M174.6,200.9h5.8
		c1.6,0,2.9-1.3,2.9-2.9c0-1.6-1.3-2.9-2.9-2.9h-5.8v-5.7h40.7v22.9h-40.7V200.9z M197.9,218.1h40.7V241h-40.7V218.1z M174.6,246.7
		h40.7v22.9h-40.7V246.7z"/>
	<path d="M206.6,198c0-1.6-1.3-2.9-2.9-2.9h-11.6c-1.6,0-2.9,1.3-2.9,2.9c0,1.6,1.3,2.9,2.9,2.9h11.6
		C205.3,200.9,206.6,199.6,206.6,198z"/>
</g>
</svg>
