<?xml version="1.0" encoding="utf-8"?>
<!-- Generator: Adobe Illustrator 24.1.2, SVG Export Plug-In . SVG Version: 6.00 Build 0)  -->
<svg version="1.1" xmlns="http://www.w3.org/2000/svg" xmlns:xlink="http://www.w3.org/1999/xlink" x="0px" y="0px"
	 viewBox="0 0 512 512" style="enable-background:new 0 0 512 512;" xml:space="preserve">
<style type="text/css">
	.st0{fill:#00000D;}
	.st1{fill:#0A1A33;}
	.st2{fill:#FFFFFF;}
</style>
<g id="Layer_1">
	<g id="Layer_1_2_">
		<g id="Layer_1_1_">
			<g id="Outline">
				<path class="st0" d="M256,16C158.3,16.7,79.5,96.4,80,194.1c0,62.7,28.8,132.3,85.6,206.9c25.5,33.5,54,64.7,85.1,93
					c3,2.6,7.5,2.6,10.5,0c31.2-28.3,59.6-59.5,85.1-93c56.8-74.5,85.6-144.2,85.6-206.9C432.5,96.4,353.7,16.7,256,16z M256,477.2
					c-28.2-26.3-160-156-160-283c0-24.2,5.4-47.2,15-67.8c13.4-28.7,35.2-52.8,62.1-69.1c24.2-14.7,52.6-23.1,82.9-23.1
					c88.4,0,160,71.6,160,160C416,321.2,284.2,450.9,256,477.2z"/>
				<path class="st1" d="M256,34.2c-30.3,0-58.7,8.4-82.9,23.1c-26.9,16.3-48.7,40.4-62.1,69.1c-9.6,20.6-15,43.6-15,67.8
					c0,127,131.8,256.7,160,283c28.2-26.3,160-156,160-283C416,105.8,344.4,34.2,256,34.2z M256,336c-79.5,0-144-64.5-144-144
					S176.5,48,256,48c79.5,0.1,143.9,64.5,144,144C400,271.5,335.5,336,256,336z"/>
				<path class="st0" d="M256,48c-79.5,0-144,64.5-144,144s64.5,144,144,144s144-64.5,144-144C399.9,112.5,335.5,48.1,256,48z
					 M383.8,198.5C383.8,198.5,383.8,198.6,383.8,198.5C380.4,264,328,316.4,262.6,319.8c0,0,0,0-0.1,0c-1.1,0.1-2.1,0.1-3.2,0.1
					s-2.2,0-3.3,0c-2.3,0-4.7-0.1-7-0.2c-0.4,0-0.8,0-1.3-0.1c-0.6,0-1.2-0.1-1.8-0.1c-1-0.1-2-0.2-3-0.3c-0.5,0-1.1-0.1-1.6-0.2
					s-1.1-0.1-1.6-0.2C176.8,311,128,257.2,128,192S176.8,73,239.8,65c0.5-0.1,1.1-0.1,1.6-0.2s1.1-0.1,1.6-0.2c1-0.1,2-0.2,3-0.3
					c0.6,0,1.2-0.1,1.8-0.1c0.4,0,0.8-0.1,1.3-0.1c1.3-0.1,2.6-0.1,4-0.2c0.3,0,0.7,0,1,0c0.7,0,1.3,0,2,0s1.4,0,2,0
					c1.4,0,2.7,0.1,4.1,0.1c0.7,0,1.3,0.1,2,0.1c1,0.1,1.9,0.1,2.9,0.2c0.9,0.1,1.9,0.2,2.8,0.3c1.9,0.2,3.7,0.5,5.6,0.7
					c0.6,0.1,1.1,0.2,1.7,0.3c1,0.2,2.1,0.4,3.1,0.5h0.1c29.2,5.6,54.8,21.2,73.3,43c2,2.4,3.9,4.8,5.8,7.4c0.3,0.4,0.6,0.8,0.9,1.3
					c0.4,0.6,0.9,1.3,1.3,1.9s0.9,1.3,1.3,1.9l0,0c0.6,0.9,1.1,1.7,1.6,2.6l0,0c0.8,1.2,1.5,2.4,2.2,3.7c0.1,0.1,0.1,0.2,0.2,0.3
					c0.3,0.5,0.6,1.1,0.9,1.6c1.1,2,2.2,4.1,3.2,6.2c0.3,0.5,0.5,1.1,0.8,1.6c2.1,4.4,3.9,8.9,5.4,13.6c0.1,0.4,0.3,0.8,0.4,1.2
					c0.8,2.5,1.5,5,2.2,7.6c0.1,0.4,0.2,0.8,0.3,1.3c0.4,1.7,0.8,3.4,1.1,5.1c0.1,0.4,0.2,0.8,0.2,1.2c0.3,1.3,0.5,2.7,0.7,4
					c0.1,0.7,0.2,1.4,0.3,2.1c0.1,0.7,0.2,1.3,0.3,2c0,0.1,0,0.2,0,0.3c0.1,0.7,0.2,1.3,0.2,2c0.1,1,0.2,2.1,0.3,3.1
					c0.1,0.6,0.1,1.1,0.1,1.7c0.1,0.8,0.1,1.5,0.1,2.3s0.1,1.6,0.1,2.5c0,0.6,0,1.2,0,1.9c0,0.9,0,1.8,0,2.6c0,1.1,0,2.2,0,3.3
					C383.9,196.4,383.9,197.4,383.8,198.5z"/>
			</g>
		</g>
		<ellipse class="st2" cx="256.1" cy="192" rx="127.9" ry="128"/>
	</g>
	<g id="Layer_2_1_">
	</g>
</g>
<g id="Layer_2">
	<g transform="translate(0.000000,512.000000) scale(0.100000,-0.100000)">
		<path d="M2005.6,4196.6c-76.2-18.5-150.6-93.2-220.4-220.6c-27.8-51-54.1-107.9-54.1-117.1c0-9.2,16.5-23.3,27.4-23.3
			c15.8,0,24.4,10.6,45.8,56.5c61.2,129.8,129.2,216.5,194.5,247.3c27.8,13.4,63.5,13.4,94.3,0c30.4-12.7,80.4-59.3,112.3-103.8
			c107.4-149.3,206.5-436.7,228.3-660.7c18-185.3-77.7-352.1-241.9-421.3c-28.9-12.3-77-24.7-102.1-26.4l-15-1l-1.1,152.4
			l-0.8,152.1l63.8,58.6c69.5,64.1,72.9,69.2,54.5,85.6c-16.9,15.8-25.2,12.3-71.4-29.1c-22.9-20.6-42.8-37.7-44.3-37.7
			s-2.6,26-2.6,57.9v58.2l-9.8,6.9c-5.6,4.1-12.4,7.2-15,7.2c-10.9,0-24-8.6-27.8-18.2c-2.3-6.2-3.8-51-3.8-116.5v-106.5l-42.4,38.4
			c-46.9,42.1-55.2,45.6-72.1,29.8c-18.4-16.4-15-21.9,52.6-83.9l62-56.9v-99.7v-100l-13.9,1.7c-166.4,21.2-298.2,143.2-338,313.1
			c-9.8,42.5-9,135.6,2.3,202.1c14.6,88.4,36.1,175.4,63.1,258.6c7.1,22.6,13.1,45.6,13.1,51.4c-0.4,19.5-30,29.8-45.4,15.8
			s-63.5-184.6-82.6-294.9c-28.5-162-15.8-266.8,45.4-373.7c48.8-85.6,131.8-158.6,221.2-193.9c28.2-11,84.9-25.3,120.9-30.1
			l13.9-2.1v-186.3v-186.7h-199H1618l-9-8.6c-12-10.6-12-23.6,0-34.3l9-8.6h943h943l9,8.6c12,10.6,12,23.6,0,34.3l-9,8.6h-118.7
			H3267v176.4v176.4h9c4.9,0,20.7,3.4,34.6,7.2c76.6,21.6,135.9,68.8,174.3,138.4c27.8,50.4,34.9,78.4,35.3,138.7
			c0,53.8-4.5,77.4-22.9,119.5c-36.1,82.5-110,144.2-197.2,164.4l-25.9,6.2l7.1,8.2c22.9,26.4,45.8,79.8,45.8,105.8
			c0,10.3-2.3,14.7-9.8,20.2c-21,15.1-39.1,4.5-48.1-29.1c-15.4-55.8-57.8-102.4-116.4-128.4c-18.4-8.2-35.7-18.2-38.7-22.3
			c-3-4.5-7.9-16.8-11.3-27.7c-13.1-46.2-46.2-86.3-85.6-103.8c-56.3-25-132.9-13-180.3,27.7l-20.7,17.8v56.9v56.9l60.5,54.8
			c33.4,30.1,62.7,59.3,65.3,65.1c8.3,16.8-4.1,35.6-24,36c-6.8,0-21.4-11.3-55.2-41.8l-46.2-41.4l-1.1,89.7l-1.1,90.1l-10.5,8.2
			c-12.8,9.9-21,10.3-34.2,1l-9.8-6.9v-65.1c0-35.6-1.1-64.7-3-64.7c-1.5,0-22.2,17.8-45.8,39.4c-37.6,34.3-44.7,39.4-55.2,39.4
			c-16.1,0-27.4-10.3-27.4-25c0-9.9,7.5-17.8,65.7-70.9l65.7-59.9v-79.5v-79.5l-18.8-17.1c-59-53.8-158.9-58.9-218.9-11
			c-24.8,19.9-27.8,27.7-30.4,79.1c-3.4,59.3-11.3,115.4-25.2,179.8c-10.5,48-41.3,161.3-53.7,197.6l-5.6,16.1l21.4,9.6
			c29.7,13.4,35.7,24.7,38.7,67.8c2.3,38.7,11.6,60.6,35.3,82.2c13.9,12.3,40.9,26.4,59,30.5c13.9,3.1,33,18.5,39.1,31.9
			c3,6.2,5.3,17.8,5.3,26c0,7.9,2.6,23.6,5.6,34.9c23.7,82.2,113.8,136.7,203.5,122.6c83.4-13,151-82.5,151.3-155.2
			c0-16.8,9.8-39.7,21-48.6c3.8-3.1,17.3-8.9,29.7-13.4c59-19.9,88.3-56.9,88.3-111.3c0-40.4,8.3-52.7,48.8-71.6
			c45.4-21.2,86-58.2,102.1-94.2c7.1-15.4,14.6-20.9,28.9-21.2c13.1-0.3,22.2,5.5,27.4,17.5c2.6,6.9,0.8,13-9.8,32.9
			c-24.8,45.9-68.3,86-116.8,107.6l-23.7,10.6l-1.5,31.9c-1.1,27.7-3,34.9-15,57.2c-7.1,14-19.9,32.5-27.8,40.8
			c-17.3,18.2-51.4,39-76.2,46.6l-18,5.5l-2.3,24.7c-6.8,81.9-76.2,158.9-166,185c-37.9,11-102.1,10.6-139-0.3
			c-40.2-12.3-64.6-26.7-97.6-56.9c-22.5-20.6-33.8-34.6-44.3-53.8c-14.3-26.7-25.2-63-25.2-85.6c0-12-0.8-12.7-22.2-19.9
			c-46.2-15.4-88.3-53.4-105.9-95.9c-4.9-11.6-8.6-30.8-9.8-48.3c-1.5-20.9-3.8-30.5-7.9-33.2c-9-6.5-15-5.5-17.7,3.4
			c-18.4,55.5-80,181.2-114.9,234.3C2187,4165.1,2097.2,4219.2,2005.6,4196.6z M3285.1,3371.5c79.6-17.1,147.2-82.2,172-166.1
			c9.4-31.2,9.4-99.3,0-131.9c-12.4-43.5-34.2-79.1-68-110c-31.5-29.1-53.7-42.1-89-53.1c-34.6-10.6-33-11.6-33,30.1v36.7l46.6,43.2
			c28.5,26,47.7,46.6,49.2,52.4c4.1,14.4-7.9,27.7-25.9,29.1c-12.8,1-16.1-1-41.7-23.6l-28.2-24.7v42.8c0,37-1.1,44.2-7.1,51
			c-9.8,11-32.3,11-42.1,0c-6.8-7.5-7.1-15.8-7.1-125.7c0-133.6,3.4-122.3-34.9-110.6c-71,21.6-129.6,81.5-152.8,155.5
			c-9,28.1-13.1,81.2-8.6,107.6c3,18.5,3,18.8,25.5,29.1c44.3,20.2,93.9,74.7,112.7,123.7c8.3,21.6,8.6,22.3,36.1,35.6
			C3220.5,3378,3243.7,3380.4,3285.1,3371.5z M2553.9,3195.4c54.8-17.1,115.7-12,173.5,14.4l32.7,15.4v-362.7v-362.7h-343.6h-343.6
			v186.3v186.7l18,2.1c126.2,15.4,239.2,80.5,312.8,180.9c34.6,47.3,66.8,116.1,76.6,163.7l2.6,12.3l23.7-14.4
			C2519.3,3209.5,2540.7,3199.5,2553.9,3195.4z M2844.5,3210.2c28.9-13.7,44.7-18.2,80-23.3l28.9-4.1l2.6-47.6
			c3-57.2,11.3-90.1,34.2-133.6c37.2-69.9,99.5-120.2,176.9-141.8c13.9-3.8,29.7-7.2,34.6-7.2h9v-176.4v-176.4h-197.2h-197.2v361.7
			c0,199,1.1,361,3,360.3C2820.9,3221.1,2832.1,3216,2844.5,3210.2z"/>
	</g>
</g>
</svg>
