<?xml version="1.0" encoding="utf-8"?>
<!-- Generator: Adobe Illustrator 24.1.2, SVG Export Plug-In . SVG Version: 6.00 Build 0)  -->
<svg version="1.1" xmlns="http://www.w3.org/2000/svg" xmlns:xlink="http://www.w3.org/1999/xlink" x="0px" y="0px"
	 viewBox="0 0 512 512" style="enable-background:new 0 0 512 512;" xml:space="preserve">
<style type="text/css">
	.st0{fill:#00000D;}
	.st1{fill:#0A1A33;}
	.st2{fill:#FFFFFF;}
</style>
<g id="Layer_1">
	<g id="Layer_1_3_">
		<g id="Layer_1_2_">
			<g id="Layer_1_1_">
				<g id="Outline">
					<path class="st0" d="M256,16C158.3,16.7,79.5,96.4,80,194.1c0,62.7,28.8,132.3,85.6,206.9c25.5,33.5,54,64.7,85.1,93
						c3,2.6,7.5,2.6,10.5,0c31.2-28.3,59.6-59.5,85.1-93c56.8-74.5,85.6-144.2,85.6-206.9C432.5,96.4,353.7,16.7,256,16z M256,477.2
						c-28.2-26.3-160-156-160-283c0-24.2,5.4-47.2,15-67.8c13.4-28.7,35.2-52.8,62.1-69.1c24.2-14.7,52.6-23.1,82.9-23.1
						c88.4,0,160,71.6,160,160C416,321.2,284.2,450.9,256,477.2z"/>
					<path class="st1" d="M256,34.2c-30.3,0-58.7,8.4-82.9,23.1c-26.9,16.3-48.7,40.4-62.1,69.1c-9.6,20.6-15,43.6-15,67.8
						c0,127,131.8,256.7,160,283c28.2-26.3,160-156,160-283C416,105.8,344.4,34.2,256,34.2z M256,336c-79.5,0-144-64.5-144-144
						S176.5,48,256,48c79.5,0.1,143.9,64.5,144,144C400,271.5,335.5,336,256,336z"/>
					<path class="st0" d="M256,48c-79.5,0-144,64.5-144,144s64.5,144,144,144s144-64.5,144-144C399.9,112.5,335.5,48.1,256,48z
						 M383.8,198.5C383.8,198.5,383.8,198.6,383.8,198.5C380.4,264,328,316.4,262.6,319.8c0,0,0,0-0.1,0c-1.1,0.1-2.1,0.1-3.2,0.1
						s-2.2,0-3.3,0c-2.3,0-4.7-0.1-7-0.2c-0.4,0-0.8,0-1.3-0.1c-0.6,0-1.2-0.1-1.8-0.1c-1-0.1-2-0.2-3-0.3c-0.5,0-1.1-0.1-1.6-0.2
						s-1.1-0.1-1.6-0.2C176.8,311,128,257.2,128,192S176.8,73,239.8,65c0.5-0.1,1.1-0.1,1.6-0.2s1.1-0.1,1.6-0.2c1-0.1,2-0.2,3-0.3
						c0.6,0,1.2-0.1,1.8-0.1c0.4,0,0.8-0.1,1.3-0.1c1.3-0.1,2.6-0.1,4-0.2c0.3,0,0.7,0,1,0c0.7,0,1.3,0,2,0s1.4,0,2,0
						c1.4,0,2.7,0.1,4.1,0.1c0.7,0,1.3,0.1,2,0.1c1,0.1,1.9,0.1,2.9,0.2c0.9,0.1,1.9,0.2,2.8,0.3c1.9,0.2,3.7,0.5,5.6,0.7
						c0.6,0.1,1.1,0.2,1.7,0.3c1,0.2,2.1,0.4,3.1,0.5h0.1c29.2,5.6,54.8,21.2,73.3,43c2,2.4,3.9,4.8,5.8,7.4
						c0.3,0.4,0.6,0.8,0.9,1.3c0.4,0.6,0.9,1.3,1.3,1.9s0.9,1.3,1.3,1.9l0,0c0.6,0.9,1.1,1.7,1.6,2.6l0,0c0.8,1.2,1.5,2.4,2.2,3.7
						c0.1,0.1,0.1,0.2,0.2,0.3c0.3,0.5,0.6,1.1,0.9,1.6c1.1,2,2.2,4.1,3.2,6.2c0.3,0.5,0.5,1.1,0.8,1.6c2.1,4.4,3.9,8.9,5.4,13.6
						c0.1,0.4,0.3,0.8,0.4,1.2c0.8,2.5,1.5,5,2.2,7.6c0.1,0.4,0.2,0.8,0.3,1.3c0.4,1.7,0.8,3.4,1.1,5.1c0.1,0.4,0.2,0.8,0.2,1.2
						c0.3,1.3,0.5,2.7,0.7,4c0.1,0.7,0.2,1.4,0.3,2.1c0.1,0.7,0.2,1.3,0.3,2c0,0.1,0,0.2,0,0.3c0.1,0.7,0.2,1.3,0.2,2
						c0.1,1,0.2,2.1,0.3,3.1c0.1,0.6,0.1,1.1,0.1,1.7c0.1,0.8,0.1,1.5,0.1,2.3s0.1,1.6,0.1,2.5c0,0.6,0,1.2,0,1.9c0,0.9,0,1.8,0,2.6
						c0,1.1,0,2.2,0,3.3C383.9,196.4,383.9,197.4,383.8,198.5z"/>
				</g>
			</g>
			<ellipse class="st2" cx="256.1" cy="192" rx="127.9" ry="128"/>
		</g>
		<g id="Layer_2_1_">
		</g>
	</g>
	<g id="Layer_2_2_">
	</g>
</g>
<g id="Layer_2">
	<g transform="translate(0.000000,512.000000) scale(0.100000,-0.100000)">
		<path d="M1968.2,4141.3c-14.4-6.3-25.8-19.2-33.2-36.2c-4.1-10.4-5.5-27.4-5.5-65.4v-51.8l-105.9-1.1
			c-154.6-1.5-144.6,11.5-145-188.2c0-137.9,0-139,8.5-154.9c5.9-11.1,13.7-18.9,24.7-24.8c15.5-8.1,18.4-8.5,117-8.5h100.7v-110.9
			v-110.9h-102.2c-99.2,0-102.9-0.4-117-8.5c-9.2-5.2-17.7-14.4-23.2-24.4c-8.5-16.3-8.5-17-8.5-155.6s0-139.4,8.5-155.6
			c5.5-10,14-19.2,23.2-24.4c14-8.1,17.7-8.5,117-8.5h102.2v-110.9v-110.9h-100.7c-98.5,0-101.5-0.4-117-8.5
			c-11.1-5.9-18.8-13.7-24.7-24.8c-8.5-15.9-8.5-17-8.5-154.9c0-155.6,0.7-160.1,26.2-178.2c12.5-8.9,13.3-8.9,118.8-10l105.9-1.1
			v-52.5c0-56.9,4.4-73.2,22.5-90.2c15.9-14.4,26.2-15.9,121-15.9c88.2,0,91.9,0.4,107.4,8.5c11.1,5.9,18.8,13.7,24.7,24.8
			c7.7,14.4,8.5,20.7,8.5,71v54.7h142.4h142.4l35.4-27c151.6-114.2,341.3-156.4,524.3-116.8c242.8,52.9,431.7,237.3,490.7,479.9
			c35.8,146.8,18.1,305.7-49.1,439.6c-82.6,164.1-229.5,285.8-404.4,334.2l-31.4,8.9v38.4v38.8l105.1,1.8
			c112.5,1.8,113.6,2.2,130.6,22.2c16.6,20,17.3,29.6,16.2,176l-1.1,137.2l-9.2,12.9c-17.7,26.6-19.2,26.6-136.5,28.8l-105.1,1.8
			l-1.8,59.9c-2.2,68-4.4,73.9-33.2,89.1c-15.5,7.8-20.3,8.1-107,8.1c-101.5,0-112.5-2.2-129.5-26.2c-8.1-11.8-8.9-16.6-10.7-71.7
			l-1.8-59.2l-283-1.1l-283.3-0.7v54.7c0,50.3-0.7,56.6-8.5,71c-5.9,11.1-13.7,18.9-24.7,24.8c-15.5,8.1-18.8,8.5-108.5,8.5
			C2002.8,4146.1,1976.3,4144.9,1968.2,4141.3z M2150.8,3200v-883.6h-79.3h-79.3V3200v883.6h79.3h79.3V3200z M2999.4,3814.8v-269.1
			h-77.5h-77.5v269.1v268.8h77.5h77.5V3814.8z M1929.4,3798.9v-125.7h-94.1h-94.1v125.7v125.7h94.1h94.1V3798.9z M2781.7,3878.8
			v-45.8l-39.1-1.5c-38-1.1-39.1-1.5-48.3-11.8c-7.4-8.9-8.9-13.3-7-24c3.3-21.4,8.9-24,53.1-26.2l39.5-1.8l1.1-47l1.1-47.3h-284.5
			h-284.1v48.1v48.1h38c35,0,38.7,0.7,45.7,8.5c10.7,11.5,13.3,22.2,7.7,34c-7,15.5-20.7,20.3-58.3,20.3h-33.2v46.2v46.2h284.1
			h284.1V3878.8z M3253.9,3798.9v-125.7H3158h-95.9v125.7v125.7h95.9h95.9V3798.9z M2780.9,3570.8l-1.1-39.6l-12.9-3.3
			c-86.3-22.9-163.4-60.3-233.5-113.1l-35-26.2h-142.4h-142.4v110.9v110.9h284.1H2782L2780.9,3570.8z M2977.2,3481
			c77.5-8.1,136.9-25.1,204.8-59.2c212.1-106.1,341.6-336.1,319.9-568.2c-7.7-83.9-24-142-59.8-213.7
			c-105.9-212.6-335.4-342.3-567.1-320.5c-84.9,8.1-140.9,23.7-213.2,59.9c-58.3,29.2-105.9,63.6-151.3,109.1
			c-78.2,78.4-133.6,179.3-156.8,286.1c-33.9,153.8-3,320.2,84.5,449.9C2557.7,3402.6,2768,3502.8,2977.2,3481z M1929.4,3200v-125.7
			h-94.1h-94.1V3200v125.7h94.1h94.1V3200z M2434.9,3324.2c0-0.7-5.9-8.9-13.7-17.7c-39.1-46.6-90.4-139.7-110.3-201.1l-10-31.1
			h-43.5h-43.9v46.2v46.2h28.8c40.2,0,55,4.8,62.4,20.7c5.9,11.5,5.9,13.7,0,25.1c-7.4,15.9-22.1,20.7-62.4,20.7h-28.8v46.2v46.2
			h110.7C2385.1,3325.7,2434.9,3325,2434.9,3324.2z M2285.8,3005.5c-1.1-3-4.1-28.8-6.6-56.9c-3.3-40.3-3.3-62.1,0-99.8
			c2.6-26.6,5.5-50.6,6.6-53.6c1.8-4.8-3.3-5.5-35-5.5h-37.3v110.9v110.9h37.3C2283.2,3011.5,2287.7,3010.7,2285.8,3005.5z
			 M1929.4,2601.1v-125.7h-94.1h-94.1v125.7v125.7h94.1h94.1V2601.1z M2310.5,2696.1c27.3-78.7,65.3-146.8,121.4-215.9
			c3-3.7-18.8-4.8-107.4-4.8h-111.1v31.4v31.4h36.5c33.6,0,37.6,0.7,46.9,8.9c13.3,11.1,14.4,31.8,2.2,44c-7.4,7-12.9,8.1-46.9,9.2
			l-38.7,1.5v62.5v62.5h43.5h43.2L2310.5,2696.1z"/>
		<path d="M1822.4,3827.4c-29.1-14.8-19.6-58,12.9-58c26.9,0,40.6,29.6,23.2,49.5C1848.3,3830.3,1834.6,3833.7,1822.4,3827.4z"/>
		<path d="M3144.7,3827c-18.8-8.1-22.9-35.1-7.7-49.5c16.6-15.5,43.5-7.8,51.7,14.8c3.7,10.4-4.8,28.8-16.2,34.4
			C3159.8,3833.3,3159.1,3833.3,3144.7,3827z"/>
		<path d="M2864.7,3386.3c-83-12.6-153.5-39.6-219.5-83.9c-35.4-23.7-100.7-89.1-124.3-124.6c-36.9-55.5-63.1-117.2-77.5-181.9
			c-9.2-42.9-9.2-147.5,0-190.4c12.5-59.2,42.8-134.9,63.8-159.7c17-20.3,46.9-13.3,54.6,12.9c1.5,4.8-3.3,18.9-14.4,41
			c-35,71.7-45.7,110.5-48.3,182.3c-6.3,144.2,55.3,273.9,170.1,359.7c79.7,59.5,169.3,86.9,271.2,82.8
			c63.5-2.6,108.1-13.7,166-42.1c46.1-22.2,59-24.4,72.3-11.8c13.3,12.6,12.2,33.3-2.6,45.5c-24.7,21.1-97,50.3-155.7,63.2
			C2994.6,3385.2,2888.3,3389.7,2864.7,3386.3z"/>
		<path d="M2988.3,3216.3c-21.4-4.1-58.7-17.7-77.5-28.5c-11.1-5.9-33.6-24.8-49.8-41c-33.2-33.3-52.8-67.7-62.4-109.4
			c-6.3-25.9-7.4-73.6-2.6-98.7l3-15.2l-71.2-61.4c-39.1-33.3-76-68-81.9-76.9c-32.1-47-30.3-113.5,4.4-159
			c14-18.9,44.3-38.4,70.1-45.8c40.6-11.5,89.3-0.4,121,27.4c7,6.7,38.7,41.8,69.7,78.4c54.2,64,57.2,66.9,67.9,64.7
			c53.1-10.4,104-3.3,153.1,20.7c57.9,28.5,107.7,89.5,122.9,149.4c9.2,36.2,11.1,61.7,6.3,92.8c-8.9,58.4-25.5,83.6-51.3,77.3
			c-5.5-1.5-33.6-25.9-68.6-61l-59-58.8l-28.4,4.1l-28,4.1l-4.1,22.9c-2.2,12.6-4.1,25.9-4.1,29.6c0,4.1,24.7,32.2,59,66.5
			c53.5,54,59,61,59,72.5c0,19.6-8.5,28.1-36.2,37C3075.4,3215.5,3010.8,3220.3,2988.3,3216.3z M2998.2,3108.3
			c-25.8-26.2-46.9-50.3-46.9-53.6c0-8.1,14.4-106.5,16.6-113.9c4.4-14,15.9-18.5,63.5-25.5c78.2-11.8,69.4-14.4,121.8,37.7
			c24.7,24.8,46.5,44,48,42.5s0.7-16.3-1.8-32.9c-5.5-39.6-21-71.7-46.9-98.7c-46.1-48.4-112.9-66.2-177.1-46.6
			c-14,4.1-19.6,4.1-27.7,0.7c-5.5-2.6-41.3-40.7-79.3-85c-72.7-85.4-84.1-94.6-112.9-95c-18.4,0-47.6,15.9-58.3,31.8
			c-6.3,8.9-9.6,20-10.7,34.4c-2.6,34.8,3,41.8,95.2,120.5c52.8,45.5,82.3,73.2,83.7,79.1c1.1,5.2-0.4,19.6-3.7,32.2
			c-17,62.8-0.7,122,45,168.2c34.3,34.4,71.2,50.3,116.6,51l21.8,0.4L2998.2,3108.3z"/>
		<path d="M3293,3159c-14-11.1-12.5-26.2,6.6-65.1c35.4-70.6,48.3-129.8,45.4-210c-4.1-109.4-43.5-201.5-120.3-280.2
			c-77.8-80.2-174.5-123.1-286.3-127.2c-80.1-3-139.1,10-209.6,45.5c-36.9,18.5-52.8,20.7-64.6,7.8c-11.1-11.8-10.7-32.2,0.4-42.1
			c22.1-20.3,85.6-47.7,146.1-63.2c35.8-8.9,45.4-10,111.1-9.6c62.7,0,76.4,1.1,107,8.5c187.1,45.8,321.3,179.3,368.2,366
			c8.9,35.9,10,45.5,10,111.3s-1.1,75.4-10,111.3c-16.2,65.1-48.3,136.4-66.8,149.4C3319.2,3168.9,3304.8,3168.2,3293,3159z"/>
		<path d="M1822.8,3227.4c-20.7-8.9-24-39.9-5.5-52.1c30.3-19.6,64.2,15.9,42.1,44C1850.5,3231.1,1837.6,3233.6,1822.8,3227.4z"/>
		<path d="M1819.5,2628.1c-8.1-3.3-16.2-23.3-13.7-34.4c5.5-24.4,35.8-32.5,52-13.3c11.4,13.3,11.4,29.6-0.4,41
			C1849,2630.3,1832,2633.3,1819.5,2628.1z"/>
	</g>
</g>
</svg>
